<?xml version="1.0" encoding="utf-8" standalone="no"?>
<!DOCTYPE svg PUBLIC "-//W3C//DTD SVG 1.1//EN"
  "http://www.w3.org/Graphics/SVG/1.1/DTD/svg11.dtd">
<svg xmlns:xlink="http://www.w3.org/1999/xlink" width="487.840625pt" height="188.230129pt" viewBox="0 0 487.840625 188.230129" xmlns="http://www.w3.org/2000/svg" version="1.1">
 <metadata>
  <rdf:RDF xmlns:dc="http://purl.org/dc/elements/1.1/" xmlns:cc="http://creativecommons.org/ns#" xmlns:rdf="http://www.w3.org/1999/02/22-rdf-syntax-ns#">
   <cc:Work>
    <dc:type rdf:resource="http://purl.org/dc/dcmitype/StillImage"/>
    <dc:date>2026-04-22T18:07:02.424205</dc:date>
    <dc:format>image/svg+xml</dc:format>
    <dc:creator>
     <cc:Agent>
      <dc:title>Matplotlib v3.10.8, https://matplotlib.org/</dc:title>
     </cc:Agent>
    </dc:creator>
   </cc:Work>
  </rdf:RDF>
 </metadata>
 <defs>
  <style type="text/css">*{stroke-linejoin: round; stroke-linecap: butt}</style>
 </defs>
 <g id="figure_1">
  <g id="patch_1">
   <path d="M 0 188.230129 
L 487.840625 188.230129 
L 487.840625 0 
L 0 0 
z
" style="fill: #ffffff"/>
  </g>
  <g id="axes_1">
   <g id="patch_2">
    <path d="M 34.240625 150.673879 
L 237.149716 150.673879 
L 237.149716 7.2 
L 34.240625 7.2 
z
" style="fill: #ffffff"/>
   </g>
   <g id="patch_3">
    <path d="M 227.926575 51.920934 
L 226.451626 50.469203 
L 224.953829 49.041057 
L 223.433562 47.636854 
L 221.891207 46.256949 
L 220.327152 44.901688 
L 218.741792 43.571413 
L 217.135525 42.266458 
L 215.508757 40.987153 
L 213.861895 39.733819 
L 212.195356 38.506772 
L 210.509558 37.306321 
L 208.804926 36.132768 
L 207.081889 34.986408 
L 205.34088 33.867529 
L 203.582339 32.776415 
L 201.806707 31.713339 
L 200.014433 30.678568 
L 198.205966 29.672365 
L 196.381762 28.69498 
L 194.542281 27.746662 
L 192.687986 26.827648 
L 190.819343 25.93817 
L 188.936822 25.078452 
L 187.040899 24.24871 
L 185.132049 23.449153 
L 183.210754 22.679982 
L 181.277497 21.941392 
L 179.332765 21.233567 
L 177.377048 20.556687 
L 175.410837 19.910921 
L 173.434628 19.296432 
L 171.448918 18.713375 
L 169.454208 18.161897 
L 167.450999 17.642136 
L 165.439795 17.154223 
L 163.421104 16.698282 
L 161.395432 16.274426 
L 159.363291 15.882763 
L 157.325191 15.523391 
L 155.281646 15.196401 
L 153.233171 14.901874 
L 151.18028 14.639886 
L 149.123491 14.410502 
L 147.063321 14.21378 
L 145.00029 14.049769 
L 142.934916 13.91851 
L 140.86772 13.820037 
L 138.799221 13.754375 
L 136.729941 13.72154 
L 134.6604 13.72154 
L 132.59112 13.754375 
L 130.522621 13.820037 
L 128.455425 13.91851 
L 126.390051 14.049769 
L 124.32702 14.21378 
L 122.26685 14.410502 
L 120.210061 14.639886 
L 118.15717 14.901874 
L 116.108695 15.196401 
L 114.06515 15.523391 
L 112.02705 15.882763 
L 109.994909 16.274426 
L 107.969237 16.698282 
L 105.950546 17.154223 
L 103.939342 17.642136 
L 101.936133 18.161897 
L 99.941423 18.713375 
L 97.955713 19.296432 
L 95.979504 19.910921 
L 94.013293 20.556687 
L 92.057576 21.233567 
L 90.112844 21.941392 
L 88.179587 22.679982 
L 86.258292 23.449153 
L 84.349442 24.24871 
L 82.453518 25.078452 
L 80.570998 25.93817 
L 78.702355 26.827648 
L 76.84806 27.746662 
L 75.008579 28.69498 
L 73.184375 29.672365 
L 71.375908 30.678568 
L 69.583634 31.713339 
L 67.808002 32.776415 
L 66.049461 33.867529 
L 64.308452 34.986408 
L 62.585415 36.132768 
L 60.880783 37.306321 
L 59.194985 38.506772 
L 57.528446 39.733819 
L 55.881584 40.987153 
L 54.254815 42.266458 
L 52.648549 43.571413 
L 51.063189 44.901688 
L 49.499134 46.256949 
L 47.956779 47.636854 
L 46.436512 49.041057 
L 44.938715 50.469203 
L 43.463765 51.920934 
L 112.637319 121.094488 
L 113.006057 120.731555 
L 113.380506 120.374519 
L 113.760573 120.023468 
L 114.146161 119.678491 
L 114.537175 119.339676 
L 114.933515 119.007108 
L 115.335082 118.680869 
L 115.741774 118.361043 
L 116.153489 118.047709 
L 116.570124 117.740947 
L 116.991574 117.440835 
L 117.417732 117.147446 
L 117.848491 116.860856 
L 118.283743 116.581137 
L 118.723378 116.308358 
L 119.167286 116.042589 
L 119.615355 115.783896 
L 120.067472 115.532345 
L 120.523522 115.287999 
L 120.983393 115.05092 
L 121.446967 114.821166 
L 121.914127 114.598797 
L 122.384757 114.383867 
L 122.858738 114.176432 
L 123.335951 113.976543 
L 123.816275 113.78425 
L 124.299589 113.599602 
L 124.785772 113.422646 
L 125.274701 113.253426 
L 125.766254 113.091985 
L 126.260306 112.938362 
L 126.756734 112.792598 
L 127.255411 112.654729 
L 127.756213 112.524788 
L 128.259014 112.40281 
L 128.763687 112.288825 
L 129.270105 112.182861 
L 129.77814 112.084945 
L 130.287665 111.995102 
L 130.798551 111.913354 
L 131.31067 111.839723 
L 131.823893 111.774226 
L 132.33809 111.71688 
L 132.853133 111.667699 
L 133.368891 111.626696 
L 133.885234 111.593882 
L 134.402033 111.569264 
L 134.919158 111.552848 
L 135.436478 111.544639 
L 135.953863 111.544639 
L 136.471183 111.552848 
L 136.988308 111.569264 
L 137.505107 111.593882 
L 138.02145 111.626696 
L 138.537208 111.667699 
L 139.052251 111.71688 
L 139.566448 111.774226 
L 140.079671 111.839723 
L 140.591789 111.913354 
L 141.102676 111.995102 
L 141.612201 112.084945 
L 142.120236 112.182861 
L 142.626654 112.288825 
L 143.131327 112.40281 
L 143.634127 112.524788 
L 144.13493 112.654729 
L 144.633607 112.792598 
L 145.130035 112.938362 
L 145.624087 113.091985 
L 146.11564 113.253426 
L 146.604569 113.422646 
L 147.090752 113.599602 
L 147.574066 113.78425 
L 148.05439 113.976543 
L 148.531603 114.176432 
L 149.005583 114.383867 
L 149.476214 114.598797 
L 149.943374 114.821166 
L 150.406948 115.05092 
L 150.866818 115.287999 
L 151.322869 115.532345 
L 151.774986 115.783896 
L 152.223055 116.042589 
L 152.666963 116.308358 
L 153.106598 116.581137 
L 153.54185 116.860856 
L 153.972609 117.147446 
L 154.398767 117.440835 
L 154.820217 117.740947 
L 155.236852 118.047709 
L 155.648567 118.361043 
L 156.055259 118.680869 
L 156.456826 119.007108 
L 156.853166 119.339676 
L 157.244179 119.678491 
L 157.629768 120.023468 
L 158.009835 120.374519 
L 158.384284 120.731555 
L 158.753022 121.094488 
z
" clip-path="url(#p0efb454b03)" style="fill: #1f77b4; opacity: 0.2"/>
   </g>
   <g id="matplotlib.axis_1">
    <g id="xtick_1">
     <g id="line2d_1">
      <path d="M 70.477719 150.673879 
L 70.477719 7.2 
" clip-path="url(#p0efb454b03)" style="fill: none; stroke-dasharray: 2.96,1.28; stroke-dashoffset: 0; stroke: #000000; stroke-opacity: 0.2; stroke-width: 0.8"/>
     </g>
     <g id="line2d_2">
      <defs>
       <path id="md888eb1218" d="M 0 0 
L 0 3.5 
" style="stroke: #000000; stroke-width: 0.8"/>
      </defs>
      <g>
       <use xlink:href="#md888eb1218" x="70.477719" y="150.673879" style="stroke: #000000; stroke-width: 0.8"/>
      </g>
     </g>
     <g id="text_1">
      <!-- −2 -->
      <g transform="translate(63.106625 165.272317) scale(0.1 -0.1)">
       <defs>
        <path id="DejaVuSans-2212" d="M 678 2272 
L 4684 2272 
L 4684 1741 
L 678 1741 
L 678 2272 
z
" transform="scale(0.015625)"/>
        <path id="DejaVuSans-32" d="M 1228 531 
L 3431 531 
L 3431 0 
L 469 0 
L 469 531 
Q 828 903 1448 1529 
Q 2069 2156 2228 2338 
Q 2531 2678 2651 2914 
Q 2772 3150 2772 3378 
Q 2772 3750 2511 3984 
Q 2250 4219 1831 4219 
Q 1534 4219 1204 4116 
Q 875 4013 500 3803 
L 500 4441 
Q 881 4594 1212 4672 
Q 1544 4750 1819 4750 
Q 2544 4750 2975 4387 
Q 3406 4025 3406 3419 
Q 3406 3131 3298 2873 
Q 3191 2616 2906 2266 
Q 2828 2175 2409 1742 
Q 1991 1309 1228 531 
z
" transform="scale(0.015625)"/>
       </defs>
       <use xlink:href="#DejaVuSans-2212"/>
       <use xlink:href="#DejaVuSans-32" transform="translate(83.789062 0)"/>
      </g>
     </g>
    </g>
    <g id="xtick_2">
     <g id="line2d_3">
      <path d="M 135.69517 150.673879 
L 135.69517 7.2 
" clip-path="url(#p0efb454b03)" style="fill: none; stroke-dasharray: 2.96,1.28; stroke-dashoffset: 0; stroke: #000000; stroke-opacity: 0.2; stroke-width: 0.8"/>
     </g>
     <g id="line2d_4">
      <g>
       <use xlink:href="#md888eb1218" x="135.69517" y="150.673879" style="stroke: #000000; stroke-width: 0.8"/>
      </g>
     </g>
     <g id="text_2">
      <!-- 0 -->
      <g transform="translate(132.51392 165.272317) scale(0.1 -0.1)">
       <defs>
        <path id="DejaVuSans-30" d="M 2034 4250 
Q 1547 4250 1301 3770 
Q 1056 3291 1056 2328 
Q 1056 1369 1301 889 
Q 1547 409 2034 409 
Q 2525 409 2770 889 
Q 3016 1369 3016 2328 
Q 3016 3291 2770 3770 
Q 2525 4250 2034 4250 
z
M 2034 4750 
Q 2819 4750 3233 4129 
Q 3647 3509 3647 2328 
Q 3647 1150 3233 529 
Q 2819 -91 2034 -91 
Q 1250 -91 836 529 
Q 422 1150 422 2328 
Q 422 3509 836 4129 
Q 1250 4750 2034 4750 
z
" transform="scale(0.015625)"/>
       </defs>
       <use xlink:href="#DejaVuSans-30"/>
      </g>
     </g>
    </g>
    <g id="xtick_3">
     <g id="line2d_5">
      <path d="M 200.912622 150.673879 
L 200.912622 7.2 
" clip-path="url(#p0efb454b03)" style="fill: none; stroke-dasharray: 2.96,1.28; stroke-dashoffset: 0; stroke: #000000; stroke-opacity: 0.2; stroke-width: 0.8"/>
     </g>
     <g id="line2d_6">
      <g>
       <use xlink:href="#md888eb1218" x="200.912622" y="150.673879" style="stroke: #000000; stroke-width: 0.8"/>
      </g>
     </g>
     <g id="text_3">
      <!-- 2 -->
      <g transform="translate(197.731372 165.272317) scale(0.1 -0.1)">
       <use xlink:href="#DejaVuSans-32"/>
      </g>
     </g>
    </g>
    <g id="text_4">
     <!-- Re($z$) -->
     <g transform="translate(122.59517 178.950442) scale(0.1 -0.1)">
      <defs>
       <path id="DejaVuSans-52" d="M 2841 2188 
Q 3044 2119 3236 1894 
Q 3428 1669 3622 1275 
L 4263 0 
L 3584 0 
L 2988 1197 
Q 2756 1666 2539 1819 
Q 2322 1972 1947 1972 
L 1259 1972 
L 1259 0 
L 628 0 
L 628 4666 
L 2053 4666 
Q 2853 4666 3247 4331 
Q 3641 3997 3641 3322 
Q 3641 2881 3436 2590 
Q 3231 2300 2841 2188 
z
M 1259 4147 
L 1259 2491 
L 2053 2491 
Q 2509 2491 2742 2702 
Q 2975 2913 2975 3322 
Q 2975 3731 2742 3939 
Q 2509 4147 2053 4147 
L 1259 4147 
z
" transform="scale(0.015625)"/>
       <path id="DejaVuSans-65" d="M 3597 1894 
L 3597 1613 
L 953 1613 
Q 991 1019 1311 708 
Q 1631 397 2203 397 
Q 2534 397 2845 478 
Q 3156 559 3463 722 
L 3463 178 
Q 3153 47 2828 -22 
Q 2503 -91 2169 -91 
Q 1331 -91 842 396 
Q 353 884 353 1716 
Q 353 2575 817 3079 
Q 1281 3584 2069 3584 
Q 2775 3584 3186 3129 
Q 3597 2675 3597 1894 
z
M 3022 2063 
Q 3016 2534 2758 2815 
Q 2500 3097 2075 3097 
Q 1594 3097 1305 2825 
Q 1016 2553 972 2059 
L 3022 2063 
z
" transform="scale(0.015625)"/>
       <path id="DejaVuSans-28" d="M 1984 4856 
Q 1566 4138 1362 3434 
Q 1159 2731 1159 2009 
Q 1159 1288 1364 580 
Q 1569 -128 1984 -844 
L 1484 -844 
Q 1016 -109 783 600 
Q 550 1309 550 2009 
Q 550 2706 781 3412 
Q 1013 4119 1484 4856 
L 1984 4856 
z
" transform="scale(0.015625)"/>
       <path id="DejaVuSans-Oblique-7a" d="M 744 3500 
L 3475 3500 
L 3372 2975 
L 738 459 
L 2913 459 
L 2822 0 
L -19 0 
L 84 525 
L 2719 3041 
L 653 3041 
L 744 3500 
z
" transform="scale(0.015625)"/>
       <path id="DejaVuSans-29" d="M 513 4856 
L 1013 4856 
Q 1481 4119 1714 3412 
Q 1947 2706 1947 2009 
Q 1947 1309 1714 600 
Q 1481 -109 1013 -844 
L 513 -844 
Q 928 -128 1133 580 
Q 1338 1288 1338 2009 
Q 1338 2731 1133 3434 
Q 928 4138 513 4856 
z
" transform="scale(0.015625)"/>
      </defs>
      <use xlink:href="#DejaVuSans-52" transform="translate(0 0.125)"/>
      <use xlink:href="#DejaVuSans-65" transform="translate(69.482422 0.125)"/>
      <use xlink:href="#DejaVuSans-28" transform="translate(131.005859 0.125)"/>
      <use xlink:href="#DejaVuSans-Oblique-7a" transform="translate(170.019531 0.125)"/>
      <use xlink:href="#DejaVuSans-29" transform="translate(222.509766 0.125)"/>
     </g>
    </g>
   </g>
   <g id="matplotlib.axis_2">
    <g id="ytick_1">
     <g id="line2d_7">
      <path d="M 34.240625 144.152339 
L 237.149716 144.152339 
" clip-path="url(#p0efb454b03)" style="fill: none; stroke-dasharray: 2.96,1.28; stroke-dashoffset: 0; stroke: #000000; stroke-opacity: 0.2; stroke-width: 0.8"/>
     </g>
     <g id="line2d_8">
      <defs>
       <path id="m5d4218bd36" d="M 0 0 
L -3.5 0 
" style="stroke: #000000; stroke-width: 0.8"/>
      </defs>
      <g>
       <use xlink:href="#m5d4218bd36" x="34.240625" y="144.152339" style="stroke: #000000; stroke-width: 0.8"/>
      </g>
     </g>
     <g id="text_5">
      <!-- 0 -->
      <g transform="translate(20.878125 147.951558) scale(0.1 -0.1)">
       <use xlink:href="#DejaVuSans-30"/>
      </g>
     </g>
    </g>
    <g id="ytick_2">
     <g id="line2d_9">
      <path d="M 34.240625 111.543613 
L 237.149716 111.543613 
" clip-path="url(#p0efb454b03)" style="fill: none; stroke-dasharray: 2.96,1.28; stroke-dashoffset: 0; stroke: #000000; stroke-opacity: 0.2; stroke-width: 0.8"/>
     </g>
     <g id="line2d_10">
      <g>
       <use xlink:href="#m5d4218bd36" x="34.240625" y="111.543613" style="stroke: #000000; stroke-width: 0.8"/>
      </g>
     </g>
     <g id="text_6">
      <!-- 1 -->
      <g transform="translate(20.878125 115.342832) scale(0.1 -0.1)">
       <defs>
        <path id="DejaVuSans-31" d="M 794 531 
L 1825 531 
L 1825 4091 
L 703 3866 
L 703 4441 
L 1819 4666 
L 2450 4666 
L 2450 531 
L 3481 531 
L 3481 0 
L 794 0 
L 794 531 
z
" transform="scale(0.015625)"/>
       </defs>
       <use xlink:href="#DejaVuSans-31"/>
      </g>
     </g>
    </g>
    <g id="ytick_3">
     <g id="line2d_11">
      <path d="M 34.240625 78.934887 
L 237.149716 78.934887 
" clip-path="url(#p0efb454b03)" style="fill: none; stroke-dasharray: 2.96,1.28; stroke-dashoffset: 0; stroke: #000000; stroke-opacity: 0.2; stroke-width: 0.8"/>
     </g>
     <g id="line2d_12">
      <g>
       <use xlink:href="#m5d4218bd36" x="34.240625" y="78.934887" style="stroke: #000000; stroke-width: 0.8"/>
      </g>
     </g>
     <g id="text_7">
      <!-- 2 -->
      <g transform="translate(20.878125 82.734106) scale(0.1 -0.1)">
       <use xlink:href="#DejaVuSans-32"/>
      </g>
     </g>
    </g>
    <g id="ytick_4">
     <g id="line2d_13">
      <path d="M 34.240625 46.326161 
L 237.149716 46.326161 
" clip-path="url(#p0efb454b03)" style="fill: none; stroke-dasharray: 2.96,1.28; stroke-dashoffset: 0; stroke: #000000; stroke-opacity: 0.2; stroke-width: 0.8"/>
     </g>
     <g id="line2d_14">
      <g>
       <use xlink:href="#m5d4218bd36" x="34.240625" y="46.326161" style="stroke: #000000; stroke-width: 0.8"/>
      </g>
     </g>
     <g id="text_8">
      <!-- 3 -->
      <g transform="translate(20.878125 50.12538) scale(0.1 -0.1)">
       <defs>
        <path id="DejaVuSans-33" d="M 2597 2516 
Q 3050 2419 3304 2112 
Q 3559 1806 3559 1356 
Q 3559 666 3084 287 
Q 2609 -91 1734 -91 
Q 1441 -91 1130 -33 
Q 819 25 488 141 
L 488 750 
Q 750 597 1062 519 
Q 1375 441 1716 441 
Q 2309 441 2620 675 
Q 2931 909 2931 1356 
Q 2931 1769 2642 2001 
Q 2353 2234 1838 2234 
L 1294 2234 
L 1294 2753 
L 1863 2753 
Q 2328 2753 2575 2939 
Q 2822 3125 2822 3475 
Q 2822 3834 2567 4026 
Q 2313 4219 1838 4219 
Q 1578 4219 1281 4162 
Q 984 4106 628 3988 
L 628 4550 
Q 988 4650 1302 4700 
Q 1616 4750 1894 4750 
Q 2613 4750 3031 4423 
Q 3450 4097 3450 3541 
Q 3450 3153 3228 2886 
Q 3006 2619 2597 2516 
z
" transform="scale(0.015625)"/>
       </defs>
       <use xlink:href="#DejaVuSans-33"/>
      </g>
     </g>
    </g>
    <g id="ytick_5">
     <g id="line2d_15">
      <path d="M 34.240625 13.717435 
L 237.149716 13.717435 
" clip-path="url(#p0efb454b03)" style="fill: none; stroke-dasharray: 2.96,1.28; stroke-dashoffset: 0; stroke: #000000; stroke-opacity: 0.2; stroke-width: 0.8"/>
     </g>
     <g id="line2d_16">
      <g>
       <use xlink:href="#m5d4218bd36" x="34.240625" y="13.717435" style="stroke: #000000; stroke-width: 0.8"/>
      </g>
     </g>
     <g id="text_9">
      <!-- 4 -->
      <g transform="translate(20.878125 17.516654) scale(0.1 -0.1)">
       <defs>
        <path id="DejaVuSans-34" d="M 2419 4116 
L 825 1625 
L 2419 1625 
L 2419 4116 
z
M 2253 4666 
L 3047 4666 
L 3047 1625 
L 3713 1625 
L 3713 1100 
L 3047 1100 
L 3047 0 
L 2419 0 
L 2419 1100 
L 313 1100 
L 313 1709 
L 2253 4666 
z
" transform="scale(0.015625)"/>
       </defs>
       <use xlink:href="#DejaVuSans-34"/>
      </g>
     </g>
    </g>
    <g id="text_10">
     <!-- Im($z$) -->
     <g transform="translate(14.798438 91.63694) rotate(-90) scale(0.1 -0.1)">
      <defs>
       <path id="DejaVuSans-49" d="M 628 4666 
L 1259 4666 
L 1259 0 
L 628 0 
L 628 4666 
z
" transform="scale(0.015625)"/>
       <path id="DejaVuSans-6d" d="M 3328 2828 
Q 3544 3216 3844 3400 
Q 4144 3584 4550 3584 
Q 5097 3584 5394 3201 
Q 5691 2819 5691 2113 
L 5691 0 
L 5113 0 
L 5113 2094 
Q 5113 2597 4934 2840 
Q 4756 3084 4391 3084 
Q 3944 3084 3684 2787 
Q 3425 2491 3425 1978 
L 3425 0 
L 2847 0 
L 2847 2094 
Q 2847 2600 2669 2842 
Q 2491 3084 2119 3084 
Q 1678 3084 1418 2786 
Q 1159 2488 1159 1978 
L 1159 0 
L 581 0 
L 581 3500 
L 1159 3500 
L 1159 2956 
Q 1356 3278 1631 3431 
Q 1906 3584 2284 3584 
Q 2666 3584 2933 3390 
Q 3200 3197 3328 2828 
z
" transform="scale(0.015625)"/>
      </defs>
      <use xlink:href="#DejaVuSans-49" transform="translate(0 0.125)"/>
      <use xlink:href="#DejaVuSans-6d" transform="translate(25.867188 0.125)"/>
      <use xlink:href="#DejaVuSans-28" transform="translate(123.279297 0.125)"/>
      <use xlink:href="#DejaVuSans-Oblique-7a" transform="translate(162.292969 0.125)"/>
      <use xlink:href="#DejaVuSans-29" transform="translate(214.783203 0.125)"/>
     </g>
    </g>
   </g>
   <g id="line2d_17">
    <path d="M 135.69517 150.673879 
L 135.69517 7.2 
" clip-path="url(#p0efb454b03)" style="fill: none; stroke: #000000; stroke-width: 0.5; stroke-linecap: square"/>
   </g>
   <g id="line2d_18">
    <path d="M 34.240625 144.152339 
L 237.149716 144.152339 
" clip-path="url(#p0efb454b03)" style="fill: none; stroke: #000000; stroke-width: 0.5; stroke-linecap: square"/>
   </g>
   <g id="line2d_19">
    <path d="M 227.926575 51.920934 
L 223.433562 47.636854 
L 218.741792 43.571413 
L 213.861895 39.733819 
L 208.804926 36.132768 
L 203.582339 32.776415 
L 198.205966 29.672365 
L 192.687986 26.827648 
L 187.040899 24.24871 
L 181.277497 21.941392 
L 175.410837 19.910921 
L 169.454208 18.161897 
L 163.421104 16.698282 
L 157.325191 15.523391 
L 151.18028 14.639886 
L 145.00029 14.049769 
L 138.799221 13.754375 
L 132.59112 13.754375 
L 126.390051 14.049769 
L 120.210061 14.639886 
L 114.06515 15.523391 
L 107.969237 16.698282 
L 101.936133 18.161897 
L 95.979504 19.910921 
L 90.112844 21.941392 
L 84.349442 24.24871 
L 78.702355 26.827648 
L 73.184375 29.672365 
L 67.808002 32.776415 
L 62.585415 36.132768 
L 57.528446 39.733819 
L 52.648549 43.571413 
L 47.956779 47.636854 
L 43.463765 51.920934 
L 112.637319 121.094488 
L 114.537175 119.339676 
L 116.570124 117.740947 
L 118.723378 116.308358 
L 120.983393 115.05092 
L 123.335951 113.976543 
L 125.766254 113.091985 
L 128.259014 112.40281 
L 130.798551 111.913354 
L 133.368891 111.626696 
L 135.953863 111.544639 
L 138.537208 111.667699 
L 141.102676 111.995102 
L 143.634127 112.524788 
L 146.11564 113.253426 
L 148.531603 114.176432 
L 150.866818 115.287999 
L 153.106598 116.581137 
L 155.236852 118.047709 
L 157.244179 119.678491 
L 158.753022 121.094488 
L 227.926575 51.920934 
L 227.926575 51.920934 
" clip-path="url(#p0efb454b03)" style="fill: none; stroke: #1f77b4; stroke-width: 1.5; stroke-linecap: square"/>
   </g>
   <g id="patch_4">
    <path d="M 34.240625 150.673879 
L 34.240625 7.2 
" style="fill: none; stroke: #000000; stroke-width: 0.8; stroke-linejoin: miter; stroke-linecap: square"/>
   </g>
   <g id="patch_5">
    <path d="M 237.149716 150.673879 
L 237.149716 7.2 
" style="fill: none; stroke: #000000; stroke-width: 0.8; stroke-linejoin: miter; stroke-linecap: square"/>
   </g>
   <g id="patch_6">
    <path d="M 34.240625 150.673879 
L 237.149716 150.673879 
" style="fill: none; stroke: #000000; stroke-width: 0.8; stroke-linejoin: miter; stroke-linecap: square"/>
   </g>
   <g id="patch_7">
    <path d="M 34.240625 7.2 
L 237.149716 7.2 
" style="fill: none; stroke: #000000; stroke-width: 0.8; stroke-linejoin: miter; stroke-linecap: square"/>
   </g>
  </g>
  <g id="axes_2">
   <g id="patch_8">
    <path d="M 277.731534 150.673879 
L 480.640625 150.673879 
L 480.640625 7.2 
L 277.731534 7.2 
z
" style="fill: #ffffff"/>
   </g>
   <g id="patch_9">
    <path d="M 379.18608 118.541506 
L 424.391372 118.541506 
L 424.391372 67.319839 
L 379.18608 67.319839 
z
" clip-path="url(#pa11a6ca194)" style="fill: #d62728; opacity: 0.2"/>
   </g>
   <g id="matplotlib.axis_3">
    <g id="xtick_4">
     <g id="line2d_20">
      <path d="M 313.968628 150.673879 
L 313.968628 7.2 
" clip-path="url(#pa11a6ca194)" style="fill: none; stroke-dasharray: 2.96,1.28; stroke-dashoffset: 0; stroke: #000000; stroke-opacity: 0.2; stroke-width: 0.8"/>
     </g>
     <g id="line2d_21">
      <g>
       <use xlink:href="#md888eb1218" x="313.968628" y="150.673879" style="stroke: #000000; stroke-width: 0.8"/>
      </g>
     </g>
     <g id="text_11">
      <!-- −2 -->
      <g transform="translate(306.597534 165.272317) scale(0.1 -0.1)">
       <use xlink:href="#DejaVuSans-2212"/>
       <use xlink:href="#DejaVuSans-32" transform="translate(83.789062 0)"/>
      </g>
     </g>
    </g>
    <g id="xtick_5">
     <g id="line2d_22">
      <path d="M 379.18608 150.673879 
L 379.18608 7.2 
" clip-path="url(#pa11a6ca194)" style="fill: none; stroke-dasharray: 2.96,1.28; stroke-dashoffset: 0; stroke: #000000; stroke-opacity: 0.2; stroke-width: 0.8"/>
     </g>
     <g id="line2d_23">
      <g>
       <use xlink:href="#md888eb1218" x="379.18608" y="150.673879" style="stroke: #000000; stroke-width: 0.8"/>
      </g>
     </g>
     <g id="text_12">
      <!-- 0 -->
      <g transform="translate(376.00483 165.272317) scale(0.1 -0.1)">
       <use xlink:href="#DejaVuSans-30"/>
      </g>
     </g>
    </g>
    <g id="xtick_6">
     <g id="line2d_24">
      <path d="M 444.403531 150.673879 
L 444.403531 7.2 
" clip-path="url(#pa11a6ca194)" style="fill: none; stroke-dasharray: 2.96,1.28; stroke-dashoffset: 0; stroke: #000000; stroke-opacity: 0.2; stroke-width: 0.8"/>
     </g>
     <g id="line2d_25">
      <g>
       <use xlink:href="#md888eb1218" x="444.403531" y="150.673879" style="stroke: #000000; stroke-width: 0.8"/>
      </g>
     </g>
     <g id="text_13">
      <!-- 2 -->
      <g transform="translate(441.222281 165.272317) scale(0.1 -0.1)">
       <use xlink:href="#DejaVuSans-32"/>
      </g>
     </g>
    </g>
    <g id="text_14">
     <!-- Re($w$) -->
     <g transform="translate(364.63608 178.950442) scale(0.1 -0.1)">
      <defs>
       <path id="DejaVuSans-Oblique-77" d="M 544 3500 
L 1113 3500 
L 1259 684 
L 2566 3500 
L 3231 3500 
L 3425 684 
L 4666 3500 
L 5241 3500 
L 3641 0 
L 2969 0 
L 2797 2900 
L 1459 0 
L 781 0 
L 544 3500 
z
" transform="scale(0.015625)"/>
      </defs>
      <use xlink:href="#DejaVuSans-52" transform="translate(0 0.125)"/>
      <use xlink:href="#DejaVuSans-65" transform="translate(69.482422 0.125)"/>
      <use xlink:href="#DejaVuSans-28" transform="translate(131.005859 0.125)"/>
      <use xlink:href="#DejaVuSans-Oblique-77" transform="translate(170.019531 0.125)"/>
      <use xlink:href="#DejaVuSans-29" transform="translate(251.806641 0.125)"/>
     </g>
    </g>
   </g>
   <g id="matplotlib.axis_4">
    <g id="ytick_6">
     <g id="line2d_26">
      <path d="M 277.731534 144.152339 
L 480.640625 144.152339 
" clip-path="url(#pa11a6ca194)" style="fill: none; stroke-dasharray: 2.96,1.28; stroke-dashoffset: 0; stroke: #000000; stroke-opacity: 0.2; stroke-width: 0.8"/>
     </g>
     <g id="line2d_27">
      <g>
       <use xlink:href="#m5d4218bd36" x="277.731534" y="144.152339" style="stroke: #000000; stroke-width: 0.8"/>
      </g>
     </g>
    </g>
    <g id="ytick_7">
     <g id="line2d_28">
      <path d="M 277.731534 111.543613 
L 480.640625 111.543613 
" clip-path="url(#pa11a6ca194)" style="fill: none; stroke-dasharray: 2.96,1.28; stroke-dashoffset: 0; stroke: #000000; stroke-opacity: 0.2; stroke-width: 0.8"/>
     </g>
     <g id="line2d_29">
      <g>
       <use xlink:href="#m5d4218bd36" x="277.731534" y="111.543613" style="stroke: #000000; stroke-width: 0.8"/>
      </g>
     </g>
    </g>
    <g id="ytick_8">
     <g id="line2d_30">
      <path d="M 277.731534 78.934887 
L 480.640625 78.934887 
" clip-path="url(#pa11a6ca194)" style="fill: none; stroke-dasharray: 2.96,1.28; stroke-dashoffset: 0; stroke: #000000; stroke-opacity: 0.2; stroke-width: 0.8"/>
     </g>
     <g id="line2d_31">
      <g>
       <use xlink:href="#m5d4218bd36" x="277.731534" y="78.934887" style="stroke: #000000; stroke-width: 0.8"/>
      </g>
     </g>
    </g>
    <g id="ytick_9">
     <g id="line2d_32">
      <path d="M 277.731534 46.326161 
L 480.640625 46.326161 
" clip-path="url(#pa11a6ca194)" style="fill: none; stroke-dasharray: 2.96,1.28; stroke-dashoffset: 0; stroke: #000000; stroke-opacity: 0.2; stroke-width: 0.8"/>
     </g>
     <g id="line2d_33">
      <g>
       <use xlink:href="#m5d4218bd36" x="277.731534" y="46.326161" style="stroke: #000000; stroke-width: 0.8"/>
      </g>
     </g>
    </g>
    <g id="ytick_10">
     <g id="line2d_34">
      <path d="M 277.731534 13.717435 
L 480.640625 13.717435 
" clip-path="url(#pa11a6ca194)" style="fill: none; stroke-dasharray: 2.96,1.28; stroke-dashoffset: 0; stroke: #000000; stroke-opacity: 0.2; stroke-width: 0.8"/>
     </g>
     <g id="line2d_35">
      <g>
       <use xlink:href="#m5d4218bd36" x="277.731534" y="13.717435" style="stroke: #000000; stroke-width: 0.8"/>
      </g>
     </g>
    </g>
    <g id="text_15">
     <!-- Im($w$) -->
     <g transform="translate(268.151847 93.13694) rotate(-90) scale(0.1 -0.1)">
      <use xlink:href="#DejaVuSans-49" transform="translate(0 0.125)"/>
      <use xlink:href="#DejaVuSans-6d" transform="translate(25.867188 0.125)"/>
      <use xlink:href="#DejaVuSans-28" transform="translate(123.279297 0.125)"/>
      <use xlink:href="#DejaVuSans-Oblique-77" transform="translate(162.292969 0.125)"/>
      <use xlink:href="#DejaVuSans-29" transform="translate(244.080078 0.125)"/>
     </g>
    </g>
   </g>
   <g id="line2d_36">
    <path d="M 379.18608 150.673879 
L 379.18608 7.2 
" clip-path="url(#pa11a6ca194)" style="fill: none; stroke: #000000; stroke-width: 0.5; stroke-linecap: square"/>
   </g>
   <g id="line2d_37">
    <path d="M 277.731534 144.152339 
L 480.640625 144.152339 
" clip-path="url(#pa11a6ca194)" style="fill: none; stroke: #000000; stroke-width: 0.5; stroke-linecap: square"/>
   </g>
   <g id="line2d_38">
    <path d="M 379.18608 118.541506 
L 424.391372 118.541506 
L 424.391372 67.319839 
L 379.18608 67.319839 
L 379.18608 118.541506 
" clip-path="url(#pa11a6ca194)" style="fill: none; stroke: #d62728; stroke-width: 1.5; stroke-linecap: square"/>
   </g>
   <g id="patch_10">
    <path d="M 277.731534 150.673879 
L 277.731534 7.2 
" style="fill: none; stroke: #000000; stroke-width: 0.8; stroke-linejoin: miter; stroke-linecap: square"/>
   </g>
   <g id="patch_11">
    <path d="M 480.640625 150.673879 
L 480.640625 7.2 
" style="fill: none; stroke: #000000; stroke-width: 0.8; stroke-linejoin: miter; stroke-linecap: square"/>
   </g>
   <g id="patch_12">
    <path d="M 277.731534 150.673879 
L 480.640625 150.673879 
" style="fill: none; stroke: #000000; stroke-width: 0.8; stroke-linejoin: miter; stroke-linecap: square"/>
   </g>
   <g id="patch_13">
    <path d="M 277.731534 7.2 
L 480.640625 7.2 
" style="fill: none; stroke: #000000; stroke-width: 0.8; stroke-linejoin: miter; stroke-linecap: square"/>
   </g>
  </g>
 </g>
 <defs>
  <clipPath id="p0efb454b03">
   <rect x="34.240625" y="7.2" width="202.909091" height="143.473879"/>
  </clipPath>
  <clipPath id="pa11a6ca194">
   <rect x="277.731534" y="7.2" width="202.909091" height="143.473879"/>
  </clipPath>
 </defs>
</svg>
