<?xml version="1.0" encoding="utf-8" standalone="no"?>
<!DOCTYPE svg PUBLIC "-//W3C//DTD SVG 1.1//EN"
  "http://www.w3.org/Graphics/SVG/1.1/DTD/svg11.dtd">
<svg xmlns:xlink="http://www.w3.org/1999/xlink" width="404.515044pt" height="211.07625pt" viewBox="0 0 404.515044 211.07625" xmlns="http://www.w3.org/2000/svg" version="1.1">
 <metadata>
  <rdf:RDF xmlns:dc="http://purl.org/dc/elements/1.1/" xmlns:cc="http://creativecommons.org/ns#" xmlns:rdf="http://www.w3.org/1999/02/22-rdf-syntax-ns#">
   <cc:Work>
    <dc:type rdf:resource="http://purl.org/dc/dcmitype/StillImage"/>
    <dc:date>2026-04-22T18:07:13.271769</dc:date>
    <dc:format>image/svg+xml</dc:format>
    <dc:creator>
     <cc:Agent>
      <dc:title>Matplotlib v3.10.8, https://matplotlib.org/</dc:title>
     </cc:Agent>
    </dc:creator>
   </cc:Work>
  </rdf:RDF>
 </metadata>
 <defs>
  <style type="text/css">*{stroke-linejoin: round; stroke-linecap: butt}</style>
 </defs>
 <g id="figure_1">
  <g id="patch_1">
   <path d="M 0 211.07625 
L 404.515044 211.07625 
L 404.515044 0 
L 0 0 
z
" style="fill: #ffffff"/>
  </g>
  <g id="axes_1">
   <g id="patch_2">
    <path d="M 42.620313 173.52 
L 153.824135 173.52 
L 153.824135 7.2 
L 42.620313 7.2 
z
" style="fill: #ffffff"/>
   </g>
   <g id="patch_3">
    <path d="M 47.675032 68.502225 
L 48.536441 68.502225 
L 49.39785 68.502225 
L 50.259259 68.502225 
L 51.120668 68.502225 
L 51.982077 68.502225 
L 52.843486 68.502225 
L 53.704895 68.502225 
L 54.566304 68.502225 
L 55.427713 68.502225 
L 56.289123 68.502225 
L 57.150532 68.502225 
L 58.011941 68.502225 
L 58.87335 68.502225 
L 59.734759 68.502225 
L 60.596168 68.502225 
L 61.457577 68.502225 
L 62.318986 68.502225 
L 63.180395 68.502225 
L 64.041804 68.502225 
L 64.903213 68.502225 
L 65.764622 68.502225 
L 66.626032 68.502225 
L 67.487441 68.502225 
L 68.34885 68.502225 
L 69.210259 68.502225 
L 70.071668 68.502225 
L 70.933077 68.502225 
L 71.794486 68.502225 
L 72.655895 68.502225 
L 73.517304 68.502225 
L 74.378713 68.502225 
L 75.240122 68.502225 
L 76.101531 68.502225 
L 76.962941 68.502225 
L 77.82435 68.502225 
L 78.685759 68.502225 
L 79.547168 68.502225 
L 80.408577 68.502225 
L 81.269986 68.502225 
L 82.131395 68.502225 
L 82.992804 68.502225 
L 83.854213 68.502225 
L 84.715622 68.502225 
L 85.577031 68.502225 
L 86.43844 68.502225 
L 87.29985 68.502225 
L 88.161259 68.502225 
L 89.022668 68.502225 
L 89.884077 68.502225 
L 89.884077 68.502225 
L 89.884077 67.405445 
L 89.884077 66.308665 
L 89.884077 65.211885 
L 89.884077 64.115105 
L 89.884077 63.018325 
L 89.884077 61.921545 
L 89.884077 60.824765 
L 89.884077 59.727984 
L 89.884077 58.631204 
L 89.884077 57.534424 
L 89.884077 56.437644 
L 89.884077 55.340864 
L 89.884077 54.244084 
L 89.884077 53.147304 
L 89.884077 52.050524 
L 89.884077 50.953744 
L 89.884077 49.856963 
L 89.884077 48.760183 
L 89.884077 47.663403 
L 89.884077 46.566623 
L 89.884077 45.469843 
L 89.884077 44.373063 
L 89.884077 43.276283 
L 89.884077 42.179503 
L 89.884077 41.082723 
L 89.884077 39.985943 
L 89.884077 38.889162 
L 89.884077 37.792382 
L 89.884077 36.695602 
L 89.884077 35.598822 
L 89.884077 34.502042 
L 89.884077 33.405262 
L 89.884077 32.308482 
L 89.884077 31.211702 
L 89.884077 30.114922 
L 89.884077 29.018141 
L 89.884077 27.921361 
L 89.884077 26.824581 
L 89.884077 25.727801 
L 89.884077 24.631021 
L 89.884077 23.534241 
L 89.884077 22.437461 
L 89.884077 21.340681 
L 89.884077 20.243901 
L 89.884077 19.14712 
L 89.884077 18.05034 
L 89.884077 16.95356 
L 89.884077 15.85678 
L 89.884077 14.76 
L 89.884077 14.76 
L 89.022668 14.76 
L 88.161259 14.76 
L 87.29985 14.76 
L 86.43844 14.76 
L 85.577031 14.76 
L 84.715622 14.76 
L 83.854213 14.76 
L 82.992804 14.76 
L 82.131395 14.76 
L 81.269986 14.76 
L 80.408577 14.76 
L 79.547168 14.76 
L 78.685759 14.76 
L 77.82435 14.76 
L 76.962941 14.76 
L 76.101531 14.76 
L 75.240122 14.76 
L 74.378713 14.76 
L 73.517304 14.76 
L 72.655895 14.76 
L 71.794486 14.76 
L 70.933077 14.76 
L 70.071668 14.76 
L 69.210259 14.76 
L 68.34885 14.76 
L 67.487441 14.76 
L 66.626032 14.76 
L 65.764622 14.76 
L 64.903213 14.76 
L 64.041804 14.76 
L 63.180395 14.76 
L 62.318986 14.76 
L 61.457577 14.76 
L 60.596168 14.76 
L 59.734759 14.76 
L 58.87335 14.76 
L 58.011941 14.76 
L 57.150532 14.76 
L 56.289123 14.76 
L 55.427713 14.76 
L 54.566304 14.76 
L 53.704895 14.76 
L 52.843486 14.76 
L 51.982077 14.76 
L 51.120668 14.76 
L 50.259259 14.76 
L 49.39785 14.76 
L 48.536441 14.76 
L 47.675032 14.76 
L 47.675032 14.76 
L 47.675032 15.85678 
L 47.675032 16.95356 
L 47.675032 18.05034 
L 47.675032 19.14712 
L 47.675032 20.243901 
L 47.675032 21.340681 
L 47.675032 22.437461 
L 47.675032 23.534241 
L 47.675032 24.631021 
L 47.675032 25.727801 
L 47.675032 26.824581 
L 47.675032 27.921361 
L 47.675032 29.018141 
L 47.675032 30.114922 
L 47.675032 31.211702 
L 47.675032 32.308482 
L 47.675032 33.405262 
L 47.675032 34.502042 
L 47.675032 35.598822 
L 47.675032 36.695602 
L 47.675032 37.792382 
L 47.675032 38.889162 
L 47.675032 39.985943 
L 47.675032 41.082723 
L 47.675032 42.179503 
L 47.675032 43.276283 
L 47.675032 44.373063 
L 47.675032 45.469843 
L 47.675032 46.566623 
L 47.675032 47.663403 
L 47.675032 48.760183 
L 47.675032 49.856963 
L 47.675032 50.953744 
L 47.675032 52.050524 
L 47.675032 53.147304 
L 47.675032 54.244084 
L 47.675032 55.340864 
L 47.675032 56.437644 
L 47.675032 57.534424 
L 47.675032 58.631204 
L 47.675032 59.727984 
L 47.675032 60.824765 
L 47.675032 61.921545 
L 47.675032 63.018325 
L 47.675032 64.115105 
L 47.675032 65.211885 
L 47.675032 66.308665 
L 47.675032 67.405445 
z
" clip-path="url(#pccc69413f9)" style="fill: #1f77b4; opacity: 0.2"/>
   </g>
   <g id="matplotlib.axis_1">
    <g id="xtick_1">
     <g id="line2d_1">
      <path d="M 47.675032 173.52 
L 47.675032 7.2 
" clip-path="url(#pccc69413f9)" style="fill: none; stroke-dasharray: 2.96,1.28; stroke-dashoffset: 0; stroke: #000000; stroke-opacity: 0.2; stroke-width: 0.8"/>
     </g>
     <g id="line2d_2">
      <defs>
       <path id="m4495d3213b" d="M 0 0 
L 0 3.5 
" style="stroke: #000000; stroke-width: 0.8"/>
      </defs>
      <g>
       <use xlink:href="#m4495d3213b" x="47.675032" y="173.52" style="stroke: #000000; stroke-width: 0.8"/>
      </g>
     </g>
     <g id="text_1">
      <!-- 0 -->
      <g transform="translate(44.493782 188.118438) scale(0.1 -0.1)">
       <defs>
        <path id="DejaVuSans-30" d="M 2034 4250 
Q 1547 4250 1301 3770 
Q 1056 3291 1056 2328 
Q 1056 1369 1301 889 
Q 1547 409 2034 409 
Q 2525 409 2770 889 
Q 3016 1369 3016 2328 
Q 3016 3291 2770 3770 
Q 2525 4250 2034 4250 
z
M 2034 4750 
Q 2819 4750 3233 4129 
Q 3647 3509 3647 2328 
Q 3647 1150 3233 529 
Q 2819 -91 2034 -91 
Q 1250 -91 836 529 
Q 422 1150 422 2328 
Q 422 3509 836 4129 
Q 1250 4750 2034 4750 
z
" transform="scale(0.015625)"/>
       </defs>
       <use xlink:href="#DejaVuSans-30"/>
      </g>
     </g>
    </g>
    <g id="xtick_2">
     <g id="line2d_3">
      <path d="M 101.417257 173.52 
L 101.417257 7.2 
" clip-path="url(#pccc69413f9)" style="fill: none; stroke-dasharray: 2.96,1.28; stroke-dashoffset: 0; stroke: #000000; stroke-opacity: 0.2; stroke-width: 0.8"/>
     </g>
     <g id="line2d_4">
      <g>
       <use xlink:href="#m4495d3213b" x="101.417257" y="173.52" style="stroke: #000000; stroke-width: 0.8"/>
      </g>
     </g>
     <g id="text_2">
      <!-- 2 -->
      <g transform="translate(98.236007 188.118438) scale(0.1 -0.1)">
       <defs>
        <path id="DejaVuSans-32" d="M 1228 531 
L 3431 531 
L 3431 0 
L 469 0 
L 469 531 
Q 828 903 1448 1529 
Q 2069 2156 2228 2338 
Q 2531 2678 2651 2914 
Q 2772 3150 2772 3378 
Q 2772 3750 2511 3984 
Q 2250 4219 1831 4219 
Q 1534 4219 1204 4116 
Q 875 4013 500 3803 
L 500 4441 
Q 881 4594 1212 4672 
Q 1544 4750 1819 4750 
Q 2544 4750 2975 4387 
Q 3406 4025 3406 3419 
Q 3406 3131 3298 2873 
Q 3191 2616 2906 2266 
Q 2828 2175 2409 1742 
Q 1991 1309 1228 531 
z
" transform="scale(0.015625)"/>
       </defs>
       <use xlink:href="#DejaVuSans-32"/>
      </g>
     </g>
    </g>
    <g id="text_3">
     <!-- Re($z$) -->
     <g transform="translate(85.122224 201.796563) scale(0.1 -0.1)">
      <defs>
       <path id="DejaVuSans-52" d="M 2841 2188 
Q 3044 2119 3236 1894 
Q 3428 1669 3622 1275 
L 4263 0 
L 3584 0 
L 2988 1197 
Q 2756 1666 2539 1819 
Q 2322 1972 1947 1972 
L 1259 1972 
L 1259 0 
L 628 0 
L 628 4666 
L 2053 4666 
Q 2853 4666 3247 4331 
Q 3641 3997 3641 3322 
Q 3641 2881 3436 2590 
Q 3231 2300 2841 2188 
z
M 1259 4147 
L 1259 2491 
L 2053 2491 
Q 2509 2491 2742 2702 
Q 2975 2913 2975 3322 
Q 2975 3731 2742 3939 
Q 2509 4147 2053 4147 
L 1259 4147 
z
" transform="scale(0.015625)"/>
       <path id="DejaVuSans-65" d="M 3597 1894 
L 3597 1613 
L 953 1613 
Q 991 1019 1311 708 
Q 1631 397 2203 397 
Q 2534 397 2845 478 
Q 3156 559 3463 722 
L 3463 178 
Q 3153 47 2828 -22 
Q 2503 -91 2169 -91 
Q 1331 -91 842 396 
Q 353 884 353 1716 
Q 353 2575 817 3079 
Q 1281 3584 2069 3584 
Q 2775 3584 3186 3129 
Q 3597 2675 3597 1894 
z
M 3022 2063 
Q 3016 2534 2758 2815 
Q 2500 3097 2075 3097 
Q 1594 3097 1305 2825 
Q 1016 2553 972 2059 
L 3022 2063 
z
" transform="scale(0.015625)"/>
       <path id="DejaVuSans-28" d="M 1984 4856 
Q 1566 4138 1362 3434 
Q 1159 2731 1159 2009 
Q 1159 1288 1364 580 
Q 1569 -128 1984 -844 
L 1484 -844 
Q 1016 -109 783 600 
Q 550 1309 550 2009 
Q 550 2706 781 3412 
Q 1013 4119 1484 4856 
L 1984 4856 
z
" transform="scale(0.015625)"/>
       <path id="DejaVuSans-Oblique-7a" d="M 744 3500 
L 3475 3500 
L 3372 2975 
L 738 459 
L 2913 459 
L 2822 0 
L -19 0 
L 84 525 
L 2719 3041 
L 653 3041 
L 744 3500 
z
" transform="scale(0.015625)"/>
       <path id="DejaVuSans-29" d="M 513 4856 
L 1013 4856 
Q 1481 4119 1714 3412 
Q 1947 2706 1947 2009 
Q 1947 1309 1714 600 
Q 1481 -109 1013 -844 
L 513 -844 
Q 928 -128 1133 580 
Q 1338 1288 1338 2009 
Q 1338 2731 1133 3434 
Q 928 4138 513 4856 
z
" transform="scale(0.015625)"/>
      </defs>
      <use xlink:href="#DejaVuSans-52" transform="translate(0 0.125)"/>
      <use xlink:href="#DejaVuSans-65" transform="translate(69.482422 0.125)"/>
      <use xlink:href="#DejaVuSans-28" transform="translate(131.005859 0.125)"/>
      <use xlink:href="#DejaVuSans-Oblique-7a" transform="translate(170.019531 0.125)"/>
      <use xlink:href="#DejaVuSans-29" transform="translate(222.509766 0.125)"/>
     </g>
    </g>
   </g>
   <g id="matplotlib.axis_2">
    <g id="ytick_1">
     <g id="line2d_5">
      <path d="M 42.620313 149.115563 
L 153.824135 149.115563 
" clip-path="url(#pccc69413f9)" style="fill: none; stroke-dasharray: 2.96,1.28; stroke-dashoffset: 0; stroke: #000000; stroke-opacity: 0.2; stroke-width: 0.8"/>
     </g>
     <g id="line2d_6">
      <defs>
       <path id="m45edc06be1" d="M 0 0 
L -3.5 0 
" style="stroke: #000000; stroke-width: 0.8"/>
      </defs>
      <g>
       <use xlink:href="#m45edc06be1" x="42.620313" y="149.115563" style="stroke: #000000; stroke-width: 0.8"/>
      </g>
     </g>
     <g id="text_4">
      <!-- −3 -->
      <g transform="translate(20.878125 152.914782) scale(0.1 -0.1)">
       <defs>
        <path id="DejaVuSans-2212" d="M 678 2272 
L 4684 2272 
L 4684 1741 
L 678 1741 
L 678 2272 
z
" transform="scale(0.015625)"/>
        <path id="DejaVuSans-33" d="M 2597 2516 
Q 3050 2419 3304 2112 
Q 3559 1806 3559 1356 
Q 3559 666 3084 287 
Q 2609 -91 1734 -91 
Q 1441 -91 1130 -33 
Q 819 25 488 141 
L 488 750 
Q 750 597 1062 519 
Q 1375 441 1716 441 
Q 2309 441 2620 675 
Q 2931 909 2931 1356 
Q 2931 1769 2642 2001 
Q 2353 2234 1838 2234 
L 1294 2234 
L 1294 2753 
L 1863 2753 
Q 2328 2753 2575 2939 
Q 2822 3125 2822 3475 
Q 2822 3834 2567 4026 
Q 2313 4219 1838 4219 
Q 1578 4219 1281 4162 
Q 984 4106 628 3988 
L 628 4550 
Q 988 4650 1302 4700 
Q 1616 4750 1894 4750 
Q 2613 4750 3031 4423 
Q 3450 4097 3450 3541 
Q 3450 3153 3228 2886 
Q 3006 2619 2597 2516 
z
" transform="scale(0.015625)"/>
       </defs>
       <use xlink:href="#DejaVuSans-2212"/>
       <use xlink:href="#DejaVuSans-33" transform="translate(83.789062 0)"/>
      </g>
     </g>
    </g>
    <g id="ytick_2">
     <g id="line2d_7">
      <path d="M 42.620313 122.244451 
L 153.824135 122.244451 
" clip-path="url(#pccc69413f9)" style="fill: none; stroke-dasharray: 2.96,1.28; stroke-dashoffset: 0; stroke: #000000; stroke-opacity: 0.2; stroke-width: 0.8"/>
     </g>
     <g id="line2d_8">
      <g>
       <use xlink:href="#m45edc06be1" x="42.620313" y="122.244451" style="stroke: #000000; stroke-width: 0.8"/>
      </g>
     </g>
     <g id="text_5">
      <!-- −2 -->
      <g transform="translate(20.878125 126.043669) scale(0.1 -0.1)">
       <use xlink:href="#DejaVuSans-2212"/>
       <use xlink:href="#DejaVuSans-32" transform="translate(83.789062 0)"/>
      </g>
     </g>
    </g>
    <g id="ytick_3">
     <g id="line2d_9">
      <path d="M 42.620313 95.373338 
L 153.824135 95.373338 
" clip-path="url(#pccc69413f9)" style="fill: none; stroke-dasharray: 2.96,1.28; stroke-dashoffset: 0; stroke: #000000; stroke-opacity: 0.2; stroke-width: 0.8"/>
     </g>
     <g id="line2d_10">
      <g>
       <use xlink:href="#m45edc06be1" x="42.620313" y="95.373338" style="stroke: #000000; stroke-width: 0.8"/>
      </g>
     </g>
     <g id="text_6">
      <!-- −1 -->
      <g transform="translate(20.878125 99.172557) scale(0.1 -0.1)">
       <defs>
        <path id="DejaVuSans-31" d="M 794 531 
L 1825 531 
L 1825 4091 
L 703 3866 
L 703 4441 
L 1819 4666 
L 2450 4666 
L 2450 531 
L 3481 531 
L 3481 0 
L 794 0 
L 794 531 
z
" transform="scale(0.015625)"/>
       </defs>
       <use xlink:href="#DejaVuSans-2212"/>
       <use xlink:href="#DejaVuSans-31" transform="translate(83.789062 0)"/>
      </g>
     </g>
    </g>
    <g id="ytick_4">
     <g id="line2d_11">
      <path d="M 42.620313 68.502225 
L 153.824135 68.502225 
" clip-path="url(#pccc69413f9)" style="fill: none; stroke-dasharray: 2.96,1.28; stroke-dashoffset: 0; stroke: #000000; stroke-opacity: 0.2; stroke-width: 0.8"/>
     </g>
     <g id="line2d_12">
      <g>
       <use xlink:href="#m45edc06be1" x="42.620313" y="68.502225" style="stroke: #000000; stroke-width: 0.8"/>
      </g>
     </g>
     <g id="text_7">
      <!-- 0 -->
      <g transform="translate(29.257813 72.301444) scale(0.1 -0.1)">
       <use xlink:href="#DejaVuSans-30"/>
      </g>
     </g>
    </g>
    <g id="ytick_5">
     <g id="line2d_13">
      <path d="M 42.620313 41.631113 
L 153.824135 41.631113 
" clip-path="url(#pccc69413f9)" style="fill: none; stroke-dasharray: 2.96,1.28; stroke-dashoffset: 0; stroke: #000000; stroke-opacity: 0.2; stroke-width: 0.8"/>
     </g>
     <g id="line2d_14">
      <g>
       <use xlink:href="#m45edc06be1" x="42.620313" y="41.631113" style="stroke: #000000; stroke-width: 0.8"/>
      </g>
     </g>
     <g id="text_8">
      <!-- 1 -->
      <g transform="translate(29.257813 45.430331) scale(0.1 -0.1)">
       <use xlink:href="#DejaVuSans-31"/>
      </g>
     </g>
    </g>
    <g id="ytick_6">
     <g id="line2d_15">
      <path d="M 42.620313 14.76 
L 153.824135 14.76 
" clip-path="url(#pccc69413f9)" style="fill: none; stroke-dasharray: 2.96,1.28; stroke-dashoffset: 0; stroke: #000000; stroke-opacity: 0.2; stroke-width: 0.8"/>
     </g>
     <g id="line2d_16">
      <g>
       <use xlink:href="#m45edc06be1" x="42.620313" y="14.76" style="stroke: #000000; stroke-width: 0.8"/>
      </g>
     </g>
     <g id="text_9">
      <!-- 2 -->
      <g transform="translate(29.257813 18.559219) scale(0.1 -0.1)">
       <use xlink:href="#DejaVuSans-32"/>
      </g>
     </g>
    </g>
    <g id="text_10">
     <!-- Im($z$) -->
     <g transform="translate(14.798438 103.06) rotate(-90) scale(0.1 -0.1)">
      <defs>
       <path id="DejaVuSans-49" d="M 628 4666 
L 1259 4666 
L 1259 0 
L 628 0 
L 628 4666 
z
" transform="scale(0.015625)"/>
       <path id="DejaVuSans-6d" d="M 3328 2828 
Q 3544 3216 3844 3400 
Q 4144 3584 4550 3584 
Q 5097 3584 5394 3201 
Q 5691 2819 5691 2113 
L 5691 0 
L 5113 0 
L 5113 2094 
Q 5113 2597 4934 2840 
Q 4756 3084 4391 3084 
Q 3944 3084 3684 2787 
Q 3425 2491 3425 1978 
L 3425 0 
L 2847 0 
L 2847 2094 
Q 2847 2600 2669 2842 
Q 2491 3084 2119 3084 
Q 1678 3084 1418 2786 
Q 1159 2488 1159 1978 
L 1159 0 
L 581 0 
L 581 3500 
L 1159 3500 
L 1159 2956 
Q 1356 3278 1631 3431 
Q 1906 3584 2284 3584 
Q 2666 3584 2933 3390 
Q 3200 3197 3328 2828 
z
" transform="scale(0.015625)"/>
      </defs>
      <use xlink:href="#DejaVuSans-49" transform="translate(0 0.125)"/>
      <use xlink:href="#DejaVuSans-6d" transform="translate(25.867188 0.125)"/>
      <use xlink:href="#DejaVuSans-28" transform="translate(123.279297 0.125)"/>
      <use xlink:href="#DejaVuSans-Oblique-7a" transform="translate(162.292969 0.125)"/>
      <use xlink:href="#DejaVuSans-29" transform="translate(214.783203 0.125)"/>
     </g>
    </g>
   </g>
   <g id="line2d_17">
    <path d="M 47.675032 173.52 
L 47.675032 7.2 
" clip-path="url(#pccc69413f9)" style="fill: none; stroke: #000000; stroke-width: 0.5; stroke-linecap: square"/>
   </g>
   <g id="line2d_18">
    <path d="M 42.620313 68.502225 
L 153.824135 68.502225 
" clip-path="url(#pccc69413f9)" style="fill: none; stroke: #000000; stroke-width: 0.5; stroke-linecap: square"/>
   </g>
   <g id="line2d_19">
    <path d="M 47.675032 68.502225 
L 49.89656 68.502225 
L 52.118089 68.502225 
L 54.339618 68.502225 
L 56.561146 68.502225 
L 58.782675 68.502225 
L 61.004204 68.502225 
L 63.225733 68.502225 
L 65.447261 68.502225 
L 67.66879 68.502225 
L 69.890319 68.502225 
L 72.111847 68.502225 
L 74.333376 68.502225 
L 76.554905 68.502225 
L 78.776433 68.502225 
L 80.997962 68.502225 
L 83.219491 68.502225 
L 85.441019 68.502225 
L 87.662548 68.502225 
L 89.884077 68.502225 
" clip-path="url(#pccc69413f9)" style="fill: none; stroke: #1f77b4; stroke-width: 0.5; stroke-linecap: square"/>
   </g>
   <g id="line2d_20">
    <path d="M 47.675032 65.673687 
L 49.89656 65.673687 
L 52.118089 65.673687 
L 54.339618 65.673687 
L 56.561146 65.673687 
L 58.782675 65.673687 
L 61.004204 65.673687 
L 63.225733 65.673687 
L 65.447261 65.673687 
L 67.66879 65.673687 
L 69.890319 65.673687 
L 72.111847 65.673687 
L 74.333376 65.673687 
L 76.554905 65.673687 
L 78.776433 65.673687 
L 80.997962 65.673687 
L 83.219491 65.673687 
L 85.441019 65.673687 
L 87.662548 65.673687 
L 89.884077 65.673687 
" clip-path="url(#pccc69413f9)" style="fill: none; stroke: #1f77b4; stroke-width: 0.5; stroke-linecap: square"/>
   </g>
   <g id="line2d_21">
    <path d="M 47.675032 62.845149 
L 49.89656 62.845149 
L 52.118089 62.845149 
L 54.339618 62.845149 
L 56.561146 62.845149 
L 58.782675 62.845149 
L 61.004204 62.845149 
L 63.225733 62.845149 
L 65.447261 62.845149 
L 67.66879 62.845149 
L 69.890319 62.845149 
L 72.111847 62.845149 
L 74.333376 62.845149 
L 76.554905 62.845149 
L 78.776433 62.845149 
L 80.997962 62.845149 
L 83.219491 62.845149 
L 85.441019 62.845149 
L 87.662548 62.845149 
L 89.884077 62.845149 
" clip-path="url(#pccc69413f9)" style="fill: none; stroke: #1f77b4; stroke-width: 0.5; stroke-linecap: square"/>
   </g>
   <g id="line2d_22">
    <path d="M 47.675032 60.016611 
L 49.89656 60.016611 
L 52.118089 60.016611 
L 54.339618 60.016611 
L 56.561146 60.016611 
L 58.782675 60.016611 
L 61.004204 60.016611 
L 63.225733 60.016611 
L 65.447261 60.016611 
L 67.66879 60.016611 
L 69.890319 60.016611 
L 72.111847 60.016611 
L 74.333376 60.016611 
L 76.554905 60.016611 
L 78.776433 60.016611 
L 80.997962 60.016611 
L 83.219491 60.016611 
L 85.441019 60.016611 
L 87.662548 60.016611 
L 89.884077 60.016611 
" clip-path="url(#pccc69413f9)" style="fill: none; stroke: #1f77b4; stroke-width: 0.5; stroke-linecap: square"/>
   </g>
   <g id="line2d_23">
    <path d="M 47.675032 57.188073 
L 49.89656 57.188073 
L 52.118089 57.188073 
L 54.339618 57.188073 
L 56.561146 57.188073 
L 58.782675 57.188073 
L 61.004204 57.188073 
L 63.225733 57.188073 
L 65.447261 57.188073 
L 67.66879 57.188073 
L 69.890319 57.188073 
L 72.111847 57.188073 
L 74.333376 57.188073 
L 76.554905 57.188073 
L 78.776433 57.188073 
L 80.997962 57.188073 
L 83.219491 57.188073 
L 85.441019 57.188073 
L 87.662548 57.188073 
L 89.884077 57.188073 
" clip-path="url(#pccc69413f9)" style="fill: none; stroke: #1f77b4; stroke-width: 0.5; stroke-linecap: square"/>
   </g>
   <g id="line2d_24">
    <path d="M 47.675032 54.359534 
L 49.89656 54.359534 
L 52.118089 54.359534 
L 54.339618 54.359534 
L 56.561146 54.359534 
L 58.782675 54.359534 
L 61.004204 54.359534 
L 63.225733 54.359534 
L 65.447261 54.359534 
L 67.66879 54.359534 
L 69.890319 54.359534 
L 72.111847 54.359534 
L 74.333376 54.359534 
L 76.554905 54.359534 
L 78.776433 54.359534 
L 80.997962 54.359534 
L 83.219491 54.359534 
L 85.441019 54.359534 
L 87.662548 54.359534 
L 89.884077 54.359534 
" clip-path="url(#pccc69413f9)" style="fill: none; stroke: #1f77b4; stroke-width: 0.5; stroke-linecap: square"/>
   </g>
   <g id="line2d_25">
    <path d="M 47.675032 51.530996 
L 49.89656 51.530996 
L 52.118089 51.530996 
L 54.339618 51.530996 
L 56.561146 51.530996 
L 58.782675 51.530996 
L 61.004204 51.530996 
L 63.225733 51.530996 
L 65.447261 51.530996 
L 67.66879 51.530996 
L 69.890319 51.530996 
L 72.111847 51.530996 
L 74.333376 51.530996 
L 76.554905 51.530996 
L 78.776433 51.530996 
L 80.997962 51.530996 
L 83.219491 51.530996 
L 85.441019 51.530996 
L 87.662548 51.530996 
L 89.884077 51.530996 
" clip-path="url(#pccc69413f9)" style="fill: none; stroke: #1f77b4; stroke-width: 0.5; stroke-linecap: square"/>
   </g>
   <g id="line2d_26">
    <path d="M 47.675032 48.702458 
L 49.89656 48.702458 
L 52.118089 48.702458 
L 54.339618 48.702458 
L 56.561146 48.702458 
L 58.782675 48.702458 
L 61.004204 48.702458 
L 63.225733 48.702458 
L 65.447261 48.702458 
L 67.66879 48.702458 
L 69.890319 48.702458 
L 72.111847 48.702458 
L 74.333376 48.702458 
L 76.554905 48.702458 
L 78.776433 48.702458 
L 80.997962 48.702458 
L 83.219491 48.702458 
L 85.441019 48.702458 
L 87.662548 48.702458 
L 89.884077 48.702458 
" clip-path="url(#pccc69413f9)" style="fill: none; stroke: #1f77b4; stroke-width: 0.5; stroke-linecap: square"/>
   </g>
   <g id="line2d_27">
    <path d="M 47.675032 45.87392 
L 49.89656 45.87392 
L 52.118089 45.87392 
L 54.339618 45.87392 
L 56.561146 45.87392 
L 58.782675 45.87392 
L 61.004204 45.87392 
L 63.225733 45.87392 
L 65.447261 45.87392 
L 67.66879 45.87392 
L 69.890319 45.87392 
L 72.111847 45.87392 
L 74.333376 45.87392 
L 76.554905 45.87392 
L 78.776433 45.87392 
L 80.997962 45.87392 
L 83.219491 45.87392 
L 85.441019 45.87392 
L 87.662548 45.87392 
L 89.884077 45.87392 
" clip-path="url(#pccc69413f9)" style="fill: none; stroke: #1f77b4; stroke-width: 0.5; stroke-linecap: square"/>
   </g>
   <g id="line2d_28">
    <path d="M 47.675032 43.045382 
L 49.89656 43.045382 
L 52.118089 43.045382 
L 54.339618 43.045382 
L 56.561146 43.045382 
L 58.782675 43.045382 
L 61.004204 43.045382 
L 63.225733 43.045382 
L 65.447261 43.045382 
L 67.66879 43.045382 
L 69.890319 43.045382 
L 72.111847 43.045382 
L 74.333376 43.045382 
L 76.554905 43.045382 
L 78.776433 43.045382 
L 80.997962 43.045382 
L 83.219491 43.045382 
L 85.441019 43.045382 
L 87.662548 43.045382 
L 89.884077 43.045382 
" clip-path="url(#pccc69413f9)" style="fill: none; stroke: #1f77b4; stroke-width: 0.5; stroke-linecap: square"/>
   </g>
   <g id="line2d_29">
    <path d="M 47.675032 40.216844 
L 49.89656 40.216844 
L 52.118089 40.216844 
L 54.339618 40.216844 
L 56.561146 40.216844 
L 58.782675 40.216844 
L 61.004204 40.216844 
L 63.225733 40.216844 
L 65.447261 40.216844 
L 67.66879 40.216844 
L 69.890319 40.216844 
L 72.111847 40.216844 
L 74.333376 40.216844 
L 76.554905 40.216844 
L 78.776433 40.216844 
L 80.997962 40.216844 
L 83.219491 40.216844 
L 85.441019 40.216844 
L 87.662548 40.216844 
L 89.884077 40.216844 
" clip-path="url(#pccc69413f9)" style="fill: none; stroke: #1f77b4; stroke-width: 0.5; stroke-linecap: square"/>
   </g>
   <g id="line2d_30">
    <path d="M 47.675032 37.388305 
L 49.89656 37.388305 
L 52.118089 37.388305 
L 54.339618 37.388305 
L 56.561146 37.388305 
L 58.782675 37.388305 
L 61.004204 37.388305 
L 63.225733 37.388305 
L 65.447261 37.388305 
L 67.66879 37.388305 
L 69.890319 37.388305 
L 72.111847 37.388305 
L 74.333376 37.388305 
L 76.554905 37.388305 
L 78.776433 37.388305 
L 80.997962 37.388305 
L 83.219491 37.388305 
L 85.441019 37.388305 
L 87.662548 37.388305 
L 89.884077 37.388305 
" clip-path="url(#pccc69413f9)" style="fill: none; stroke: #1f77b4; stroke-width: 0.5; stroke-linecap: square"/>
   </g>
   <g id="line2d_31">
    <path d="M 47.675032 34.559767 
L 49.89656 34.559767 
L 52.118089 34.559767 
L 54.339618 34.559767 
L 56.561146 34.559767 
L 58.782675 34.559767 
L 61.004204 34.559767 
L 63.225733 34.559767 
L 65.447261 34.559767 
L 67.66879 34.559767 
L 69.890319 34.559767 
L 72.111847 34.559767 
L 74.333376 34.559767 
L 76.554905 34.559767 
L 78.776433 34.559767 
L 80.997962 34.559767 
L 83.219491 34.559767 
L 85.441019 34.559767 
L 87.662548 34.559767 
L 89.884077 34.559767 
" clip-path="url(#pccc69413f9)" style="fill: none; stroke: #1f77b4; stroke-width: 0.5; stroke-linecap: square"/>
   </g>
   <g id="line2d_32">
    <path d="M 47.675032 31.731229 
L 49.89656 31.731229 
L 52.118089 31.731229 
L 54.339618 31.731229 
L 56.561146 31.731229 
L 58.782675 31.731229 
L 61.004204 31.731229 
L 63.225733 31.731229 
L 65.447261 31.731229 
L 67.66879 31.731229 
L 69.890319 31.731229 
L 72.111847 31.731229 
L 74.333376 31.731229 
L 76.554905 31.731229 
L 78.776433 31.731229 
L 80.997962 31.731229 
L 83.219491 31.731229 
L 85.441019 31.731229 
L 87.662548 31.731229 
L 89.884077 31.731229 
" clip-path="url(#pccc69413f9)" style="fill: none; stroke: #1f77b4; stroke-width: 0.5; stroke-linecap: square"/>
   </g>
   <g id="line2d_33">
    <path d="M 47.675032 28.902691 
L 49.89656 28.902691 
L 52.118089 28.902691 
L 54.339618 28.902691 
L 56.561146 28.902691 
L 58.782675 28.902691 
L 61.004204 28.902691 
L 63.225733 28.902691 
L 65.447261 28.902691 
L 67.66879 28.902691 
L 69.890319 28.902691 
L 72.111847 28.902691 
L 74.333376 28.902691 
L 76.554905 28.902691 
L 78.776433 28.902691 
L 80.997962 28.902691 
L 83.219491 28.902691 
L 85.441019 28.902691 
L 87.662548 28.902691 
L 89.884077 28.902691 
" clip-path="url(#pccc69413f9)" style="fill: none; stroke: #1f77b4; stroke-width: 0.5; stroke-linecap: square"/>
   </g>
   <g id="line2d_34">
    <path d="M 47.675032 26.074153 
L 49.89656 26.074153 
L 52.118089 26.074153 
L 54.339618 26.074153 
L 56.561146 26.074153 
L 58.782675 26.074153 
L 61.004204 26.074153 
L 63.225733 26.074153 
L 65.447261 26.074153 
L 67.66879 26.074153 
L 69.890319 26.074153 
L 72.111847 26.074153 
L 74.333376 26.074153 
L 76.554905 26.074153 
L 78.776433 26.074153 
L 80.997962 26.074153 
L 83.219491 26.074153 
L 85.441019 26.074153 
L 87.662548 26.074153 
L 89.884077 26.074153 
" clip-path="url(#pccc69413f9)" style="fill: none; stroke: #1f77b4; stroke-width: 0.5; stroke-linecap: square"/>
   </g>
   <g id="line2d_35">
    <path d="M 47.675032 23.245615 
L 49.89656 23.245615 
L 52.118089 23.245615 
L 54.339618 23.245615 
L 56.561146 23.245615 
L 58.782675 23.245615 
L 61.004204 23.245615 
L 63.225733 23.245615 
L 65.447261 23.245615 
L 67.66879 23.245615 
L 69.890319 23.245615 
L 72.111847 23.245615 
L 74.333376 23.245615 
L 76.554905 23.245615 
L 78.776433 23.245615 
L 80.997962 23.245615 
L 83.219491 23.245615 
L 85.441019 23.245615 
L 87.662548 23.245615 
L 89.884077 23.245615 
" clip-path="url(#pccc69413f9)" style="fill: none; stroke: #1f77b4; stroke-width: 0.5; stroke-linecap: square"/>
   </g>
   <g id="line2d_36">
    <path d="M 47.675032 20.417076 
L 49.89656 20.417076 
L 52.118089 20.417076 
L 54.339618 20.417076 
L 56.561146 20.417076 
L 58.782675 20.417076 
L 61.004204 20.417076 
L 63.225733 20.417076 
L 65.447261 20.417076 
L 67.66879 20.417076 
L 69.890319 20.417076 
L 72.111847 20.417076 
L 74.333376 20.417076 
L 76.554905 20.417076 
L 78.776433 20.417076 
L 80.997962 20.417076 
L 83.219491 20.417076 
L 85.441019 20.417076 
L 87.662548 20.417076 
L 89.884077 20.417076 
" clip-path="url(#pccc69413f9)" style="fill: none; stroke: #1f77b4; stroke-width: 0.5; stroke-linecap: square"/>
   </g>
   <g id="line2d_37">
    <path d="M 47.675032 17.588538 
L 49.89656 17.588538 
L 52.118089 17.588538 
L 54.339618 17.588538 
L 56.561146 17.588538 
L 58.782675 17.588538 
L 61.004204 17.588538 
L 63.225733 17.588538 
L 65.447261 17.588538 
L 67.66879 17.588538 
L 69.890319 17.588538 
L 72.111847 17.588538 
L 74.333376 17.588538 
L 76.554905 17.588538 
L 78.776433 17.588538 
L 80.997962 17.588538 
L 83.219491 17.588538 
L 85.441019 17.588538 
L 87.662548 17.588538 
L 89.884077 17.588538 
" clip-path="url(#pccc69413f9)" style="fill: none; stroke: #1f77b4; stroke-width: 0.5; stroke-linecap: square"/>
   </g>
   <g id="line2d_38">
    <path d="M 47.675032 14.76 
L 49.89656 14.76 
L 52.118089 14.76 
L 54.339618 14.76 
L 56.561146 14.76 
L 58.782675 14.76 
L 61.004204 14.76 
L 63.225733 14.76 
L 65.447261 14.76 
L 67.66879 14.76 
L 69.890319 14.76 
L 72.111847 14.76 
L 74.333376 14.76 
L 76.554905 14.76 
L 78.776433 14.76 
L 80.997962 14.76 
L 83.219491 14.76 
L 85.441019 14.76 
L 87.662548 14.76 
L 89.884077 14.76 
" clip-path="url(#pccc69413f9)" style="fill: none; stroke: #1f77b4; stroke-width: 0.5; stroke-linecap: square"/>
   </g>
   <g id="line2d_39">
    <path d="M 47.675032 68.502225 
L 47.675032 65.673687 
L 47.675032 62.845149 
L 47.675032 60.016611 
L 47.675032 57.188073 
L 47.675032 54.359534 
L 47.675032 51.530996 
L 47.675032 48.702458 
L 47.675032 45.87392 
L 47.675032 43.045382 
L 47.675032 40.216844 
L 47.675032 37.388305 
L 47.675032 34.559767 
L 47.675032 31.731229 
L 47.675032 28.902691 
L 47.675032 26.074153 
L 47.675032 23.245615 
L 47.675032 20.417076 
L 47.675032 17.588538 
L 47.675032 14.76 
" clip-path="url(#pccc69413f9)" style="fill: none; stroke: #1f77b4; stroke-width: 0.5; stroke-linecap: square"/>
   </g>
   <g id="line2d_40">
    <path d="M 49.89656 68.502225 
L 49.89656 65.673687 
L 49.89656 62.845149 
L 49.89656 60.016611 
L 49.89656 57.188073 
L 49.89656 54.359534 
L 49.89656 51.530996 
L 49.89656 48.702458 
L 49.89656 45.87392 
L 49.89656 43.045382 
L 49.89656 40.216844 
L 49.89656 37.388305 
L 49.89656 34.559767 
L 49.89656 31.731229 
L 49.89656 28.902691 
L 49.89656 26.074153 
L 49.89656 23.245615 
L 49.89656 20.417076 
L 49.89656 17.588538 
L 49.89656 14.76 
" clip-path="url(#pccc69413f9)" style="fill: none; stroke: #1f77b4; stroke-width: 0.5; stroke-linecap: square"/>
   </g>
   <g id="line2d_41">
    <path d="M 52.118089 68.502225 
L 52.118089 65.673687 
L 52.118089 62.845149 
L 52.118089 60.016611 
L 52.118089 57.188073 
L 52.118089 54.359534 
L 52.118089 51.530996 
L 52.118089 48.702458 
L 52.118089 45.87392 
L 52.118089 43.045382 
L 52.118089 40.216844 
L 52.118089 37.388305 
L 52.118089 34.559767 
L 52.118089 31.731229 
L 52.118089 28.902691 
L 52.118089 26.074153 
L 52.118089 23.245615 
L 52.118089 20.417076 
L 52.118089 17.588538 
L 52.118089 14.76 
" clip-path="url(#pccc69413f9)" style="fill: none; stroke: #1f77b4; stroke-width: 0.5; stroke-linecap: square"/>
   </g>
   <g id="line2d_42">
    <path d="M 54.339618 68.502225 
L 54.339618 65.673687 
L 54.339618 62.845149 
L 54.339618 60.016611 
L 54.339618 57.188073 
L 54.339618 54.359534 
L 54.339618 51.530996 
L 54.339618 48.702458 
L 54.339618 45.87392 
L 54.339618 43.045382 
L 54.339618 40.216844 
L 54.339618 37.388305 
L 54.339618 34.559767 
L 54.339618 31.731229 
L 54.339618 28.902691 
L 54.339618 26.074153 
L 54.339618 23.245615 
L 54.339618 20.417076 
L 54.339618 17.588538 
L 54.339618 14.76 
" clip-path="url(#pccc69413f9)" style="fill: none; stroke: #1f77b4; stroke-width: 0.5; stroke-linecap: square"/>
   </g>
   <g id="line2d_43">
    <path d="M 56.561146 68.502225 
L 56.561146 65.673687 
L 56.561146 62.845149 
L 56.561146 60.016611 
L 56.561146 57.188073 
L 56.561146 54.359534 
L 56.561146 51.530996 
L 56.561146 48.702458 
L 56.561146 45.87392 
L 56.561146 43.045382 
L 56.561146 40.216844 
L 56.561146 37.388305 
L 56.561146 34.559767 
L 56.561146 31.731229 
L 56.561146 28.902691 
L 56.561146 26.074153 
L 56.561146 23.245615 
L 56.561146 20.417076 
L 56.561146 17.588538 
L 56.561146 14.76 
" clip-path="url(#pccc69413f9)" style="fill: none; stroke: #1f77b4; stroke-width: 0.5; stroke-linecap: square"/>
   </g>
   <g id="line2d_44">
    <path d="M 58.782675 68.502225 
L 58.782675 65.673687 
L 58.782675 62.845149 
L 58.782675 60.016611 
L 58.782675 57.188073 
L 58.782675 54.359534 
L 58.782675 51.530996 
L 58.782675 48.702458 
L 58.782675 45.87392 
L 58.782675 43.045382 
L 58.782675 40.216844 
L 58.782675 37.388305 
L 58.782675 34.559767 
L 58.782675 31.731229 
L 58.782675 28.902691 
L 58.782675 26.074153 
L 58.782675 23.245615 
L 58.782675 20.417076 
L 58.782675 17.588538 
L 58.782675 14.76 
" clip-path="url(#pccc69413f9)" style="fill: none; stroke: #1f77b4; stroke-width: 0.5; stroke-linecap: square"/>
   </g>
   <g id="line2d_45">
    <path d="M 61.004204 68.502225 
L 61.004204 65.673687 
L 61.004204 62.845149 
L 61.004204 60.016611 
L 61.004204 57.188073 
L 61.004204 54.359534 
L 61.004204 51.530996 
L 61.004204 48.702458 
L 61.004204 45.87392 
L 61.004204 43.045382 
L 61.004204 40.216844 
L 61.004204 37.388305 
L 61.004204 34.559767 
L 61.004204 31.731229 
L 61.004204 28.902691 
L 61.004204 26.074153 
L 61.004204 23.245615 
L 61.004204 20.417076 
L 61.004204 17.588538 
L 61.004204 14.76 
" clip-path="url(#pccc69413f9)" style="fill: none; stroke: #1f77b4; stroke-width: 0.5; stroke-linecap: square"/>
   </g>
   <g id="line2d_46">
    <path d="M 63.225733 68.502225 
L 63.225733 65.673687 
L 63.225733 62.845149 
L 63.225733 60.016611 
L 63.225733 57.188073 
L 63.225733 54.359534 
L 63.225733 51.530996 
L 63.225733 48.702458 
L 63.225733 45.87392 
L 63.225733 43.045382 
L 63.225733 40.216844 
L 63.225733 37.388305 
L 63.225733 34.559767 
L 63.225733 31.731229 
L 63.225733 28.902691 
L 63.225733 26.074153 
L 63.225733 23.245615 
L 63.225733 20.417076 
L 63.225733 17.588538 
L 63.225733 14.76 
" clip-path="url(#pccc69413f9)" style="fill: none; stroke: #1f77b4; stroke-width: 0.5; stroke-linecap: square"/>
   </g>
   <g id="line2d_47">
    <path d="M 65.447261 68.502225 
L 65.447261 65.673687 
L 65.447261 62.845149 
L 65.447261 60.016611 
L 65.447261 57.188073 
L 65.447261 54.359534 
L 65.447261 51.530996 
L 65.447261 48.702458 
L 65.447261 45.87392 
L 65.447261 43.045382 
L 65.447261 40.216844 
L 65.447261 37.388305 
L 65.447261 34.559767 
L 65.447261 31.731229 
L 65.447261 28.902691 
L 65.447261 26.074153 
L 65.447261 23.245615 
L 65.447261 20.417076 
L 65.447261 17.588538 
L 65.447261 14.76 
" clip-path="url(#pccc69413f9)" style="fill: none; stroke: #1f77b4; stroke-width: 0.5; stroke-linecap: square"/>
   </g>
   <g id="line2d_48">
    <path d="M 67.66879 68.502225 
L 67.66879 65.673687 
L 67.66879 62.845149 
L 67.66879 60.016611 
L 67.66879 57.188073 
L 67.66879 54.359534 
L 67.66879 51.530996 
L 67.66879 48.702458 
L 67.66879 45.87392 
L 67.66879 43.045382 
L 67.66879 40.216844 
L 67.66879 37.388305 
L 67.66879 34.559767 
L 67.66879 31.731229 
L 67.66879 28.902691 
L 67.66879 26.074153 
L 67.66879 23.245615 
L 67.66879 20.417076 
L 67.66879 17.588538 
L 67.66879 14.76 
" clip-path="url(#pccc69413f9)" style="fill: none; stroke: #1f77b4; stroke-width: 0.5; stroke-linecap: square"/>
   </g>
   <g id="line2d_49">
    <path d="M 69.890319 68.502225 
L 69.890319 65.673687 
L 69.890319 62.845149 
L 69.890319 60.016611 
L 69.890319 57.188073 
L 69.890319 54.359534 
L 69.890319 51.530996 
L 69.890319 48.702458 
L 69.890319 45.87392 
L 69.890319 43.045382 
L 69.890319 40.216844 
L 69.890319 37.388305 
L 69.890319 34.559767 
L 69.890319 31.731229 
L 69.890319 28.902691 
L 69.890319 26.074153 
L 69.890319 23.245615 
L 69.890319 20.417076 
L 69.890319 17.588538 
L 69.890319 14.76 
" clip-path="url(#pccc69413f9)" style="fill: none; stroke: #1f77b4; stroke-width: 0.5; stroke-linecap: square"/>
   </g>
   <g id="line2d_50">
    <path d="M 72.111847 68.502225 
L 72.111847 65.673687 
L 72.111847 62.845149 
L 72.111847 60.016611 
L 72.111847 57.188073 
L 72.111847 54.359534 
L 72.111847 51.530996 
L 72.111847 48.702458 
L 72.111847 45.87392 
L 72.111847 43.045382 
L 72.111847 40.216844 
L 72.111847 37.388305 
L 72.111847 34.559767 
L 72.111847 31.731229 
L 72.111847 28.902691 
L 72.111847 26.074153 
L 72.111847 23.245615 
L 72.111847 20.417076 
L 72.111847 17.588538 
L 72.111847 14.76 
" clip-path="url(#pccc69413f9)" style="fill: none; stroke: #1f77b4; stroke-width: 0.5; stroke-linecap: square"/>
   </g>
   <g id="line2d_51">
    <path d="M 74.333376 68.502225 
L 74.333376 65.673687 
L 74.333376 62.845149 
L 74.333376 60.016611 
L 74.333376 57.188073 
L 74.333376 54.359534 
L 74.333376 51.530996 
L 74.333376 48.702458 
L 74.333376 45.87392 
L 74.333376 43.045382 
L 74.333376 40.216844 
L 74.333376 37.388305 
L 74.333376 34.559767 
L 74.333376 31.731229 
L 74.333376 28.902691 
L 74.333376 26.074153 
L 74.333376 23.245615 
L 74.333376 20.417076 
L 74.333376 17.588538 
L 74.333376 14.76 
" clip-path="url(#pccc69413f9)" style="fill: none; stroke: #1f77b4; stroke-width: 0.5; stroke-linecap: square"/>
   </g>
   <g id="line2d_52">
    <path d="M 76.554905 68.502225 
L 76.554905 65.673687 
L 76.554905 62.845149 
L 76.554905 60.016611 
L 76.554905 57.188073 
L 76.554905 54.359534 
L 76.554905 51.530996 
L 76.554905 48.702458 
L 76.554905 45.87392 
L 76.554905 43.045382 
L 76.554905 40.216844 
L 76.554905 37.388305 
L 76.554905 34.559767 
L 76.554905 31.731229 
L 76.554905 28.902691 
L 76.554905 26.074153 
L 76.554905 23.245615 
L 76.554905 20.417076 
L 76.554905 17.588538 
L 76.554905 14.76 
" clip-path="url(#pccc69413f9)" style="fill: none; stroke: #1f77b4; stroke-width: 0.5; stroke-linecap: square"/>
   </g>
   <g id="line2d_53">
    <path d="M 78.776433 68.502225 
L 78.776433 65.673687 
L 78.776433 62.845149 
L 78.776433 60.016611 
L 78.776433 57.188073 
L 78.776433 54.359534 
L 78.776433 51.530996 
L 78.776433 48.702458 
L 78.776433 45.87392 
L 78.776433 43.045382 
L 78.776433 40.216844 
L 78.776433 37.388305 
L 78.776433 34.559767 
L 78.776433 31.731229 
L 78.776433 28.902691 
L 78.776433 26.074153 
L 78.776433 23.245615 
L 78.776433 20.417076 
L 78.776433 17.588538 
L 78.776433 14.76 
" clip-path="url(#pccc69413f9)" style="fill: none; stroke: #1f77b4; stroke-width: 0.5; stroke-linecap: square"/>
   </g>
   <g id="line2d_54">
    <path d="M 80.997962 68.502225 
L 80.997962 65.673687 
L 80.997962 62.845149 
L 80.997962 60.016611 
L 80.997962 57.188073 
L 80.997962 54.359534 
L 80.997962 51.530996 
L 80.997962 48.702458 
L 80.997962 45.87392 
L 80.997962 43.045382 
L 80.997962 40.216844 
L 80.997962 37.388305 
L 80.997962 34.559767 
L 80.997962 31.731229 
L 80.997962 28.902691 
L 80.997962 26.074153 
L 80.997962 23.245615 
L 80.997962 20.417076 
L 80.997962 17.588538 
L 80.997962 14.76 
" clip-path="url(#pccc69413f9)" style="fill: none; stroke: #1f77b4; stroke-width: 0.5; stroke-linecap: square"/>
   </g>
   <g id="line2d_55">
    <path d="M 83.219491 68.502225 
L 83.219491 65.673687 
L 83.219491 62.845149 
L 83.219491 60.016611 
L 83.219491 57.188073 
L 83.219491 54.359534 
L 83.219491 51.530996 
L 83.219491 48.702458 
L 83.219491 45.87392 
L 83.219491 43.045382 
L 83.219491 40.216844 
L 83.219491 37.388305 
L 83.219491 34.559767 
L 83.219491 31.731229 
L 83.219491 28.902691 
L 83.219491 26.074153 
L 83.219491 23.245615 
L 83.219491 20.417076 
L 83.219491 17.588538 
L 83.219491 14.76 
" clip-path="url(#pccc69413f9)" style="fill: none; stroke: #1f77b4; stroke-width: 0.5; stroke-linecap: square"/>
   </g>
   <g id="line2d_56">
    <path d="M 85.441019 68.502225 
L 85.441019 65.673687 
L 85.441019 62.845149 
L 85.441019 60.016611 
L 85.441019 57.188073 
L 85.441019 54.359534 
L 85.441019 51.530996 
L 85.441019 48.702458 
L 85.441019 45.87392 
L 85.441019 43.045382 
L 85.441019 40.216844 
L 85.441019 37.388305 
L 85.441019 34.559767 
L 85.441019 31.731229 
L 85.441019 28.902691 
L 85.441019 26.074153 
L 85.441019 23.245615 
L 85.441019 20.417076 
L 85.441019 17.588538 
L 85.441019 14.76 
" clip-path="url(#pccc69413f9)" style="fill: none; stroke: #1f77b4; stroke-width: 0.5; stroke-linecap: square"/>
   </g>
   <g id="line2d_57">
    <path d="M 87.662548 68.502225 
L 87.662548 65.673687 
L 87.662548 62.845149 
L 87.662548 60.016611 
L 87.662548 57.188073 
L 87.662548 54.359534 
L 87.662548 51.530996 
L 87.662548 48.702458 
L 87.662548 45.87392 
L 87.662548 43.045382 
L 87.662548 40.216844 
L 87.662548 37.388305 
L 87.662548 34.559767 
L 87.662548 31.731229 
L 87.662548 28.902691 
L 87.662548 26.074153 
L 87.662548 23.245615 
L 87.662548 20.417076 
L 87.662548 17.588538 
L 87.662548 14.76 
" clip-path="url(#pccc69413f9)" style="fill: none; stroke: #1f77b4; stroke-width: 0.5; stroke-linecap: square"/>
   </g>
   <g id="line2d_58">
    <path d="M 89.884077 68.502225 
L 89.884077 65.673687 
L 89.884077 62.845149 
L 89.884077 60.016611 
L 89.884077 57.188073 
L 89.884077 54.359534 
L 89.884077 51.530996 
L 89.884077 48.702458 
L 89.884077 45.87392 
L 89.884077 43.045382 
L 89.884077 40.216844 
L 89.884077 37.388305 
L 89.884077 34.559767 
L 89.884077 31.731229 
L 89.884077 28.902691 
L 89.884077 26.074153 
L 89.884077 23.245615 
L 89.884077 20.417076 
L 89.884077 17.588538 
L 89.884077 14.76 
" clip-path="url(#pccc69413f9)" style="fill: none; stroke: #1f77b4; stroke-width: 0.5; stroke-linecap: square"/>
   </g>
   <g id="patch_4">
    <path d="M 42.620313 173.52 
L 42.620313 7.2 
" style="fill: none; stroke: #000000; stroke-width: 0.8; stroke-linejoin: miter; stroke-linecap: square"/>
   </g>
   <g id="patch_5">
    <path d="M 153.824135 173.52 
L 153.824135 7.2 
" style="fill: none; stroke: #000000; stroke-width: 0.8; stroke-linejoin: miter; stroke-linecap: square"/>
   </g>
   <g id="patch_6">
    <path d="M 42.620313 173.52 
L 153.824135 173.52 
" style="fill: none; stroke: #000000; stroke-width: 0.8; stroke-linejoin: miter; stroke-linecap: square"/>
   </g>
   <g id="patch_7">
    <path d="M 42.620313 7.2 
L 153.824135 7.2 
" style="fill: none; stroke: #000000; stroke-width: 0.8; stroke-linejoin: miter; stroke-linecap: square"/>
   </g>
  </g>
  <g id="axes_2">
   <g id="patch_8">
    <path d="M 286.111222 173.52 
L 397.315044 173.52 
L 397.315044 7.2 
L 286.111222 7.2 
z
" style="fill: #ffffff"/>
   </g>
   <g id="patch_9">
    <path d="M 318.037053 68.502225 
L 318.023248 68.502225 
L 317.981844 68.502225 
L 317.912885 68.502225 
L 317.816442 68.502225 
L 317.692614 68.502225 
L 317.541528 68.502225 
L 317.363339 68.502225 
L 317.15823 68.502225 
L 316.926413 68.502225 
L 316.668125 68.502225 
L 316.383632 68.502225 
L 316.073225 68.502225 
L 315.737225 68.502225 
L 315.375977 68.502225 
L 314.989851 68.502225 
L 314.579244 68.502225 
L 314.144578 68.502225 
L 313.686301 68.502225 
L 313.204882 68.502225 
L 312.700817 68.502225 
L 312.174623 68.502225 
L 311.626841 68.502225 
L 311.058034 68.502225 
L 310.468787 68.502225 
L 309.859705 68.502225 
L 309.231414 68.502225 
L 308.584559 68.502225 
L 307.919806 68.502225 
L 307.237836 68.502225 
L 306.539352 68.502225 
L 305.825071 68.502225 
L 305.095726 68.502225 
L 304.352067 68.502225 
L 303.594859 68.502225 
L 302.82488 68.502225 
L 302.04292 68.502225 
L 301.249783 68.502225 
L 300.446284 68.502225 
L 299.633249 68.502225 
L 298.811514 68.502225 
L 297.981922 68.502225 
L 297.145326 68.502225 
L 296.302586 68.502225 
L 295.454568 68.502225 
L 294.602142 68.502225 
L 293.746186 68.502225 
L 292.887579 68.502225 
L 292.027202 68.502225 
L 291.165941 68.502225 
L 291.165941 68.502225 
L 291.165941 69.59931 
L 291.165941 70.698223 
L 291.165941 71.800794 
L 291.165941 72.908862 
L 291.165941 74.024272 
L 291.165941 75.148883 
L 291.165941 76.284569 
L 291.165941 77.433221 
L 291.165941 78.596755 
L 291.165941 79.777107 
L 291.165941 80.976247 
L 291.165941 82.19617 
L 291.165941 83.438911 
L 291.165941 84.706539 
L 291.165941 86.001166 
L 291.165941 87.324951 
L 291.165941 88.680098 
L 291.165941 90.068865 
L 291.165941 91.493567 
L 291.165941 92.956577 
L 291.165941 94.460333 
L 291.165941 96.00734 
L 291.165941 97.600177 
L 291.165941 99.241497 
L 291.165941 100.934034 
L 291.165941 102.68061 
L 291.165941 104.484134 
L 291.165941 106.347611 
L 291.165941 108.274146 
L 291.165941 110.266949 
L 291.165941 112.329341 
L 291.165941 114.464757 
L 291.165941 116.676757 
L 291.165941 118.969025 
L 291.165941 121.345382 
L 291.165941 123.809785 
L 291.165941 126.366342 
L 291.165941 129.019313 
L 291.165941 131.773118 
L 291.165941 134.632345 
L 291.165941 137.601758 
L 291.165941 140.686304 
L 291.165941 143.891125 
L 291.165941 147.221558 
L 291.165941 150.683154 
L 291.165941 154.28168 
L 291.165941 158.023133 
L 291.165941 161.913745 
L 291.165941 165.96 
L 291.165941 165.96 
L 294.406175 165.909928 
L 297.64308 165.759763 
L 300.873329 165.509659 
L 304.093604 165.159873 
L 307.300594 164.710765 
L 310.491005 164.162796 
L 313.661558 163.51653 
L 316.808995 162.77263 
L 319.930082 161.931861 
L 323.021612 160.995086 
L 326.080408 159.963269 
L 329.103328 158.83747 
L 332.087264 157.618845 
L 335.02915 156.308646 
L 337.925964 154.908221 
L 340.77473 153.419007 
L 343.572518 151.842536 
L 346.316456 150.180427 
L 349.003722 148.434388 
L 351.631557 146.606214 
L 354.197258 144.697782 
L 356.698191 142.711054 
L 359.131785 140.648072 
L 361.49554 138.510954 
L 363.787026 136.301899 
L 366.003889 134.023174 
L 368.143851 131.677122 
L 370.204713 129.266154 
L 372.184357 126.792747 
L 374.08075 124.259442 
L 375.891942 121.668843 
L 377.616072 119.023611 
L 379.251369 116.326466 
L 380.796152 113.580178 
L 382.248834 110.787569 
L 383.607922 107.951509 
L 384.87202 105.074913 
L 386.039828 102.160735 
L 387.110147 99.211971 
L 388.081877 96.231651 
L 388.954019 93.222837 
L 389.725678 90.18862 
L 390.396059 87.13212 
L 390.964475 84.056476 
L 391.430342 80.964849 
L 391.793179 77.860416 
L 392.052616 74.746366 
L 392.208384 71.625901 
L 392.260325 68.502225 
L 392.260325 68.502225 
L 388.365574 68.502225 
L 384.632777 68.502225 
L 381.055716 68.502225 
L 377.628428 68.502225 
L 374.345205 68.502225 
L 371.200576 68.502225 
L 368.189301 68.502225 
L 365.306362 68.502225 
L 362.546956 68.502225 
L 359.906486 68.502225 
L 357.380551 68.502225 
L 354.964944 68.502225 
L 352.655638 68.502225 
L 350.448787 68.502225 
L 348.340713 68.502225 
L 346.327904 68.502225 
L 344.407006 68.502225 
L 342.574819 68.502225 
L 340.828289 68.502225 
L 339.164507 68.502225 
L 337.5807 68.502225 
L 336.07423 68.502225 
L 334.642586 68.502225 
L 333.283383 68.502225 
L 331.994356 68.502225 
L 330.773358 68.502225 
L 329.618354 68.502225 
L 328.527419 68.502225 
L 327.498736 68.502225 
L 326.530591 68.502225 
L 325.621371 68.502225 
L 324.76956 68.502225 
L 323.97374 68.502225 
L 323.232584 68.502225 
L 322.544858 68.502225 
L 321.909416 68.502225 
L 321.325198 68.502225 
L 320.791232 68.502225 
L 320.306628 68.502225 
L 319.870578 68.502225 
L 319.482356 68.502225 
L 319.141315 68.502225 
L 318.846886 68.502225 
L 318.59858 68.502225 
L 318.395982 68.502225 
L 318.238755 68.502225 
L 318.126636 68.502225 
L 318.05944 68.502225 
z
" clip-path="url(#p08f5277a22)" style="fill: #d62728; opacity: 0.2"/>
   </g>
   <g id="matplotlib.axis_3">
    <g id="xtick_3">
     <g id="line2d_59">
      <path d="M 291.165941 173.52 
L 291.165941 7.2 
" clip-path="url(#p08f5277a22)" style="fill: none; stroke-dasharray: 2.96,1.28; stroke-dashoffset: 0; stroke: #000000; stroke-opacity: 0.2; stroke-width: 0.8"/>
     </g>
     <g id="line2d_60">
      <g>
       <use xlink:href="#m4495d3213b" x="291.165941" y="173.52" style="stroke: #000000; stroke-width: 0.8"/>
      </g>
     </g>
     <g id="text_11">
      <!-- 0 -->
      <g transform="translate(287.984691 188.118438) scale(0.1 -0.1)">
       <use xlink:href="#DejaVuSans-30"/>
      </g>
     </g>
    </g>
    <g id="xtick_4">
     <g id="line2d_61">
      <path d="M 344.908166 173.52 
L 344.908166 7.2 
" clip-path="url(#p08f5277a22)" style="fill: none; stroke-dasharray: 2.96,1.28; stroke-dashoffset: 0; stroke: #000000; stroke-opacity: 0.2; stroke-width: 0.8"/>
     </g>
     <g id="line2d_62">
      <g>
       <use xlink:href="#m4495d3213b" x="344.908166" y="173.52" style="stroke: #000000; stroke-width: 0.8"/>
      </g>
     </g>
     <g id="text_12">
      <!-- 2 -->
      <g transform="translate(341.726916 188.118438) scale(0.1 -0.1)">
       <use xlink:href="#DejaVuSans-32"/>
      </g>
     </g>
    </g>
    <g id="text_13">
     <!-- Re($w$) -->
     <g transform="translate(327.163133 201.796563) scale(0.1 -0.1)">
      <defs>
       <path id="DejaVuSans-Oblique-77" d="M 544 3500 
L 1113 3500 
L 1259 684 
L 2566 3500 
L 3231 3500 
L 3425 684 
L 4666 3500 
L 5241 3500 
L 3641 0 
L 2969 0 
L 2797 2900 
L 1459 0 
L 781 0 
L 544 3500 
z
" transform="scale(0.015625)"/>
      </defs>
      <use xlink:href="#DejaVuSans-52" transform="translate(0 0.125)"/>
      <use xlink:href="#DejaVuSans-65" transform="translate(69.482422 0.125)"/>
      <use xlink:href="#DejaVuSans-28" transform="translate(131.005859 0.125)"/>
      <use xlink:href="#DejaVuSans-Oblique-77" transform="translate(170.019531 0.125)"/>
      <use xlink:href="#DejaVuSans-29" transform="translate(251.806641 0.125)"/>
     </g>
    </g>
   </g>
   <g id="matplotlib.axis_4">
    <g id="ytick_7">
     <g id="line2d_63">
      <path d="M 286.111222 149.115563 
L 397.315044 149.115563 
" clip-path="url(#p08f5277a22)" style="fill: none; stroke-dasharray: 2.96,1.28; stroke-dashoffset: 0; stroke: #000000; stroke-opacity: 0.2; stroke-width: 0.8"/>
     </g>
     <g id="line2d_64">
      <g>
       <use xlink:href="#m45edc06be1" x="286.111222" y="149.115563" style="stroke: #000000; stroke-width: 0.8"/>
      </g>
     </g>
    </g>
    <g id="ytick_8">
     <g id="line2d_65">
      <path d="M 286.111222 122.244451 
L 397.315044 122.244451 
" clip-path="url(#p08f5277a22)" style="fill: none; stroke-dasharray: 2.96,1.28; stroke-dashoffset: 0; stroke: #000000; stroke-opacity: 0.2; stroke-width: 0.8"/>
     </g>
     <g id="line2d_66">
      <g>
       <use xlink:href="#m45edc06be1" x="286.111222" y="122.244451" style="stroke: #000000; stroke-width: 0.8"/>
      </g>
     </g>
    </g>
    <g id="ytick_9">
     <g id="line2d_67">
      <path d="M 286.111222 95.373338 
L 397.315044 95.373338 
" clip-path="url(#p08f5277a22)" style="fill: none; stroke-dasharray: 2.96,1.28; stroke-dashoffset: 0; stroke: #000000; stroke-opacity: 0.2; stroke-width: 0.8"/>
     </g>
     <g id="line2d_68">
      <g>
       <use xlink:href="#m45edc06be1" x="286.111222" y="95.373338" style="stroke: #000000; stroke-width: 0.8"/>
      </g>
     </g>
    </g>
    <g id="ytick_10">
     <g id="line2d_69">
      <path d="M 286.111222 68.502225 
L 397.315044 68.502225 
" clip-path="url(#p08f5277a22)" style="fill: none; stroke-dasharray: 2.96,1.28; stroke-dashoffset: 0; stroke: #000000; stroke-opacity: 0.2; stroke-width: 0.8"/>
     </g>
     <g id="line2d_70">
      <g>
       <use xlink:href="#m45edc06be1" x="286.111222" y="68.502225" style="stroke: #000000; stroke-width: 0.8"/>
      </g>
     </g>
    </g>
    <g id="ytick_11">
     <g id="line2d_71">
      <path d="M 286.111222 41.631113 
L 397.315044 41.631113 
" clip-path="url(#p08f5277a22)" style="fill: none; stroke-dasharray: 2.96,1.28; stroke-dashoffset: 0; stroke: #000000; stroke-opacity: 0.2; stroke-width: 0.8"/>
     </g>
     <g id="line2d_72">
      <g>
       <use xlink:href="#m45edc06be1" x="286.111222" y="41.631113" style="stroke: #000000; stroke-width: 0.8"/>
      </g>
     </g>
    </g>
    <g id="ytick_12">
     <g id="line2d_73">
      <path d="M 286.111222 14.76 
L 397.315044 14.76 
" clip-path="url(#p08f5277a22)" style="fill: none; stroke-dasharray: 2.96,1.28; stroke-dashoffset: 0; stroke: #000000; stroke-opacity: 0.2; stroke-width: 0.8"/>
     </g>
     <g id="line2d_74">
      <g>
       <use xlink:href="#m45edc06be1" x="286.111222" y="14.76" style="stroke: #000000; stroke-width: 0.8"/>
      </g>
     </g>
    </g>
    <g id="text_14">
     <!-- Im($w$) -->
     <g transform="translate(276.531534 104.56) rotate(-90) scale(0.1 -0.1)">
      <use xlink:href="#DejaVuSans-49" transform="translate(0 0.125)"/>
      <use xlink:href="#DejaVuSans-6d" transform="translate(25.867188 0.125)"/>
      <use xlink:href="#DejaVuSans-28" transform="translate(123.279297 0.125)"/>
      <use xlink:href="#DejaVuSans-Oblique-77" transform="translate(162.292969 0.125)"/>
      <use xlink:href="#DejaVuSans-29" transform="translate(244.080078 0.125)"/>
     </g>
    </g>
   </g>
   <g id="line2d_75">
    <path d="M 291.165941 173.52 
L 291.165941 7.2 
" clip-path="url(#p08f5277a22)" style="fill: none; stroke: #000000; stroke-width: 0.5; stroke-linecap: square"/>
   </g>
   <g id="line2d_76">
    <path d="M 286.111222 68.502225 
L 397.315044 68.502225 
" clip-path="url(#p08f5277a22)" style="fill: none; stroke: #000000; stroke-width: 0.5; stroke-linecap: square"/>
   </g>
   <g id="line2d_77">
    <path d="M 318.037053 68.502225 
L 317.945275 68.502225 
L 317.670567 68.502225 
L 317.214805 68.502225 
L 316.581102 68.502225 
L 315.773789 68.502225 
L 314.798379 68.502225 
L 313.661536 68.502225 
L 312.371024 68.502225 
L 310.935661 68.502225 
L 309.36525 68.502225 
L 307.67052 68.502225 
L 305.863046 68.502225 
L 303.955177 68.502225 
L 301.959944 68.502225 
L 299.890977 68.502225 
L 297.762409 68.502225 
L 295.588781 68.502225 
L 293.38494 68.502225 
L 291.165941 68.502225 
" clip-path="url(#p08f5277a22)" style="fill: none; stroke: #d62728; stroke-width: 0.5; stroke-linecap: square"/>
   </g>
   <g id="line2d_78">
    <path d="M 318.186061 68.502225 
L 318.093774 68.736236 
L 317.817542 68.968648 
L 317.359253 69.197873 
L 316.722037 69.422347 
L 315.910247 69.640536 
L 314.929428 69.850948 
L 313.78628 70.052148 
L 312.488613 70.24276 
L 311.04529 70.421482 
L 309.466171 70.587094 
L 307.762042 70.738464 
L 305.944546 70.874558 
L 304.026097 70.994447 
L 302.0198 71.097311 
L 299.93936 71.182449 
L 297.798988 71.249277 
L 295.613306 71.297341 
L 293.397245 71.326311 
L 291.165941 71.33599 
" clip-path="url(#p08f5277a22)" style="fill: none; stroke: #d62728; stroke-width: 0.5; stroke-linecap: square"/>
   </g>
   <g id="line2d_79">
    <path d="M 318.634738 68.502225 
L 318.540918 68.972842 
L 318.260099 69.440243 
L 317.7942 69.901237 
L 317.146403 70.352674 
L 316.321132 70.79147 
L 315.324027 71.214629 
L 314.161897 71.61926 
L 312.842681 72.002597 
L 311.375392 72.362024 
L 309.770051 72.695084 
L 308.037625 72.999503 
L 306.189949 73.273201 
L 304.239643 73.514309 
L 302.200031 73.721178 
L 300.085045 73.892397 
L 297.909132 74.026796 
L 295.687156 74.123456 
L 293.434296 74.181718 
L 291.165941 74.201183 
" clip-path="url(#p08f5277a22)" style="fill: none; stroke: #d62728; stroke-width: 0.5; stroke-linecap: square"/>
   </g>
   <g id="line2d_80">
    <path d="M 319.388059 68.502225 
L 319.291666 69.214667 
L 319.003146 69.922241 
L 318.524469 70.620116 
L 317.858907 71.303523 
L 317.011004 71.967794 
L 315.986553 72.608392 
L 314.792552 73.220941 
L 313.437157 73.801256 
L 311.929628 74.345374 
L 310.280261 74.849576 
L 308.500324 75.31042 
L 306.601976 75.724757 
L 304.598184 76.089757 
L 302.502636 76.402927 
L 300.329648 76.662126 
L 298.094061 76.865585 
L 295.811149 77.011914 
L 293.496505 77.100113 
L 291.165941 77.12958 
" clip-path="url(#p08f5277a22)" style="fill: none; stroke: #d62728; stroke-width: 0.5; stroke-linecap: square"/>
   </g>
   <g id="line2d_81">
    <path d="M 320.454379 68.502225 
L 320.354344 69.464393 
L 320.054923 70.419988 
L 319.558161 71.362483 
L 318.867451 72.28544 
L 317.987511 73.182553 
L 316.924353 74.047695 
L 315.685239 74.874956 
L 314.278634 75.658684 
L 312.714145 76.393527 
L 311.00246 77.074464 
L 309.155272 77.696844 
L 307.185198 78.256415 
L 305.105697 78.749356 
L 302.930972 79.172298 
L 300.675881 79.522353 
L 298.355827 79.797129 
L 295.986659 79.994749 
L 293.584561 80.113864 
L 291.165941 80.153659 
" clip-path="url(#p08f5277a22)" style="fill: none; stroke: #d62728; stroke-width: 0.5; stroke-linecap: square"/>
   </g>
   <g id="line2d_82">
    <path d="M 321.845525 68.502225 
L 321.740738 69.724791 
L 321.427095 70.939005 
L 320.906738 72.136573 
L 320.18322 73.309315 
L 319.261485 74.44922 
L 318.14783 75.5485 
L 316.84986 76.599648 
L 315.376443 77.595482 
L 313.737644 78.529199 
L 311.944658 79.394423 
L 310.009731 80.185241 
L 307.946083 80.896253 
L 305.767809 81.522601 
L 303.489789 82.060007 
L 301.127585 82.504799 
L 298.697333 82.853939 
L 296.215634 83.105043 
L 293.699441 83.256394 
L 291.165941 83.30696 
" clip-path="url(#p08f5277a22)" style="fill: none; stroke: #d62728; stroke-width: 0.5; stroke-linecap: square"/>
   </g>
   <g id="line2d_83">
    <path d="M 323.576924 68.502225 
L 323.466224 69.998747 
L 323.134881 71.485046 
L 322.585157 72.950969 
L 321.820808 74.386503 
L 320.847055 75.781842 
L 319.67055 77.127453 
L 318.29933 78.414145 
L 316.742761 79.633128 
L 315.011476 80.776077 
L 313.117303 81.835182 
L 311.073179 82.80321 
L 308.893069 83.673547 
L 306.591864 84.440249 
L 304.185285 85.098079 
L 301.68977 85.642541 
L 299.122367 86.069918 
L 296.500613 86.37729 
L 293.842419 86.562557 
L 291.165941 86.624454 
" clip-path="url(#p08f5277a22)" style="fill: none; stroke: #d62728; stroke-width: 0.5; stroke-linecap: square"/>
   </g>
   <g id="line2d_84">
    <path d="M 325.66778 68.502225 
L 325.549939 70.289301 
L 325.19722 72.064169 
L 324.612033 73.814705 
L 323.798375 75.528952 
L 322.761805 77.195199 
L 321.509403 78.802064 
L 320.049724 80.33857 
L 318.39274 81.794223 
L 316.549769 83.159078 
L 314.533401 84.423811 
L 312.357409 85.579784 
L 310.036658 86.6191 
L 307.587001 87.53466 
L 305.025172 88.320208 
L 302.36867 88.97038 
L 299.635642 89.480733 
L 296.844757 89.847782 
L 294.01508 90.069019 
L 291.165941 90.142933 
" clip-path="url(#p08f5277a22)" style="fill: none; stroke: #d62728; stroke-width: 0.5; stroke-linecap: square"/>
   </g>
   <g id="line2d_85">
    <path d="M 328.141281 68.502225 
L 328.014991 70.599674 
L 327.636986 72.682795 
L 327.009845 74.737359 
L 326.137855 76.74933 
L 325.026971 78.704966 
L 323.684782 80.590906 
L 322.120456 82.394268 
L 320.34468 84.102734 
L 318.369583 85.704632 
L 316.208657 87.18902 
L 313.876665 88.545759 
L 311.389535 89.76558 
L 308.764258 90.84015 
L 306.018766 91.76213 
L 303.171814 92.525221 
L 300.24285 93.124211 
L 297.251882 93.555008 
L 294.21934 93.814669 
L 291.165941 93.90142 
" clip-path="url(#p08f5277a22)" style="fill: none; stroke: #d62728; stroke-width: 0.5; stroke-linecap: square"/>
   </g>
   <g id="line2d_86">
    <path d="M 331.024859 68.502225 
L 330.888721 70.933309 
L 330.481236 73.347787 
L 329.805187 75.729164 
L 328.865193 78.061174 
L 327.667675 80.327887 
L 326.220813 82.513818 
L 324.534491 84.604036 
L 322.620228 86.584263 
L 320.4911 88.44097 
L 318.161652 90.161476 
L 315.647795 91.734027 
L 312.966703 93.147882 
L 310.136689 94.393381 
L 307.177086 95.462018 
L 304.10811 96.346492 
L 300.950727 97.040761 
L 297.726503 97.540084 
L 294.457464 97.841048 
L 291.165941 97.941598 
" clip-path="url(#p08f5277a22)" style="fill: none; stroke: #d62728; stroke-width: 0.5; stroke-linecap: square"/>
   </g>
   <g id="line2d_87">
    <path d="M 334.350496 68.502225 
L 334.202998 71.293907 
L 333.761515 74.066518 
L 333.02906 76.80112 
L 332.010637 79.479032 
L 330.713204 82.081961 
L 329.145623 84.592127 
L 327.318602 86.992383 
L 325.244622 89.266332 
L 322.93785 91.398441 
L 320.414044 93.374145 
L 317.690443 95.17995 
L 314.785654 96.803518 
L 311.719517 98.23376 
L 308.512979 99.460905 
L 305.187943 100.476571 
L 301.767122 101.27382 
L 298.273885 101.847206 
L 294.732093 102.192811 
L 291.165941 102.308276 
" clip-path="url(#p08f5277a22)" style="fill: none; stroke: #d62728; stroke-width: 0.5; stroke-linecap: square"/>
   </g>
   <g id="line2d_88">
    <path d="M 338.155073 68.502225 
L 337.994581 71.685466 
L 337.514203 74.846961 
L 336.717218 77.965116 
L 335.609072 81.018629 
L 334.197335 83.986643 
L 332.491649 86.848882 
L 330.503667 89.585795 
L 328.246969 92.178686 
L 325.736969 94.609843 
L 322.990814 96.862658 
L 320.027263 98.921743 
L 316.86656 100.773032 
L 313.530296 102.403878 
L 310.04126 103.803141 
L 306.423287 104.961264 
L 302.701091 105.870334 
L 298.900098 106.524143 
L 295.046273 106.918223 
L 291.165941 107.049882 
" clip-path="url(#p08f5277a22)" style="fill: none; stroke: #d62728; stroke-width: 0.5; stroke-linecap: square"/>
   </g>
   <g id="line2d_89">
    <path d="M 342.480787 68.502225 
L 342.305521 72.112328 
L 341.780919 75.697771 
L 340.910566 79.23406 
L 339.700407 82.69704 
L 338.158708 86.063055 
L 336.296001 89.309112 
L 334.12501 92.413037 
L 331.660565 95.353626 
L 328.9195 98.110794 
L 325.92054 100.665705 
L 322.684172 103.000906 
L 319.232501 105.100447 
L 315.589108 106.949985 
L 311.77888 108.536885 
L 307.827844 109.850308 
L 303.762991 110.881282 
L 299.612087 111.622764 
L 295.403487 112.069689 
L 291.165941 112.219004 
" clip-path="url(#p08f5277a22)" style="fill: none; stroke: #d62728; stroke-width: 0.5; stroke-linecap: square"/>
   </g>
   <g id="line2d_90">
    <path d="M 347.375611 68.502225 
L 347.183627 72.579229 
L 346.608985 76.628383 
L 345.65561 80.622026 
L 344.330016 84.53288 
L 342.641258 88.334227 
L 340.600871 92.000102 
L 338.222793 95.505463 
L 335.523269 98.826364 
L 332.520739 101.94012 
L 329.235715 104.825462 
L 325.690635 107.462679 
L 321.909717 109.833757 
L 317.918787 111.922499 
L 313.745108 113.714636 
L 309.417191 115.197926 
L 304.964599 116.362238 
L 300.417748 117.199617 
L 295.807699 117.704343 
L 291.165941 117.872969 
" clip-path="url(#p08f5277a22)" style="fill: none; stroke: #d62728; stroke-width: 0.5; stroke-linecap: square"/>
   </g>
   <g id="line2d_91">
    <path d="M 352.893833 68.502225 
L 352.683001 73.091346 
L 352.051945 77.649119 
L 351.004976 82.144408 
L 349.549245 86.546508 
L 347.694698 90.825347 
L 345.454002 94.951697 
L 342.842463 98.89737 
L 339.877921 102.635413 
L 336.580627 106.140292 
L 332.973105 109.388065 
L 329.079997 112.356546 
L 324.927898 115.025458 
L 320.54517 117.376568 
L 315.961753 119.393818 
L 311.208955 121.063426 
L 306.319242 122.373988 
L 301.326018 123.316551 
L 296.26339 123.884677 
L 291.165941 124.074484 
" clip-path="url(#p08f5277a22)" style="fill: none; stroke: #d62728; stroke-width: 0.5; stroke-linecap: square"/>
   </g>
   <g id="line2d_92">
    <path d="M 359.096652 68.502225 
L 358.864634 73.654359 
L 358.170165 78.771299 
L 357.01799 83.81809 
L 355.415978 88.760258 
L 353.375074 93.564044 
L 350.909218 98.196632 
L 348.035255 102.626377 
L 344.772817 106.823019 
L 341.144189 110.757891 
L 337.174159 114.404115 
L 332.889847 117.736782 
L 328.320518 120.733127 
L 323.497386 123.372682 
L 318.453397 125.637416 
L 313.223007 127.511859 
L 307.841944 128.983207 
L 302.346968 130.041407 
L 296.775614 130.679233 
L 291.165941 130.892327 
" clip-path="url(#p08f5277a22)" style="fill: none; stroke: #d62728; stroke-width: 0.5; stroke-linecap: square"/>
   </g>
   <g id="line2d_93">
    <path d="M 366.052861 68.502225 
L 365.797084 74.274512 
L 365.031501 80.007368 
L 363.761341 85.661633 
L 361.995281 91.198681 
L 359.745385 96.58069 
L 357.027021 101.770894 
L 353.85876 106.733839 
L 350.262243 111.435624 
L 346.262038 115.84413 
L 341.885472 119.929243 
L 337.162439 123.663057 
L 332.125204 127.020067 
L 326.808175 129.97734 
L 321.247674 132.514677 
L 315.481684 134.614743 
L 309.549593 136.263194 
L 303.491923 137.448768 
L 297.350054 138.163368 
L 291.165941 138.402111 
" clip-path="url(#p08f5277a22)" style="fill: none; stroke: #d62728; stroke-width: 0.5; stroke-linecap: square"/>
   </g>
   <g id="line2d_94">
    <path d="M 373.839608 68.502225 
L 373.557236 74.958683 
L 372.712047 81.371037 
L 371.309816 87.695484 
L 369.360121 93.888821 
L 366.87628 99.908742 
L 363.875261 105.714125 
L 360.377564 111.265312 
L 356.407081 116.524385 
L 351.990935 121.455417 
L 347.159292 126.024726 
L 341.945158 130.201097 
L 336.384151 133.956003 
L 330.514257 137.263793 
L 324.375575 140.101871 
L 318.010037 142.450852 
L 311.461126 144.294688 
L 304.773579 145.620785 
L 297.993078 146.420084 
L 291.165941 146.687125 
" clip-path="url(#p08f5277a22)" style="fill: none; stroke: #d62728; stroke-width: 0.5; stroke-linecap: square"/>
   </g>
   <g id="line2d_95">
    <path d="M 382.543254 68.502225 
L 382.231154 75.71446 
L 381.296986 82.877428 
L 379.747132 89.942198 
L 377.592179 96.860512 
L 374.846846 103.58511 
L 371.529889 110.070056 
L 367.663964 116.271052 
L 363.27548 122.145739 
L 358.394415 127.653985 
L 353.054111 132.758166 
L 347.291048 137.423413 
L 341.144594 141.617858 
L 334.656735 145.31285 
L 327.871789 148.483147 
L 320.836106 151.107093 
L 313.597745 153.166764 
L 306.206152 154.648091 
L 298.711819 155.540954 
L 291.165941 155.839254 
" clip-path="url(#p08f5277a22)" style="fill: none; stroke: #d62728; stroke-width: 0.5; stroke-linecap: square"/>
   </g>
   <g id="line2d_96">
    <path d="M 392.260325 68.502225 
L 391.915037 76.550225 
L 390.881529 84.543248 
L 389.166864 92.426695 
L 386.782753 100.146713 
L 383.745481 107.650568 
L 380.075798 114.886999 
L 375.79877 121.806576 
L 370.943615 128.362029 
L 365.543497 134.50858 
L 359.635304 140.20424 
L 353.259397 145.410103 
L 346.459328 150.090607 
L 339.281549 154.21378 
L 331.775092 157.751456 
L 323.991234 160.679469 
L 315.983145 162.977818 
L 307.80553 164.630803 
L 299.514249 165.627132 
L 291.165941 165.96 
" clip-path="url(#p08f5277a22)" style="fill: none; stroke: #d62728; stroke-width: 0.5; stroke-linecap: square"/>
   </g>
   <g id="line2d_97">
    <path d="M 318.037053 68.502225 
L 318.186061 68.502225 
L 318.634738 68.502225 
L 319.388059 68.502225 
L 320.454379 68.502225 
L 321.845525 68.502225 
L 323.576924 68.502225 
L 325.66778 68.502225 
L 328.141281 68.502225 
L 331.024859 68.502225 
L 334.350496 68.502225 
L 338.155073 68.502225 
L 342.480787 68.502225 
L 347.375611 68.502225 
L 352.893833 68.502225 
L 359.096652 68.502225 
L 366.052861 68.502225 
L 373.839608 68.502225 
L 382.543254 68.502225 
L 392.260325 68.502225 
" clip-path="url(#p08f5277a22)" style="fill: none; stroke: #d62728; stroke-width: 0.5; stroke-linecap: square"/>
   </g>
   <g id="line2d_98">
    <path d="M 317.945275 68.502225 
L 318.093774 68.736236 
L 318.540918 68.972842 
L 319.291666 69.214667 
L 320.354344 69.464393 
L 321.740738 69.724791 
L 323.466224 69.998747 
L 325.549939 70.289301 
L 328.014991 70.599674 
L 330.888721 70.933309 
L 334.202998 71.293907 
L 337.994581 71.685466 
L 342.305521 72.112328 
L 347.183627 72.579229 
L 352.683001 73.091346 
L 358.864634 73.654359 
L 365.797084 74.274512 
L 373.557236 74.958683 
L 382.231154 75.71446 
L 391.915037 76.550225 
" clip-path="url(#p08f5277a22)" style="fill: none; stroke: #d62728; stroke-width: 0.5; stroke-linecap: square"/>
   </g>
   <g id="line2d_99">
    <path d="M 317.670567 68.502225 
L 317.817542 68.968648 
L 318.260099 69.440243 
L 319.003146 69.922241 
L 320.054923 70.419988 
L 321.427095 70.939005 
L 323.134881 71.485046 
L 325.19722 72.064169 
L 327.636986 72.682795 
L 330.481236 73.347787 
L 333.761515 74.066518 
L 337.514203 74.846961 
L 341.780919 75.697771 
L 346.608985 76.628383 
L 352.051945 77.649119 
L 358.170165 78.771299 
L 365.031501 80.007368 
L 372.712047 81.371037 
L 381.296986 82.877428 
L 390.881529 84.543248 
" clip-path="url(#p08f5277a22)" style="fill: none; stroke: #d62728; stroke-width: 0.5; stroke-linecap: square"/>
   </g>
   <g id="line2d_100">
    <path d="M 317.214805 68.502225 
L 317.359253 69.197873 
L 317.7942 69.901237 
L 318.524469 70.620116 
L 319.558161 71.362483 
L 320.906738 72.136573 
L 322.585157 72.950969 
L 324.612033 73.814705 
L 327.009845 74.737359 
L 329.805187 75.729164 
L 333.02906 76.80112 
L 336.717218 77.965116 
L 340.910566 79.23406 
L 345.65561 80.622026 
L 351.004976 82.144408 
L 357.01799 83.81809 
L 363.761341 85.661633 
L 371.309816 87.695484 
L 379.747132 89.942198 
L 389.166864 92.426695 
" clip-path="url(#p08f5277a22)" style="fill: none; stroke: #d62728; stroke-width: 0.5; stroke-linecap: square"/>
   </g>
   <g id="line2d_101">
    <path d="M 316.581102 68.502225 
L 316.722037 69.422347 
L 317.146403 70.352674 
L 317.858907 71.303523 
L 318.867451 72.28544 
L 320.18322 73.309315 
L 321.820808 74.386503 
L 323.798375 75.528952 
L 326.137855 76.74933 
L 328.865193 78.061174 
L 332.010637 79.479032 
L 335.609072 81.018629 
L 339.700407 82.69704 
L 344.330016 84.53288 
L 349.549245 86.546508 
L 355.415978 88.760258 
L 361.995281 91.198681 
L 369.360121 93.888821 
L 377.592179 96.860512 
L 386.782753 100.146713 
" clip-path="url(#p08f5277a22)" style="fill: none; stroke: #d62728; stroke-width: 0.5; stroke-linecap: square"/>
   </g>
   <g id="line2d_102">
    <path d="M 315.773789 68.502225 
L 315.910247 69.640536 
L 316.321132 70.79147 
L 317.011004 71.967794 
L 317.987511 73.182553 
L 319.261485 74.44922 
L 320.847055 75.781842 
L 322.761805 77.195199 
L 325.026971 78.704966 
L 327.667675 80.327887 
L 330.713204 82.081961 
L 334.197335 83.986643 
L 338.158708 86.063055 
L 342.641258 88.334227 
L 347.694698 90.825347 
L 353.375074 93.564044 
L 359.745385 96.58069 
L 366.87628 99.908742 
L 374.846846 103.58511 
L 383.745481 107.650568 
" clip-path="url(#p08f5277a22)" style="fill: none; stroke: #d62728; stroke-width: 0.5; stroke-linecap: square"/>
   </g>
   <g id="line2d_103">
    <path d="M 314.798379 68.502225 
L 314.929428 69.850948 
L 315.324027 71.214629 
L 315.986553 72.608392 
L 316.924353 74.047695 
L 318.14783 75.5485 
L 319.67055 77.127453 
L 321.509403 78.802064 
L 323.684782 80.590906 
L 326.220813 82.513818 
L 329.145623 84.592127 
L 332.491649 86.848882 
L 336.296001 89.309112 
L 340.600871 92.000102 
L 345.454002 94.951697 
L 350.909218 98.196632 
L 357.027021 101.770894 
L 363.875261 105.714125 
L 371.529889 110.070056 
L 380.075798 114.886999 
" clip-path="url(#p08f5277a22)" style="fill: none; stroke: #d62728; stroke-width: 0.5; stroke-linecap: square"/>
   </g>
   <g id="line2d_104">
    <path d="M 313.661536 68.502225 
L 313.78628 70.052148 
L 314.161897 71.61926 
L 314.792552 73.220941 
L 315.685239 74.874956 
L 316.84986 76.599648 
L 318.29933 78.414145 
L 320.049724 80.33857 
L 322.120456 82.394268 
L 324.534491 84.604036 
L 327.318602 86.992383 
L 330.503667 89.585795 
L 334.12501 92.413037 
L 338.222793 95.505463 
L 342.842463 98.89737 
L 348.035255 102.626377 
L 353.85876 106.733839 
L 360.377564 111.265312 
L 367.663964 116.271052 
L 375.79877 121.806576 
" clip-path="url(#p08f5277a22)" style="fill: none; stroke: #d62728; stroke-width: 0.5; stroke-linecap: square"/>
   </g>
   <g id="line2d_105">
    <path d="M 312.371024 68.502225 
L 312.488613 70.24276 
L 312.842681 72.002597 
L 313.437157 73.801256 
L 314.278634 75.658684 
L 315.376443 77.595482 
L 316.742761 79.633128 
L 318.39274 81.794223 
L 320.34468 84.102734 
L 322.620228 86.584263 
L 325.244622 89.266332 
L 328.246969 92.178686 
L 331.660565 95.353626 
L 335.523269 98.826364 
L 339.877921 102.635413 
L 344.772817 106.823019 
L 350.262243 111.435624 
L 356.407081 116.524385 
L 363.27548 122.145739 
L 370.943615 128.362029 
" clip-path="url(#p08f5277a22)" style="fill: none; stroke: #d62728; stroke-width: 0.5; stroke-linecap: square"/>
   </g>
   <g id="line2d_106">
    <path d="M 310.935661 68.502225 
L 311.04529 70.421482 
L 311.375392 72.362024 
L 311.929628 74.345374 
L 312.714145 76.393527 
L 313.737644 78.529199 
L 315.011476 80.776077 
L 316.549769 83.159078 
L 318.369583 85.704632 
L 320.4911 88.44097 
L 322.93785 91.398441 
L 325.736969 94.609843 
L 328.9195 98.110794 
L 332.520739 101.94012 
L 336.580627 106.140292 
L 341.144189 110.757891 
L 346.262038 115.84413 
L 351.990935 121.455417 
L 358.394415 127.653985 
L 365.543497 134.50858 
" clip-path="url(#p08f5277a22)" style="fill: none; stroke: #d62728; stroke-width: 0.5; stroke-linecap: square"/>
   </g>
   <g id="line2d_107">
    <path d="M 309.36525 68.502225 
L 309.466171 70.587094 
L 309.770051 72.695084 
L 310.280261 74.849576 
L 311.00246 77.074464 
L 311.944658 79.394423 
L 313.117303 81.835182 
L 314.533401 84.423811 
L 316.208657 87.18902 
L 318.161652 90.161476 
L 320.414044 93.374145 
L 322.990814 96.862658 
L 325.92054 100.665705 
L 329.235715 104.825462 
L 332.973105 109.388065 
L 337.174159 114.404115 
L 341.885472 119.929243 
L 347.159292 126.024726 
L 353.054111 132.758166 
L 359.635304 140.20424 
" clip-path="url(#p08f5277a22)" style="fill: none; stroke: #d62728; stroke-width: 0.5; stroke-linecap: square"/>
   </g>
   <g id="line2d_108">
    <path d="M 307.67052 68.502225 
L 307.762042 70.738464 
L 308.037625 72.999503 
L 308.500324 75.31042 
L 309.155272 77.696844 
L 310.009731 80.185241 
L 311.073179 82.80321 
L 312.357409 85.579784 
L 313.876665 88.545759 
L 315.647795 91.734027 
L 317.690443 95.17995 
L 320.027263 98.921743 
L 322.684172 103.000906 
L 325.690635 107.462679 
L 329.079997 112.356546 
L 332.889847 117.736782 
L 337.162439 123.663057 
L 341.945158 130.201097 
L 347.291048 137.423413 
L 353.259397 145.410103 
" clip-path="url(#p08f5277a22)" style="fill: none; stroke: #d62728; stroke-width: 0.5; stroke-linecap: square"/>
   </g>
   <g id="line2d_109">
    <path d="M 305.863046 68.502225 
L 305.944546 70.874558 
L 306.189949 73.273201 
L 306.601976 75.724757 
L 307.185198 78.256415 
L 307.946083 80.896253 
L 308.893069 83.673547 
L 310.036658 86.6191 
L 311.389535 89.76558 
L 312.966703 93.147882 
L 314.785654 96.803518 
L 316.86656 100.773032 
L 319.232501 105.100447 
L 321.909717 109.833757 
L 324.927898 115.025458 
L 328.320518 120.733127 
L 332.125204 127.020067 
L 336.384151 133.956003 
L 341.144594 141.617858 
L 346.459328 150.090607 
" clip-path="url(#p08f5277a22)" style="fill: none; stroke: #d62728; stroke-width: 0.5; stroke-linecap: square"/>
   </g>
   <g id="line2d_110">
    <path d="M 303.955177 68.502225 
L 304.026097 70.994447 
L 304.239643 73.514309 
L 304.598184 76.089757 
L 305.105697 78.749356 
L 305.767809 81.522601 
L 306.591864 84.440249 
L 307.587001 87.53466 
L 308.764258 90.84015 
L 310.136689 94.393381 
L 311.719517 98.23376 
L 313.530296 102.403878 
L 315.589108 106.949985 
L 317.918787 111.922499 
L 320.54517 117.376568 
L 323.497386 123.372682 
L 326.808175 129.97734 
L 330.514257 137.263793 
L 334.656735 145.31285 
L 339.281549 154.21378 
" clip-path="url(#p08f5277a22)" style="fill: none; stroke: #d62728; stroke-width: 0.5; stroke-linecap: square"/>
   </g>
   <g id="line2d_111">
    <path d="M 301.959944 68.502225 
L 302.0198 71.097311 
L 302.200031 73.721178 
L 302.502636 76.402927 
L 302.930972 79.172298 
L 303.489789 82.060007 
L 304.185285 85.098079 
L 305.025172 88.320208 
L 306.018766 91.76213 
L 307.177086 95.462018 
L 308.512979 99.460905 
L 310.04126 103.803141 
L 311.77888 108.536885 
L 313.745108 113.714636 
L 315.961753 119.393818 
L 318.453397 125.637416 
L 321.247674 132.514677 
L 324.375575 140.101871 
L 327.871789 148.483147 
L 331.775092 157.751456 
" clip-path="url(#p08f5277a22)" style="fill: none; stroke: #d62728; stroke-width: 0.5; stroke-linecap: square"/>
   </g>
   <g id="line2d_112">
    <path d="M 299.890977 68.502225 
L 299.93936 71.182449 
L 300.085045 73.892397 
L 300.329648 76.662126 
L 300.675881 79.522353 
L 301.127585 82.504799 
L 301.68977 85.642541 
L 302.36867 88.97038 
L 303.171814 92.525221 
L 304.10811 96.346492 
L 305.187943 100.476571 
L 306.423287 104.961264 
L 307.827844 109.850308 
L 309.417191 115.197926 
L 311.208955 121.063426 
L 313.223007 127.511859 
L 315.481684 134.614743 
L 318.010037 142.450852 
L 320.836106 151.107093 
L 323.991234 160.679469 
" clip-path="url(#p08f5277a22)" style="fill: none; stroke: #d62728; stroke-width: 0.5; stroke-linecap: square"/>
   </g>
   <g id="line2d_113">
    <path d="M 297.762409 68.502225 
L 297.798988 71.249277 
L 297.909132 74.026796 
L 298.094061 76.865585 
L 298.355827 79.797129 
L 298.697333 82.853939 
L 299.122367 86.069918 
L 299.635642 89.480733 
L 300.24285 93.124211 
L 300.950727 97.040761 
L 301.767122 101.27382 
L 302.701091 105.870334 
L 303.762991 110.881282 
L 304.964599 116.362238 
L 306.319242 122.373988 
L 307.841944 128.983207 
L 309.549593 136.263194 
L 311.461126 144.294688 
L 313.597745 153.166764 
L 315.983145 162.977818 
" clip-path="url(#p08f5277a22)" style="fill: none; stroke: #d62728; stroke-width: 0.5; stroke-linecap: square"/>
   </g>
   <g id="line2d_114">
    <path d="M 295.588781 68.502225 
L 295.613306 71.297341 
L 295.687156 74.123456 
L 295.811149 77.011914 
L 295.986659 79.994749 
L 296.215634 83.105043 
L 296.500613 86.37729 
L 296.844757 89.847782 
L 297.251882 93.555008 
L 297.726503 97.540084 
L 298.273885 101.847206 
L 298.900098 106.524143 
L 299.612087 111.622764 
L 300.417748 117.199617 
L 301.326018 123.316551 
L 302.346968 130.041407 
L 303.491923 137.448768 
L 304.773579 145.620785 
L 306.206152 154.648091 
L 307.80553 164.630803 
" clip-path="url(#p08f5277a22)" style="fill: none; stroke: #d62728; stroke-width: 0.5; stroke-linecap: square"/>
   </g>
   <g id="line2d_115">
    <path d="M 293.38494 68.502225 
L 293.397245 71.326311 
L 293.434296 74.181718 
L 293.496505 77.100113 
L 293.584561 80.113864 
L 293.699441 83.256394 
L 293.842419 86.562557 
L 294.01508 90.069019 
L 294.21934 93.814669 
L 294.457464 97.841048 
L 294.732093 102.192811 
L 295.046273 106.918223 
L 295.403487 112.069689 
L 295.807699 117.704343 
L 296.26339 123.884677 
L 296.775614 130.679233 
L 297.350054 138.163368 
L 297.993078 146.420084 
L 298.711819 155.540954 
L 299.514249 165.627132 
" clip-path="url(#p08f5277a22)" style="fill: none; stroke: #d62728; stroke-width: 0.5; stroke-linecap: square"/>
   </g>
   <g id="line2d_116">
    <path d="M 291.165941 68.502225 
L 291.165941 71.33599 
L 291.165941 74.201183 
L 291.165941 77.12958 
L 291.165941 80.153659 
L 291.165941 83.30696 
L 291.165941 86.624454 
L 291.165941 90.142933 
L 291.165941 93.90142 
L 291.165941 97.941598 
L 291.165941 102.308276 
L 291.165941 107.049882 
L 291.165941 112.219004 
L 291.165941 117.872969 
L 291.165941 124.074484 
L 291.165941 130.892327 
L 291.165941 138.402111 
L 291.165941 146.687125 
L 291.165941 155.839254 
L 291.165941 165.96 
" clip-path="url(#p08f5277a22)" style="fill: none; stroke: #d62728; stroke-width: 0.5; stroke-linecap: square"/>
   </g>
   <g id="patch_10">
    <path d="M 286.111222 173.52 
L 286.111222 7.2 
" style="fill: none; stroke: #000000; stroke-width: 0.8; stroke-linejoin: miter; stroke-linecap: square"/>
   </g>
   <g id="patch_11">
    <path d="M 397.315044 173.52 
L 397.315044 7.2 
" style="fill: none; stroke: #000000; stroke-width: 0.8; stroke-linejoin: miter; stroke-linecap: square"/>
   </g>
   <g id="patch_12">
    <path d="M 286.111222 173.52 
L 397.315044 173.52 
" style="fill: none; stroke: #000000; stroke-width: 0.8; stroke-linejoin: miter; stroke-linecap: square"/>
   </g>
   <g id="patch_13">
    <path d="M 286.111222 7.2 
L 397.315044 7.2 
" style="fill: none; stroke: #000000; stroke-width: 0.8; stroke-linejoin: miter; stroke-linecap: square"/>
   </g>
  </g>
 </g>
 <defs>
  <clipPath id="pccc69413f9">
   <rect x="42.620313" y="7.2" width="111.203823" height="166.32"/>
  </clipPath>
  <clipPath id="p08f5277a22">
   <rect x="286.111222" y="7.2" width="111.203823" height="166.32"/>
  </clipPath>
 </defs>
</svg>
