<?xml version="1.0" encoding="utf-8" standalone="no"?>
<!DOCTYPE svg PUBLIC "-//W3C//DTD SVG 1.1//EN"
  "http://www.w3.org/Graphics/SVG/1.1/DTD/svg11.dtd">
<svg xmlns:xlink="http://www.w3.org/1999/xlink" width="324pt" height="252pt" viewBox="0 0 324 252" xmlns="http://www.w3.org/2000/svg" version="1.1">
 <metadata>
  <rdf:RDF xmlns:dc="http://purl.org/dc/elements/1.1/" xmlns:cc="http://creativecommons.org/ns#" xmlns:rdf="http://www.w3.org/1999/02/22-rdf-syntax-ns#">
   <cc:Work>
    <dc:type rdf:resource="http://purl.org/dc/dcmitype/StillImage"/>
    <dc:date>2026-04-14T21:41:59.382657</dc:date>
    <dc:format>image/svg+xml</dc:format>
    <dc:creator>
     <cc:Agent>
      <dc:title>Matplotlib v3.10.8, https://matplotlib.org/</dc:title>
     </cc:Agent>
    </dc:creator>
   </cc:Work>
  </rdf:RDF>
 </metadata>
 <defs>
  <style type="text/css">*{stroke-linejoin: round; stroke-linecap: butt}</style>
 </defs>
 <g id="figure_1">
  <g id="patch_1">
   <path d="M 0 252 
L 324 252 
L 324 0 
L 0 0 
z
" style="fill: #ffffff"/>
  </g>
  <g id="axes_1">
   <g id="patch_2">
    <path d="M 47.961178 218.64351 
L 320.99976 218.64351 
L 320.99976 28.248991 
L 47.961178 28.248991 
z
" style="fill: #ffffff"/>
   </g>
   <g id="patch_3">
    <path d="M 288.227678 140.754637 
L 288.225622 140.100814 
L 288.219454 139.447016 
L 288.209173 138.79327 
L 288.194782 138.139601 
L 288.176279 137.486037 
L 288.153667 136.832601 
L 288.126945 136.179322 
L 288.096115 135.526223 
L 288.061178 134.873332 
L 288.022135 134.220674 
L 287.978989 133.568275 
L 287.93174 132.916161 
L 287.88039 132.264358 
L 287.824942 131.612891 
L 287.765398 130.961786 
L 287.70176 130.31107 
L 287.634031 129.660767 
L 287.562213 129.010904 
L 287.486309 128.361507 
L 287.406322 127.712601 
L 287.322256 127.064212 
L 287.234113 126.416365 
L 287.141898 125.769087 
L 287.045613 125.122403 
L 286.945264 124.476338 
L 286.840852 123.830919 
L 286.732384 123.186171 
L 286.619862 122.542118 
L 286.503292 121.898788 
L 286.382679 121.256205 
L 286.258026 120.614395 
L 286.129339 119.973383 
L 285.996623 119.333195 
L 285.859883 118.693856 
L 285.719125 118.055392 
L 285.574355 117.417827 
L 285.425577 116.781187 
L 285.272798 116.145497 
L 285.116024 115.510783 
L 284.955261 114.877069 
L 284.790515 114.244381 
L 284.621794 113.612744 
L 284.449103 112.982183 
L 284.27245 112.352722 
L 284.091842 111.724388 
L 283.907285 111.097203 
L 283.718788 110.471195 
L 283.526356 109.846387 
L 283.329999 109.222803 
L 283.129724 108.60047 
L 282.925539 107.979411 
L 282.717452 107.359651 
L 282.505471 106.741215 
L 282.289605 106.124127 
L 282.069861 105.508412 
L 281.84625 104.894094 
L 281.618779 104.281197 
L 281.387459 103.669746 
L 281.152297 103.059765 
L 280.913303 102.451278 
L 280.670487 101.844309 
L 280.423858 101.238882 
L 280.173427 100.635022 
L 279.919203 100.032751 
L 279.661195 99.432095 
L 279.399415 98.833077 
L 279.133873 98.235721 
L 278.864579 97.640049 
L 278.591544 97.046087 
L 278.314779 96.453857 
L 278.034294 95.863383 
L 277.750102 95.274689 
L 277.462212 94.687797 
L 277.170637 94.102731 
L 276.875388 93.519514 
L 276.576477 92.938169 
L 276.273915 92.35872 
L 275.967715 91.781189 
L 275.657889 91.205599 
L 275.344448 90.631973 
L 275.027407 90.060334 
L 274.706776 89.490704 
L 274.382569 88.923106 
L 274.054798 88.357562 
L 273.723477 87.794096 
L 273.388619 87.232728 
L 273.050237 86.673482 
L 272.708344 86.116379 
L 272.362954 85.561443 
L 272.014081 85.008693 
L 271.661738 84.458154 
L 271.30594 83.909846 
L 270.9467 83.363791 
L 270.584033 82.82001 
L 270.217953 82.278526 
L 269.848475 81.73936 
L 269.475613 81.202533 
L 269.099382 80.668067 
L 268.719797 80.135982 
L 268.336873 79.6063 
L 267.950625 79.079042 
L 267.561069 78.554228 
L 267.16822 78.031879 
L 266.772093 77.512017 
L 266.372705 76.994662 
L 265.97007 76.479833 
L 265.564206 75.967553 
L 265.155128 75.45784 
L 264.742852 74.950715 
L 264.327395 74.446199 
L 263.908772 73.944311 
L 263.487002 73.445071 
L 263.0621 72.948499 
L 262.634083 72.454614 
L 262.202969 71.963437 
L 261.768774 71.474987 
L 261.331515 70.989282 
L 260.891211 70.506343 
L 260.447877 70.026188 
L 260.001533 69.548837 
L 259.552195 69.074308 
L 259.099882 68.60262 
L 258.644611 68.133792 
L 258.1864 67.667842 
L 257.725268 67.204789 
L 257.261233 66.744652 
L 256.794312 66.287448 
L 256.324526 65.833196 
L 255.851892 65.381913 
L 255.376429 64.933618 
L 254.898156 64.488328 
L 254.417092 64.046061 
L 253.933256 63.606835 
L 253.446666 63.170667 
L 252.957344 62.737573 
L 252.465307 62.307572 
L 251.970575 61.880681 
L 251.473169 61.456915 
L 250.973106 61.036293 
L 250.470409 60.618831 
L 249.965096 60.204545 
L 249.457187 59.793451 
L 248.946703 59.385567 
L 248.433663 58.980908 
L 247.918089 58.57949 
L 247.4 58.181329 
L 246.879417 57.786441 
L 246.356361 57.394842 
L 245.830852 57.006547 
L 245.302912 56.621571 
L 244.772561 56.23993 
L 244.23982 55.861639 
L 243.70471 55.486713 
L 243.167253 55.115167 
L 242.62747 54.747015 
L 242.085382 54.382272 
L 241.541011 54.020952 
L 240.994378 53.663071 
L 240.445505 53.308641 
L 239.894414 52.957678 
L 239.341126 52.610194 
L 238.785664 52.266205 
L 238.22805 51.925722 
L 237.668305 51.588761 
L 237.106452 51.255334 
L 236.542513 50.925454 
L 235.97651 50.599135 
L 235.408466 50.276389 
L 234.838404 49.95723 
L 234.266346 49.641669 
L 233.692314 49.32972 
L 233.116331 49.021394 
L 232.538421 48.716705 
L 231.958606 48.415664 
L 231.37691 48.118282 
L 230.793354 47.824573 
L 230.207963 47.534547 
L 229.620759 47.248216 
L 229.031766 46.965591 
L 228.441007 46.686683 
L 227.848505 46.411505 
L 227.254285 46.140065 
L 226.658369 45.872376 
L 226.060782 45.608448 
L 225.461546 45.348291 
L 224.860686 45.091915 
L 224.258226 44.839331 
L 223.654189 44.590549 
L 223.048599 44.345579 
L 222.44148 44.10443 
L 221.832857 43.867112 
L 221.222753 43.633634 
L 220.611193 43.404006 
L 219.998201 43.178236 
L 219.383801 42.956334 
L 218.768017 42.738309 
L 218.150875 42.524168 
L 217.532398 42.313921 
L 216.91261 42.107576 
L 216.291538 41.905141 
L 215.669204 41.706624 
L 215.045634 41.512033 
L 214.420853 41.321375 
L 213.794885 41.134659 
L 213.167755 40.951891 
L 212.539488 40.773079 
L 211.910109 40.59823 
L 211.279643 40.427351 
L 210.648114 40.260449 
L 210.015548 40.09753 
L 209.38197 39.9386 
L 208.747405 39.783667 
L 208.111878 39.632736 
L 207.475415 39.485813 
L 206.83804 39.342904 
L 206.199779 39.204014 
L 205.560657 39.06915 
L 204.920699 38.938316 
L 204.279932 38.811517 
L 203.638379 38.68876 
L 202.996067 38.570048 
L 202.353021 38.455386 
L 201.709267 38.344779 
L 201.06483 38.238231 
L 200.419736 38.135747 
L 199.77401 38.03733 
L 199.127677 37.942985 
L 198.480764 37.852714 
L 197.833296 37.766522 
L 197.185299 37.684413 
L 196.536798 37.606389 
L 195.88782 37.532453 
L 195.238389 37.462608 
L 194.588532 37.396858 
L 193.938274 37.335205 
L 193.287642 37.27765 
L 192.63666 37.224197 
L 191.985355 37.174848 
L 191.333752 37.129605 
L 190.681878 37.088468 
L 190.029758 37.051441 
L 189.377418 37.018524 
L 188.724884 36.989719 
L 188.072182 36.965027 
L 187.419337 36.944448 
L 186.766376 36.927985 
L 186.113325 36.915636 
L 185.460208 36.907404 
L 184.807053 36.903288 
L 184.153885 36.903288 
L 183.500729 36.907404 
L 182.847613 36.915636 
L 182.194561 36.927985 
L 181.5416 36.944448 
L 180.888756 36.965027 
L 180.236053 36.989719 
L 179.583519 37.018524 
L 178.931179 37.051441 
L 178.279059 37.088468 
L 177.627185 37.129605 
L 176.975583 37.174848 
L 176.324278 37.224197 
L 175.673296 37.27765 
L 175.022663 37.335205 
L 174.372406 37.396858 
L 173.722548 37.462608 
L 173.073118 37.532453 
L 172.424139 37.606389 
L 171.775638 37.684413 
L 171.127641 37.766522 
L 170.480173 37.852714 
L 169.83326 37.942985 
L 169.186928 38.03733 
L 168.541202 38.135747 
L 167.896107 38.238231 
L 167.25167 38.344779 
L 166.607916 38.455386 
L 165.96487 38.570048 
L 165.322558 38.68876 
L 164.681006 38.811517 
L 164.040238 38.938316 
L 163.400281 39.06915 
L 162.761159 39.204014 
L 162.122898 39.342904 
L 161.485523 39.485813 
L 160.849059 39.632736 
L 160.213532 39.783667 
L 159.578967 39.9386 
L 158.945389 40.09753 
L 158.312824 40.260449 
L 157.681295 40.427351 
L 157.050829 40.59823 
L 156.421449 40.773079 
L 155.793182 40.951891 
L 155.166052 41.134659 
L 154.540084 41.321375 
L 153.915303 41.512033 
L 153.291733 41.706624 
L 152.6694 41.905141 
L 152.048327 42.107576 
L 151.42854 42.313921 
L 150.810063 42.524168 
L 150.19292 42.738309 
L 149.577137 42.956334 
L 148.962737 43.178236 
L 148.349745 43.404006 
L 147.738184 43.633634 
L 147.128081 43.867112 
L 146.519457 44.10443 
L 145.912339 44.345579 
L 145.306749 44.590549 
L 144.702712 44.839331 
L 144.100251 45.091915 
L 143.499391 45.348291 
L 142.900156 45.608448 
L 142.302568 45.872376 
L 141.706652 46.140065 
L 141.112432 46.411505 
L 140.519931 46.686683 
L 139.929172 46.965591 
L 139.340179 47.248216 
L 138.752975 47.534547 
L 138.167584 47.824573 
L 137.584028 48.118282 
L 137.002331 48.415664 
L 136.422516 48.716705 
L 135.844606 49.021394 
L 135.268624 49.32972 
L 134.694592 49.641669 
L 134.122534 49.95723 
L 133.552471 50.276389 
L 132.984427 50.599135 
L 132.418425 50.925454 
L 131.854486 51.255334 
L 131.292633 51.588761 
L 130.732888 51.925722 
L 130.175273 52.266205 
L 129.619811 52.610194 
L 129.066523 52.957678 
L 128.515432 53.308641 
L 127.966559 53.663071 
L 127.419926 54.020952 
L 126.875555 54.382272 
L 126.333467 54.747015 
L 125.793684 55.115167 
L 125.256227 55.486713 
L 124.721118 55.861639 
L 124.188377 56.23993 
L 123.658025 56.621571 
L 123.130085 57.006547 
L 122.604577 57.394842 
L 122.08152 57.786441 
L 121.560938 58.181329 
L 121.042849 58.57949 
L 120.527274 58.980908 
L 120.014235 59.385567 
L 119.503751 59.793451 
L 118.995842 60.204545 
L 118.490529 60.618831 
L 117.987831 61.036293 
L 117.487769 61.456915 
L 116.990362 61.880681 
L 116.495631 62.307572 
L 116.003594 62.737573 
L 115.514271 63.170667 
L 115.027682 63.606835 
L 114.543846 64.046061 
L 114.062782 64.488328 
L 113.584508 64.933618 
L 113.109045 65.381913 
L 112.636411 65.833196 
L 112.166625 66.287448 
L 111.699705 66.744652 
L 111.23567 67.204789 
L 110.774537 67.667842 
L 110.316327 68.133792 
L 109.861056 68.60262 
L 109.408742 69.074308 
L 108.959404 69.548837 
L 108.51306 70.026188 
L 108.069727 70.506343 
L 107.629422 70.989282 
L 107.192164 71.474987 
L 106.757968 71.963437 
L 106.326854 72.454614 
L 105.898837 72.948499 
L 105.473935 73.445071 
L 105.052165 73.944311 
L 104.633543 74.446199 
L 104.218086 74.950715 
L 103.80581 75.45784 
L 103.396732 75.967553 
L 102.990867 76.479833 
L 102.588233 76.994662 
L 102.188844 77.512017 
L 101.792718 78.031879 
L 101.399868 78.554228 
L 101.010312 79.079042 
L 100.624065 79.6063 
L 100.241141 80.135982 
L 99.861556 80.668067 
L 99.485325 81.202533 
L 99.112463 81.73936 
L 98.742985 82.278526 
L 98.376905 82.82001 
L 98.014238 83.363791 
L 97.654998 83.909846 
L 97.299199 84.458154 
L 96.946857 85.008693 
L 96.597983 85.561443 
L 96.252593 86.116379 
L 95.910701 86.673482 
L 95.572318 87.232728 
L 95.23746 87.794096 
L 94.906139 88.357562 
L 94.578369 88.923106 
L 94.254162 89.490704 
L 93.933531 90.060334 
L 93.616489 90.631973 
L 93.303049 91.205599 
L 92.993223 91.781189 
L 92.687023 92.35872 
L 92.384461 92.938169 
L 92.08555 93.519514 
L 91.790301 94.102731 
L 91.498726 94.687797 
L 91.210836 95.274689 
L 90.926643 95.863383 
L 90.646159 96.453857 
L 90.369393 97.046087 
L 90.096358 97.640049 
L 89.827064 98.235721 
L 89.561522 98.833077 
L 89.299742 99.432095 
L 89.041735 100.032751 
L 88.78751 100.635022 
L 88.537079 101.238882 
L 88.29045 101.844309 
L 88.047634 102.451278 
L 87.808641 103.059765 
L 87.573479 103.669746 
L 87.342158 104.281197 
L 87.114687 104.894094 
L 86.891076 105.508412 
L 86.671333 106.124127 
L 86.455467 106.741215 
L 86.243485 107.359651 
L 86.035398 107.979411 
L 85.831213 108.60047 
L 85.630938 109.222803 
L 85.434581 109.846387 
L 85.24215 110.471195 
L 85.053652 111.097203 
L 84.869095 111.724388 
L 84.688487 112.352722 
L 84.511834 112.982183 
L 84.339143 113.612744 
L 84.170422 114.244381 
L 84.005677 114.877069 
L 83.844914 115.510783 
L 83.68814 116.145497 
L 83.535361 116.781187 
L 83.386583 117.417827 
L 83.241812 118.055392 
L 83.101054 118.693856 
L 82.964314 119.333195 
L 82.831598 119.973383 
L 82.702912 120.614395 
L 82.578259 121.256205 
L 82.457645 121.898788 
L 82.341075 122.542118 
L 82.228554 123.186171 
L 82.120085 123.830919 
L 82.015674 124.476338 
L 81.915324 125.122403 
L 81.819039 125.769087 
L 81.726824 126.416365 
L 81.638681 127.064212 
L 81.554615 127.712601 
L 81.474629 128.361507 
L 81.398725 129.010904 
L 81.326907 129.660767 
L 81.259177 130.31107 
L 81.195539 130.961786 
L 81.135995 131.612891 
L 81.080547 132.264358 
L 81.029198 132.916161 
L 80.981949 133.568275 
L 80.938802 134.220674 
L 80.89976 134.873332 
L 80.864822 135.526223 
L 80.833992 136.179322 
L 80.807271 136.832601 
L 80.784658 137.486037 
L 80.766156 138.139601 
L 80.751764 138.79327 
L 80.741484 139.447016 
L 80.735316 140.100814 
L 80.73326 140.754637 
z
" clip-path="url(#pb3baf91fc2)" style="fill: #0000ff; opacity: 0.1"/>
   </g>
   <g id="matplotlib.axis_1">
    <g id="xtick_1">
     <g id="line2d_1">
      <path d="M 80.73326 218.64351 
L 80.73326 28.248991 
" clip-path="url(#pb3baf91fc2)" style="fill: none; stroke-dasharray: 0.8,1.32; stroke-dashoffset: 0; stroke: #b0b0b0; stroke-opacity: 0.6; stroke-width: 0.8"/>
     </g>
     <g id="line2d_2">
      <defs>
       <path id="mb5c7edadbb" d="M 0 0 
L 0 3.5 
" style="stroke: #000000; stroke-width: 0.8"/>
      </defs>
      <g>
       <use xlink:href="#mb5c7edadbb" x="80.73326" y="218.64351" style="stroke: #000000; stroke-width: 0.8"/>
      </g>
     </g>
     <g id="text_1">
      <!-- −1.5 -->
      <g transform="translate(68.591853 233.241948) scale(0.1 -0.1)">
       <defs>
        <path id="DejaVuSans-2212" d="M 678 2272 
L 4684 2272 
L 4684 1741 
L 678 1741 
L 678 2272 
z
" transform="scale(0.015625)"/>
        <path id="DejaVuSans-31" d="M 794 531 
L 1825 531 
L 1825 4091 
L 703 3866 
L 703 4441 
L 1819 4666 
L 2450 4666 
L 2450 531 
L 3481 531 
L 3481 0 
L 794 0 
L 794 531 
z
" transform="scale(0.015625)"/>
        <path id="DejaVuSans-2e" d="M 684 794 
L 1344 794 
L 1344 0 
L 684 0 
L 684 794 
z
" transform="scale(0.015625)"/>
        <path id="DejaVuSans-35" d="M 691 4666 
L 3169 4666 
L 3169 4134 
L 1269 4134 
L 1269 2991 
Q 1406 3038 1543 3061 
Q 1681 3084 1819 3084 
Q 2600 3084 3056 2656 
Q 3513 2228 3513 1497 
Q 3513 744 3044 326 
Q 2575 -91 1722 -91 
Q 1428 -91 1123 -41 
Q 819 9 494 109 
L 494 744 
Q 775 591 1075 516 
Q 1375 441 1709 441 
Q 2250 441 2565 725 
Q 2881 1009 2881 1497 
Q 2881 1984 2565 2268 
Q 2250 2553 1709 2553 
Q 1456 2553 1204 2497 
Q 953 2441 691 2322 
L 691 4666 
z
" transform="scale(0.015625)"/>
       </defs>
       <use xlink:href="#DejaVuSans-2212"/>
       <use xlink:href="#DejaVuSans-31" transform="translate(83.789062 0)"/>
       <use xlink:href="#DejaVuSans-2e" transform="translate(147.412109 0)"/>
       <use xlink:href="#DejaVuSans-35" transform="translate(179.199219 0)"/>
      </g>
     </g>
    </g>
    <g id="xtick_2">
     <g id="line2d_3">
      <path d="M 115.315663 218.64351 
L 115.315663 28.248991 
" clip-path="url(#pb3baf91fc2)" style="fill: none; stroke-dasharray: 0.8,1.32; stroke-dashoffset: 0; stroke: #b0b0b0; stroke-opacity: 0.6; stroke-width: 0.8"/>
     </g>
     <g id="line2d_4">
      <g>
       <use xlink:href="#mb5c7edadbb" x="115.315663" y="218.64351" style="stroke: #000000; stroke-width: 0.8"/>
      </g>
     </g>
     <g id="text_2">
      <!-- −1.0 -->
      <g transform="translate(103.174256 233.241948) scale(0.1 -0.1)">
       <defs>
        <path id="DejaVuSans-30" d="M 2034 4250 
Q 1547 4250 1301 3770 
Q 1056 3291 1056 2328 
Q 1056 1369 1301 889 
Q 1547 409 2034 409 
Q 2525 409 2770 889 
Q 3016 1369 3016 2328 
Q 3016 3291 2770 3770 
Q 2525 4250 2034 4250 
z
M 2034 4750 
Q 2819 4750 3233 4129 
Q 3647 3509 3647 2328 
Q 3647 1150 3233 529 
Q 2819 -91 2034 -91 
Q 1250 -91 836 529 
Q 422 1150 422 2328 
Q 422 3509 836 4129 
Q 1250 4750 2034 4750 
z
" transform="scale(0.015625)"/>
       </defs>
       <use xlink:href="#DejaVuSans-2212"/>
       <use xlink:href="#DejaVuSans-31" transform="translate(83.789062 0)"/>
       <use xlink:href="#DejaVuSans-2e" transform="translate(147.412109 0)"/>
       <use xlink:href="#DejaVuSans-30" transform="translate(179.199219 0)"/>
      </g>
     </g>
    </g>
    <g id="xtick_3">
     <g id="line2d_5">
      <path d="M 149.898066 218.64351 
L 149.898066 28.248991 
" clip-path="url(#pb3baf91fc2)" style="fill: none; stroke-dasharray: 0.8,1.32; stroke-dashoffset: 0; stroke: #b0b0b0; stroke-opacity: 0.6; stroke-width: 0.8"/>
     </g>
     <g id="line2d_6">
      <g>
       <use xlink:href="#mb5c7edadbb" x="149.898066" y="218.64351" style="stroke: #000000; stroke-width: 0.8"/>
      </g>
     </g>
     <g id="text_3">
      <!-- −0.5 -->
      <g transform="translate(137.756659 233.241948) scale(0.1 -0.1)">
       <use xlink:href="#DejaVuSans-2212"/>
       <use xlink:href="#DejaVuSans-30" transform="translate(83.789062 0)"/>
       <use xlink:href="#DejaVuSans-2e" transform="translate(147.412109 0)"/>
       <use xlink:href="#DejaVuSans-35" transform="translate(179.199219 0)"/>
      </g>
     </g>
    </g>
    <g id="xtick_4">
     <g id="line2d_7">
      <path d="M 184.480469 218.64351 
L 184.480469 28.248991 
" clip-path="url(#pb3baf91fc2)" style="fill: none; stroke-dasharray: 0.8,1.32; stroke-dashoffset: 0; stroke: #b0b0b0; stroke-opacity: 0.6; stroke-width: 0.8"/>
     </g>
     <g id="line2d_8">
      <g>
       <use xlink:href="#mb5c7edadbb" x="184.480469" y="218.64351" style="stroke: #000000; stroke-width: 0.8"/>
      </g>
     </g>
     <g id="text_4">
      <!-- 0.0 -->
      <g transform="translate(176.528906 233.241948) scale(0.1 -0.1)">
       <use xlink:href="#DejaVuSans-30"/>
       <use xlink:href="#DejaVuSans-2e" transform="translate(63.623047 0)"/>
       <use xlink:href="#DejaVuSans-30" transform="translate(95.410156 0)"/>
      </g>
     </g>
    </g>
    <g id="xtick_5">
     <g id="line2d_9">
      <path d="M 219.062872 218.64351 
L 219.062872 28.248991 
" clip-path="url(#pb3baf91fc2)" style="fill: none; stroke-dasharray: 0.8,1.32; stroke-dashoffset: 0; stroke: #b0b0b0; stroke-opacity: 0.6; stroke-width: 0.8"/>
     </g>
     <g id="line2d_10">
      <g>
       <use xlink:href="#mb5c7edadbb" x="219.062872" y="218.64351" style="stroke: #000000; stroke-width: 0.8"/>
      </g>
     </g>
     <g id="text_5">
      <!-- 0.5 -->
      <g transform="translate(211.111309 233.241948) scale(0.1 -0.1)">
       <use xlink:href="#DejaVuSans-30"/>
       <use xlink:href="#DejaVuSans-2e" transform="translate(63.623047 0)"/>
       <use xlink:href="#DejaVuSans-35" transform="translate(95.410156 0)"/>
      </g>
     </g>
    </g>
    <g id="xtick_6">
     <g id="line2d_11">
      <path d="M 253.645275 218.64351 
L 253.645275 28.248991 
" clip-path="url(#pb3baf91fc2)" style="fill: none; stroke-dasharray: 0.8,1.32; stroke-dashoffset: 0; stroke: #b0b0b0; stroke-opacity: 0.6; stroke-width: 0.8"/>
     </g>
     <g id="line2d_12">
      <g>
       <use xlink:href="#mb5c7edadbb" x="253.645275" y="218.64351" style="stroke: #000000; stroke-width: 0.8"/>
      </g>
     </g>
     <g id="text_6">
      <!-- 1.0 -->
      <g transform="translate(245.693712 233.241948) scale(0.1 -0.1)">
       <use xlink:href="#DejaVuSans-31"/>
       <use xlink:href="#DejaVuSans-2e" transform="translate(63.623047 0)"/>
       <use xlink:href="#DejaVuSans-30" transform="translate(95.410156 0)"/>
      </g>
     </g>
    </g>
    <g id="xtick_7">
     <g id="line2d_13">
      <path d="M 288.227678 218.64351 
L 288.227678 28.248991 
" clip-path="url(#pb3baf91fc2)" style="fill: none; stroke-dasharray: 0.8,1.32; stroke-dashoffset: 0; stroke: #b0b0b0; stroke-opacity: 0.6; stroke-width: 0.8"/>
     </g>
     <g id="line2d_14">
      <g>
       <use xlink:href="#mb5c7edadbb" x="288.227678" y="218.64351" style="stroke: #000000; stroke-width: 0.8"/>
      </g>
     </g>
     <g id="text_7">
      <!-- 1.5 -->
      <g transform="translate(280.276115 233.241948) scale(0.1 -0.1)">
       <use xlink:href="#DejaVuSans-31"/>
       <use xlink:href="#DejaVuSans-2e" transform="translate(63.623047 0)"/>
       <use xlink:href="#DejaVuSans-35" transform="translate(95.410156 0)"/>
      </g>
     </g>
    </g>
    <g id="text_8">
     <!-- Re($z$) -->
     <g transform="translate(171.380469 246.920073) scale(0.1 -0.1)">
      <defs>
       <path id="DejaVuSans-52" d="M 2841 2188 
Q 3044 2119 3236 1894 
Q 3428 1669 3622 1275 
L 4263 0 
L 3584 0 
L 2988 1197 
Q 2756 1666 2539 1819 
Q 2322 1972 1947 1972 
L 1259 1972 
L 1259 0 
L 628 0 
L 628 4666 
L 2053 4666 
Q 2853 4666 3247 4331 
Q 3641 3997 3641 3322 
Q 3641 2881 3436 2590 
Q 3231 2300 2841 2188 
z
M 1259 4147 
L 1259 2491 
L 2053 2491 
Q 2509 2491 2742 2702 
Q 2975 2913 2975 3322 
Q 2975 3731 2742 3939 
Q 2509 4147 2053 4147 
L 1259 4147 
z
" transform="scale(0.015625)"/>
       <path id="DejaVuSans-65" d="M 3597 1894 
L 3597 1613 
L 953 1613 
Q 991 1019 1311 708 
Q 1631 397 2203 397 
Q 2534 397 2845 478 
Q 3156 559 3463 722 
L 3463 178 
Q 3153 47 2828 -22 
Q 2503 -91 2169 -91 
Q 1331 -91 842 396 
Q 353 884 353 1716 
Q 353 2575 817 3079 
Q 1281 3584 2069 3584 
Q 2775 3584 3186 3129 
Q 3597 2675 3597 1894 
z
M 3022 2063 
Q 3016 2534 2758 2815 
Q 2500 3097 2075 3097 
Q 1594 3097 1305 2825 
Q 1016 2553 972 2059 
L 3022 2063 
z
" transform="scale(0.015625)"/>
       <path id="DejaVuSans-28" d="M 1984 4856 
Q 1566 4138 1362 3434 
Q 1159 2731 1159 2009 
Q 1159 1288 1364 580 
Q 1569 -128 1984 -844 
L 1484 -844 
Q 1016 -109 783 600 
Q 550 1309 550 2009 
Q 550 2706 781 3412 
Q 1013 4119 1484 4856 
L 1984 4856 
z
" transform="scale(0.015625)"/>
       <path id="DejaVuSans-Oblique-7a" d="M 744 3500 
L 3475 3500 
L 3372 2975 
L 738 459 
L 2913 459 
L 2822 0 
L -19 0 
L 84 525 
L 2719 3041 
L 653 3041 
L 744 3500 
z
" transform="scale(0.015625)"/>
       <path id="DejaVuSans-29" d="M 513 4856 
L 1013 4856 
Q 1481 4119 1714 3412 
Q 1947 2706 1947 2009 
Q 1947 1309 1714 600 
Q 1481 -109 1013 -844 
L 513 -844 
Q 928 -128 1133 580 
Q 1338 1288 1338 2009 
Q 1338 2731 1133 3434 
Q 928 4138 513 4856 
z
" transform="scale(0.015625)"/>
      </defs>
      <use xlink:href="#DejaVuSans-52" transform="translate(0 0.125)"/>
      <use xlink:href="#DejaVuSans-65" transform="translate(69.482422 0.125)"/>
      <use xlink:href="#DejaVuSans-28" transform="translate(131.005859 0.125)"/>
      <use xlink:href="#DejaVuSans-Oblique-7a" transform="translate(170.019531 0.125)"/>
      <use xlink:href="#DejaVuSans-29" transform="translate(222.509766 0.125)"/>
     </g>
    </g>
   </g>
   <g id="matplotlib.axis_2">
    <g id="ytick_1">
     <g id="line2d_15">
      <path d="M 47.961178 209.989214 
L 320.99976 209.989214 
" clip-path="url(#pb3baf91fc2)" style="fill: none; stroke-dasharray: 0.8,1.32; stroke-dashoffset: 0; stroke: #b0b0b0; stroke-opacity: 0.6; stroke-width: 0.8"/>
     </g>
     <g id="line2d_16">
      <defs>
       <path id="m8206d22e78" d="M 0 0 
L -3.5 0 
" style="stroke: #000000; stroke-width: 0.8"/>
      </defs>
      <g>
       <use xlink:href="#m8206d22e78" x="47.961178" y="209.989214" style="stroke: #000000; stroke-width: 0.8"/>
      </g>
     </g>
     <g id="text_9">
      <!-- −1.0 -->
      <g transform="translate(16.678365 213.788432) scale(0.1 -0.1)">
       <use xlink:href="#DejaVuSans-2212"/>
       <use xlink:href="#DejaVuSans-31" transform="translate(83.789062 0)"/>
       <use xlink:href="#DejaVuSans-2e" transform="translate(147.412109 0)"/>
       <use xlink:href="#DejaVuSans-30" transform="translate(179.199219 0)"/>
      </g>
     </g>
    </g>
    <g id="ytick_2">
     <g id="line2d_17">
      <path d="M 47.961178 175.371926 
L 320.99976 175.371926 
" clip-path="url(#pb3baf91fc2)" style="fill: none; stroke-dasharray: 0.8,1.32; stroke-dashoffset: 0; stroke: #b0b0b0; stroke-opacity: 0.6; stroke-width: 0.8"/>
     </g>
     <g id="line2d_18">
      <g>
       <use xlink:href="#m8206d22e78" x="47.961178" y="175.371926" style="stroke: #000000; stroke-width: 0.8"/>
      </g>
     </g>
     <g id="text_10">
      <!-- −0.5 -->
      <g transform="translate(16.678365 179.171144) scale(0.1 -0.1)">
       <use xlink:href="#DejaVuSans-2212"/>
       <use xlink:href="#DejaVuSans-30" transform="translate(83.789062 0)"/>
       <use xlink:href="#DejaVuSans-2e" transform="translate(147.412109 0)"/>
       <use xlink:href="#DejaVuSans-35" transform="translate(179.199219 0)"/>
      </g>
     </g>
    </g>
    <g id="ytick_3">
     <g id="line2d_19">
      <path d="M 47.961178 140.754637 
L 320.99976 140.754637 
" clip-path="url(#pb3baf91fc2)" style="fill: none; stroke-dasharray: 0.8,1.32; stroke-dashoffset: 0; stroke: #b0b0b0; stroke-opacity: 0.6; stroke-width: 0.8"/>
     </g>
     <g id="line2d_20">
      <g>
       <use xlink:href="#m8206d22e78" x="47.961178" y="140.754637" style="stroke: #000000; stroke-width: 0.8"/>
      </g>
     </g>
     <g id="text_11">
      <!-- 0.0 -->
      <g transform="translate(25.058053 144.553856) scale(0.1 -0.1)">
       <use xlink:href="#DejaVuSans-30"/>
       <use xlink:href="#DejaVuSans-2e" transform="translate(63.623047 0)"/>
       <use xlink:href="#DejaVuSans-30" transform="translate(95.410156 0)"/>
      </g>
     </g>
    </g>
    <g id="ytick_4">
     <g id="line2d_21">
      <path d="M 47.961178 106.137349 
L 320.99976 106.137349 
" clip-path="url(#pb3baf91fc2)" style="fill: none; stroke-dasharray: 0.8,1.32; stroke-dashoffset: 0; stroke: #b0b0b0; stroke-opacity: 0.6; stroke-width: 0.8"/>
     </g>
     <g id="line2d_22">
      <g>
       <use xlink:href="#m8206d22e78" x="47.961178" y="106.137349" style="stroke: #000000; stroke-width: 0.8"/>
      </g>
     </g>
     <g id="text_12">
      <!-- 0.5 -->
      <g transform="translate(25.058053 109.936568) scale(0.1 -0.1)">
       <use xlink:href="#DejaVuSans-30"/>
       <use xlink:href="#DejaVuSans-2e" transform="translate(63.623047 0)"/>
       <use xlink:href="#DejaVuSans-35" transform="translate(95.410156 0)"/>
      </g>
     </g>
    </g>
    <g id="ytick_5">
     <g id="line2d_23">
      <path d="M 47.961178 71.520061 
L 320.99976 71.520061 
" clip-path="url(#pb3baf91fc2)" style="fill: none; stroke-dasharray: 0.8,1.32; stroke-dashoffset: 0; stroke: #b0b0b0; stroke-opacity: 0.6; stroke-width: 0.8"/>
     </g>
     <g id="line2d_24">
      <g>
       <use xlink:href="#m8206d22e78" x="47.961178" y="71.520061" style="stroke: #000000; stroke-width: 0.8"/>
      </g>
     </g>
     <g id="text_13">
      <!-- 1.0 -->
      <g transform="translate(25.058053 75.31928) scale(0.1 -0.1)">
       <use xlink:href="#DejaVuSans-31"/>
       <use xlink:href="#DejaVuSans-2e" transform="translate(63.623047 0)"/>
       <use xlink:href="#DejaVuSans-30" transform="translate(95.410156 0)"/>
      </g>
     </g>
    </g>
    <g id="ytick_6">
     <g id="line2d_25">
      <path d="M 47.961178 36.902773 
L 320.99976 36.902773 
" clip-path="url(#pb3baf91fc2)" style="fill: none; stroke-dasharray: 0.8,1.32; stroke-dashoffset: 0; stroke: #b0b0b0; stroke-opacity: 0.6; stroke-width: 0.8"/>
     </g>
     <g id="line2d_26">
      <g>
       <use xlink:href="#m8206d22e78" x="47.961178" y="36.902773" style="stroke: #000000; stroke-width: 0.8"/>
      </g>
     </g>
     <g id="text_14">
      <!-- 1.5 -->
      <g transform="translate(25.058053 40.701992) scale(0.1 -0.1)">
       <use xlink:href="#DejaVuSans-31"/>
       <use xlink:href="#DejaVuSans-2e" transform="translate(63.623047 0)"/>
       <use xlink:href="#DejaVuSans-35" transform="translate(95.410156 0)"/>
      </g>
     </g>
    </g>
    <g id="text_15">
     <!-- Im($z$) -->
     <g transform="translate(10.598678 136.146251) rotate(-90) scale(0.1 -0.1)">
      <defs>
       <path id="DejaVuSans-49" d="M 628 4666 
L 1259 4666 
L 1259 0 
L 628 0 
L 628 4666 
z
" transform="scale(0.015625)"/>
       <path id="DejaVuSans-6d" d="M 3328 2828 
Q 3544 3216 3844 3400 
Q 4144 3584 4550 3584 
Q 5097 3584 5394 3201 
Q 5691 2819 5691 2113 
L 5691 0 
L 5113 0 
L 5113 2094 
Q 5113 2597 4934 2840 
Q 4756 3084 4391 3084 
Q 3944 3084 3684 2787 
Q 3425 2491 3425 1978 
L 3425 0 
L 2847 0 
L 2847 2094 
Q 2847 2600 2669 2842 
Q 2491 3084 2119 3084 
Q 1678 3084 1418 2786 
Q 1159 2488 1159 1978 
L 1159 0 
L 581 0 
L 581 3500 
L 1159 3500 
L 1159 2956 
Q 1356 3278 1631 3431 
Q 1906 3584 2284 3584 
Q 2666 3584 2933 3390 
Q 3200 3197 3328 2828 
z
" transform="scale(0.015625)"/>
      </defs>
      <use xlink:href="#DejaVuSans-49" transform="translate(0 0.125)"/>
      <use xlink:href="#DejaVuSans-6d" transform="translate(25.867188 0.125)"/>
      <use xlink:href="#DejaVuSans-28" transform="translate(123.279297 0.125)"/>
      <use xlink:href="#DejaVuSans-Oblique-7a" transform="translate(162.292969 0.125)"/>
      <use xlink:href="#DejaVuSans-29" transform="translate(214.783203 0.125)"/>
     </g>
    </g>
   </g>
   <g id="line2d_27">
    <path d="M 288.227678 140.754637 
L 288.126945 136.179322 
L 287.824942 131.612891 
L 287.322256 127.064212 
L 286.619862 122.542118 
L 285.719125 118.055392 
L 284.621794 113.612744 
L 283.329999 109.222803 
L 281.84625 104.894094 
L 280.173427 100.635022 
L 278.314779 96.453857 
L 276.273915 92.35872 
L 274.054798 88.357562 
L 271.661738 84.458154 
L 269.099382 80.668067 
L 266.372705 76.994662 
L 263.487002 73.445071 
L 260.447877 70.026188 
L 257.261233 66.744652 
L 253.933256 63.606835 
L 250.470409 60.618831 
L 246.879417 57.786441 
L 243.167253 55.115167 
L 239.341126 52.610194 
L 235.408466 50.276389 
L 231.37691 48.118282 
L 227.254285 46.140065 
L 223.048599 44.345579 
L 218.768017 42.738309 
L 214.420853 41.321375 
L 210.015548 40.09753 
L 205.560657 39.06915 
L 201.06483 38.238231 
L 196.536798 37.606389 
L 191.985355 37.174848 
L 187.419337 36.944448 
L 182.847613 36.915636 
L 178.279059 37.088468 
L 173.722548 37.462608 
L 169.186928 38.03733 
L 164.681006 38.811517 
L 160.213532 39.783667 
L 155.793182 40.951891 
L 151.42854 42.313921 
L 147.128081 43.867112 
L 142.900156 45.608448 
L 138.752975 47.534547 
L 134.694592 49.641669 
L 130.732888 51.925722 
L 126.875555 54.382272 
L 123.130085 57.006547 
L 119.503751 59.793451 
L 116.003594 62.737573 
L 112.636411 65.833196 
L 109.408742 69.074308 
L 106.326854 72.454614 
L 103.396732 75.967553 
L 100.624065 79.6063 
L 98.014238 83.363791 
L 95.572318 87.232728 
L 93.303049 91.205599 
L 91.210836 95.274689 
L 89.299742 99.432095 
L 87.573479 103.669746 
L 86.035398 107.979411 
L 84.688487 112.352722 
L 83.535361 116.781187 
L 82.578259 121.256205 
L 81.819039 125.769087 
L 81.259177 130.31107 
L 80.89976 134.873332 
L 80.741484 139.447016 
L 80.73326 140.754637 
L 288.227678 140.754637 
L 288.227678 140.754637 
" clip-path="url(#pb3baf91fc2)" style="fill: none; stroke: #0000ff; stroke-width: 1.2; stroke-linecap: square"/>
   </g>
   <g id="line2d_28">
    <path d="M 47.961178 140.754637 
L 320.99976 140.754637 
" clip-path="url(#pb3baf91fc2)" style="fill: none; stroke: #000000; stroke-width: 0.8; stroke-linecap: square"/>
   </g>
   <g id="line2d_29">
    <path d="M 184.480469 218.64351 
L 184.480469 28.248991 
" clip-path="url(#pb3baf91fc2)" style="fill: none; stroke: #000000; stroke-width: 0.8; stroke-linecap: square"/>
   </g>
   <g id="patch_4">
    <path d="M 47.961178 218.64351 
L 47.961178 28.248991 
" style="fill: none; stroke: #000000; stroke-width: 0.8; stroke-linejoin: miter; stroke-linecap: square"/>
   </g>
   <g id="patch_5">
    <path d="M 320.99976 218.64351 
L 320.99976 28.248991 
" style="fill: none; stroke: #000000; stroke-width: 0.8; stroke-linejoin: miter; stroke-linecap: square"/>
   </g>
   <g id="patch_6">
    <path d="M 47.961178 218.64351 
L 320.99976 218.64351 
" style="fill: none; stroke: #000000; stroke-width: 0.8; stroke-linejoin: miter; stroke-linecap: square"/>
   </g>
   <g id="patch_7">
    <path d="M 47.961178 28.248991 
L 320.99976 28.248991 
" style="fill: none; stroke: #000000; stroke-width: 0.8; stroke-linejoin: miter; stroke-linecap: square"/>
   </g>
   <g id="PathCollection_1">
    <defs>
     <path id="m34cc500d73" d="M 0 2.738613 
C 0.726289 2.738613 1.422928 2.450055 1.936492 1.936492 
C 2.450055 1.422928 2.738613 0.726289 2.738613 0 
C 2.738613 -0.726289 2.450055 -1.422928 1.936492 -1.936492 
C 1.422928 -2.450055 0.726289 -2.738613 0 -2.738613 
C -0.726289 -2.738613 -1.422928 -2.450055 -1.936492 -1.936492 
C -2.450055 -1.422928 -2.738613 -0.726289 -2.738613 0 
C -2.738613 0.726289 -2.450055 1.422928 -1.936492 1.936492 
C -1.422928 2.450055 -0.726289 2.738613 0 2.738613 
z
" style="stroke: #000000"/>
    </defs>
    <g clip-path="url(#pb3baf91fc2)">
     <use xlink:href="#m34cc500d73" x="184.480469" y="71.520061" style="fill: #ff0000; stroke: #000000"/>
    </g>
   </g>
   <g id="PathCollection_2">
    <defs>
     <path id="m1d7712370c" d="M 0 2.738613 
C 0.726289 2.738613 1.422928 2.450055 1.936492 1.936492 
C 2.450055 1.422928 2.738613 0.726289 2.738613 0 
C 2.738613 -0.726289 2.450055 -1.422928 1.936492 -1.936492 
C 1.422928 -2.450055 0.726289 -2.738613 0 -2.738613 
C -0.726289 -2.738613 -1.422928 -2.450055 -1.936492 -1.936492 
C -2.450055 -1.422928 -2.738613 -0.726289 -2.738613 0 
C -2.738613 0.726289 -2.450055 1.422928 -1.936492 1.936492 
C -1.422928 2.450055 -0.726289 2.738613 0 2.738613 
z
" style="stroke: #000000"/>
    </defs>
    <g clip-path="url(#pb3baf91fc2)">
     <use xlink:href="#m1d7712370c" x="253.645275" y="140.754637" style="fill: #ffd700; stroke: #000000"/>
     <use xlink:href="#m1d7712370c" x="115.315663" y="140.754637" style="fill: #ffd700; stroke: #000000"/>
    </g>
   </g>
   <g id="PathCollection_3">
    <defs>
     <path id="m7aa9e6c7ec" d="M 0 2.738613 
C 0.726289 2.738613 1.422928 2.450055 1.936492 1.936492 
C 2.450055 1.422928 2.738613 0.726289 2.738613 0 
C 2.738613 -0.726289 2.450055 -1.422928 1.936492 -1.936492 
C 1.422928 -2.450055 0.726289 -2.738613 0 -2.738613 
C -0.726289 -2.738613 -1.422928 -2.450055 -1.936492 -1.936492 
C -2.450055 -1.422928 -2.738613 -0.726289 -2.738613 0 
C -2.738613 0.726289 -2.450055 1.422928 -1.936492 1.936492 
C -1.422928 2.450055 -0.726289 2.738613 0 2.738613 
z
" style="stroke: #000000"/>
    </defs>
    <g clip-path="url(#pb3baf91fc2)">
     <use xlink:href="#m7aa9e6c7ec" x="184.480469" y="209.989214" style="fill: #808080; stroke: #000000"/>
    </g>
   </g>
   <g id="legend_1">
    <g id="patch_8">
     <path d="M 78.340217 15.259265 
L 290.62072 15.259265 
Q 292.00872 15.259265 292.00872 13.871265 
L 292.00872 4.378647 
Q 292.00872 2.990647 290.62072 2.990647 
L 78.340217 2.990647 
Q 76.952217 2.990647 76.952217 4.378647 
L 76.952217 13.871265 
Q 76.952217 15.259265 78.340217 15.259265 
z
" style="fill: #ffffff; opacity: 0.8; stroke: #cccccc; stroke-linejoin: miter"/>
    </g>
    <g id="line2d_30">
     <path d="M 79.728217 8.610962 
L 86.668217 8.610962 
L 93.608217 8.610962 
" style="fill: none; stroke: #0000ff; stroke-width: 1.2; stroke-linecap: square"/>
    </g>
    <g id="text_16">
     <!-- Contour -->
     <g transform="translate(99.160217 11.039962) scale(0.0694 -0.0694)">
      <defs>
       <path id="DejaVuSans-43" d="M 4122 4306 
L 4122 3641 
Q 3803 3938 3442 4084 
Q 3081 4231 2675 4231 
Q 1875 4231 1450 3742 
Q 1025 3253 1025 2328 
Q 1025 1406 1450 917 
Q 1875 428 2675 428 
Q 3081 428 3442 575 
Q 3803 722 4122 1019 
L 4122 359 
Q 3791 134 3420 21 
Q 3050 -91 2638 -91 
Q 1578 -91 968 557 
Q 359 1206 359 2328 
Q 359 3453 968 4101 
Q 1578 4750 2638 4750 
Q 3056 4750 3426 4639 
Q 3797 4528 4122 4306 
z
" transform="scale(0.015625)"/>
       <path id="DejaVuSans-6f" d="M 1959 3097 
Q 1497 3097 1228 2736 
Q 959 2375 959 1747 
Q 959 1119 1226 758 
Q 1494 397 1959 397 
Q 2419 397 2687 759 
Q 2956 1122 2956 1747 
Q 2956 2369 2687 2733 
Q 2419 3097 1959 3097 
z
M 1959 3584 
Q 2709 3584 3137 3096 
Q 3566 2609 3566 1747 
Q 3566 888 3137 398 
Q 2709 -91 1959 -91 
Q 1206 -91 779 398 
Q 353 888 353 1747 
Q 353 2609 779 3096 
Q 1206 3584 1959 3584 
z
" transform="scale(0.015625)"/>
       <path id="DejaVuSans-6e" d="M 3513 2113 
L 3513 0 
L 2938 0 
L 2938 2094 
Q 2938 2591 2744 2837 
Q 2550 3084 2163 3084 
Q 1697 3084 1428 2787 
Q 1159 2491 1159 1978 
L 1159 0 
L 581 0 
L 581 3500 
L 1159 3500 
L 1159 2956 
Q 1366 3272 1645 3428 
Q 1925 3584 2291 3584 
Q 2894 3584 3203 3211 
Q 3513 2838 3513 2113 
z
" transform="scale(0.015625)"/>
       <path id="DejaVuSans-74" d="M 1172 4494 
L 1172 3500 
L 2356 3500 
L 2356 3053 
L 1172 3053 
L 1172 1153 
Q 1172 725 1289 603 
Q 1406 481 1766 481 
L 2356 481 
L 2356 0 
L 1766 0 
Q 1100 0 847 248 
Q 594 497 594 1153 
L 594 3053 
L 172 3053 
L 172 3500 
L 594 3500 
L 594 4494 
L 1172 4494 
z
" transform="scale(0.015625)"/>
       <path id="DejaVuSans-75" d="M 544 1381 
L 544 3500 
L 1119 3500 
L 1119 1403 
Q 1119 906 1312 657 
Q 1506 409 1894 409 
Q 2359 409 2629 706 
Q 2900 1003 2900 1516 
L 2900 3500 
L 3475 3500 
L 3475 0 
L 2900 0 
L 2900 538 
Q 2691 219 2414 64 
Q 2138 -91 1772 -91 
Q 1169 -91 856 284 
Q 544 659 544 1381 
z
M 1991 3584 
L 1991 3584 
z
" transform="scale(0.015625)"/>
       <path id="DejaVuSans-72" d="M 2631 2963 
Q 2534 3019 2420 3045 
Q 2306 3072 2169 3072 
Q 1681 3072 1420 2755 
Q 1159 2438 1159 1844 
L 1159 0 
L 581 0 
L 581 3500 
L 1159 3500 
L 1159 2956 
Q 1341 3275 1631 3429 
Q 1922 3584 2338 3584 
Q 2397 3584 2469 3576 
Q 2541 3569 2628 3553 
L 2631 2963 
z
" transform="scale(0.015625)"/>
      </defs>
      <use xlink:href="#DejaVuSans-43"/>
      <use xlink:href="#DejaVuSans-6f" transform="translate(69.824219 0)"/>
      <use xlink:href="#DejaVuSans-6e" transform="translate(131.005859 0)"/>
      <use xlink:href="#DejaVuSans-74" transform="translate(194.384766 0)"/>
      <use xlink:href="#DejaVuSans-6f" transform="translate(233.59375 0)"/>
      <use xlink:href="#DejaVuSans-75" transform="translate(294.775391 0)"/>
      <use xlink:href="#DejaVuSans-72" transform="translate(358.154297 0)"/>
     </g>
    </g>
    <g id="PathCollection_4">
     <g>
      <use xlink:href="#m34cc500d73" x="147.689252" y="9.218212" style="fill: #ff0000; stroke: #000000"/>
     </g>
    </g>
    <g id="text_17">
     <!-- Inside -->
     <g transform="translate(160.181252 11.039962) scale(0.0694 -0.0694)">
      <defs>
       <path id="DejaVuSans-73" d="M 2834 3397 
L 2834 2853 
Q 2591 2978 2328 3040 
Q 2066 3103 1784 3103 
Q 1356 3103 1142 2972 
Q 928 2841 928 2578 
Q 928 2378 1081 2264 
Q 1234 2150 1697 2047 
L 1894 2003 
Q 2506 1872 2764 1633 
Q 3022 1394 3022 966 
Q 3022 478 2636 193 
Q 2250 -91 1575 -91 
Q 1294 -91 989 -36 
Q 684 19 347 128 
L 347 722 
Q 666 556 975 473 
Q 1284 391 1588 391 
Q 1994 391 2212 530 
Q 2431 669 2431 922 
Q 2431 1156 2273 1281 
Q 2116 1406 1581 1522 
L 1381 1569 
Q 847 1681 609 1914 
Q 372 2147 372 2553 
Q 372 3047 722 3315 
Q 1072 3584 1716 3584 
Q 2034 3584 2315 3537 
Q 2597 3491 2834 3397 
z
" transform="scale(0.015625)"/>
       <path id="DejaVuSans-69" d="M 603 3500 
L 1178 3500 
L 1178 0 
L 603 0 
L 603 3500 
z
M 603 4863 
L 1178 4863 
L 1178 4134 
L 603 4134 
L 603 4863 
z
" transform="scale(0.015625)"/>
       <path id="DejaVuSans-64" d="M 2906 2969 
L 2906 4863 
L 3481 4863 
L 3481 0 
L 2906 0 
L 2906 525 
Q 2725 213 2448 61 
Q 2172 -91 1784 -91 
Q 1150 -91 751 415 
Q 353 922 353 1747 
Q 353 2572 751 3078 
Q 1150 3584 1784 3584 
Q 2172 3584 2448 3432 
Q 2725 3281 2906 2969 
z
M 947 1747 
Q 947 1113 1208 752 
Q 1469 391 1925 391 
Q 2381 391 2643 752 
Q 2906 1113 2906 1747 
Q 2906 2381 2643 2742 
Q 2381 3103 1925 3103 
Q 1469 3103 1208 2742 
Q 947 2381 947 1747 
z
" transform="scale(0.015625)"/>
      </defs>
      <use xlink:href="#DejaVuSans-49"/>
      <use xlink:href="#DejaVuSans-6e" transform="translate(29.492188 0)"/>
      <use xlink:href="#DejaVuSans-73" transform="translate(92.871094 0)"/>
      <use xlink:href="#DejaVuSans-69" transform="translate(144.970703 0)"/>
      <use xlink:href="#DejaVuSans-64" transform="translate(172.753906 0)"/>
      <use xlink:href="#DejaVuSans-65" transform="translate(236.230469 0)"/>
     </g>
    </g>
    <g id="PathCollection_5">
     <g>
      <use xlink:href="#m1d7712370c" x="201.666186" y="9.218212" style="fill: #ffd700; stroke: #000000"/>
     </g>
    </g>
    <g id="text_18">
     <!-- Real -->
     <g transform="translate(214.158186 11.039962) scale(0.0694 -0.0694)">
      <defs>
       <path id="DejaVuSans-61" d="M 2194 1759 
Q 1497 1759 1228 1600 
Q 959 1441 959 1056 
Q 959 750 1161 570 
Q 1363 391 1709 391 
Q 2188 391 2477 730 
Q 2766 1069 2766 1631 
L 2766 1759 
L 2194 1759 
z
M 3341 1997 
L 3341 0 
L 2766 0 
L 2766 531 
Q 2569 213 2275 61 
Q 1981 -91 1556 -91 
Q 1019 -91 701 211 
Q 384 513 384 1019 
Q 384 1609 779 1909 
Q 1175 2209 1959 2209 
L 2766 2209 
L 2766 2266 
Q 2766 2663 2505 2880 
Q 2244 3097 1772 3097 
Q 1472 3097 1187 3025 
Q 903 2953 641 2809 
L 641 3341 
Q 956 3463 1253 3523 
Q 1550 3584 1831 3584 
Q 2591 3584 2966 3190 
Q 3341 2797 3341 1997 
z
" transform="scale(0.015625)"/>
       <path id="DejaVuSans-6c" d="M 603 4863 
L 1178 4863 
L 1178 0 
L 603 0 
L 603 4863 
z
" transform="scale(0.015625)"/>
      </defs>
      <use xlink:href="#DejaVuSans-52"/>
      <use xlink:href="#DejaVuSans-65" transform="translate(64.982422 0)"/>
      <use xlink:href="#DejaVuSans-61" transform="translate(126.505859 0)"/>
      <use xlink:href="#DejaVuSans-6c" transform="translate(187.785156 0)"/>
     </g>
    </g>
    <g id="PathCollection_6">
     <g>
      <use xlink:href="#m7aa9e6c7ec" x="249.939308" y="9.218212" style="fill: #808080; stroke: #000000"/>
     </g>
    </g>
    <g id="text_19">
     <!-- Outside -->
     <g transform="translate(262.431308 11.039962) scale(0.0694 -0.0694)">
      <defs>
       <path id="DejaVuSans-4f" d="M 2522 4238 
Q 1834 4238 1429 3725 
Q 1025 3213 1025 2328 
Q 1025 1447 1429 934 
Q 1834 422 2522 422 
Q 3209 422 3611 934 
Q 4013 1447 4013 2328 
Q 4013 3213 3611 3725 
Q 3209 4238 2522 4238 
z
M 2522 4750 
Q 3503 4750 4090 4092 
Q 4678 3434 4678 2328 
Q 4678 1225 4090 567 
Q 3503 -91 2522 -91 
Q 1538 -91 948 565 
Q 359 1222 359 2328 
Q 359 3434 948 4092 
Q 1538 4750 2522 4750 
z
" transform="scale(0.015625)"/>
      </defs>
      <use xlink:href="#DejaVuSans-4f"/>
      <use xlink:href="#DejaVuSans-75" transform="translate(78.710938 0)"/>
      <use xlink:href="#DejaVuSans-74" transform="translate(142.089844 0)"/>
      <use xlink:href="#DejaVuSans-73" transform="translate(181.298828 0)"/>
      <use xlink:href="#DejaVuSans-69" transform="translate(233.398438 0)"/>
      <use xlink:href="#DejaVuSans-64" transform="translate(261.181641 0)"/>
      <use xlink:href="#DejaVuSans-65" transform="translate(324.658203 0)"/>
     </g>
    </g>
   </g>
  </g>
 </g>
 <defs>
  <clipPath id="pb3baf91fc2">
   <rect x="47.961178" y="28.248991" width="273.038582" height="190.394519"/>
  </clipPath>
 </defs>
</svg>
