<?xml version="1.0" encoding="utf-8" standalone="no"?>
<!DOCTYPE svg PUBLIC "-//W3C//DTD SVG 1.1//EN"
  "http://www.w3.org/Graphics/SVG/1.1/DTD/svg11.dtd">
<svg xmlns:xlink="http://www.w3.org/1999/xlink" width="288pt" height="288pt" viewBox="0 0 288 288" xmlns="http://www.w3.org/2000/svg" version="1.1">
 <metadata>
  <rdf:RDF xmlns:dc="http://purl.org/dc/elements/1.1/" xmlns:cc="http://creativecommons.org/ns#" xmlns:rdf="http://www.w3.org/1999/02/22-rdf-syntax-ns#">
   <cc:Work>
    <dc:type rdf:resource="http://purl.org/dc/dcmitype/StillImage"/>
    <dc:date>2026-01-24T17:16:00.833573</dc:date>
    <dc:format>image/svg+xml</dc:format>
    <dc:creator>
     <cc:Agent>
      <dc:title>Matplotlib v3.10.8, https://matplotlib.org/</dc:title>
     </cc:Agent>
    </dc:creator>
   </cc:Work>
  </rdf:RDF>
 </metadata>
 <defs>
  <style type="text/css">*{stroke-linejoin: round; stroke-linecap: butt}</style>
 </defs>
 <g id="figure_1">
  <g id="patch_1">
   <path d="M 0 288 
L 288 288 
L 288 0 
L 0 0 
z
" style="fill: #ffffff"/>
  </g>
  <g id="axes_1">
   <g id="patch_2">
    <path d="M 36 256.32 
L 259.2 256.32 
L 259.2 34.56 
L 36 34.56 
z
" style="fill: #ffffff"/>
   </g>
   <g id="FillBetweenPolyCollection_1">
    <defs>
     <path id="m674a63dec0" d="M 46.145455 -41.76 
L 46.145455 -41.76 
L 48.195041 -41.780569 
L 50.244628 -41.842277 
L 52.294215 -41.945124 
L 54.343802 -42.089109 
L 56.393388 -42.274233 
L 58.442975 -42.500496 
L 60.492562 -42.767897 
L 62.542149 -43.076437 
L 64.591736 -43.426116 
L 66.641322 -43.816933 
L 68.690909 -44.248889 
L 70.740496 -44.721983 
L 72.790083 -45.236217 
L 74.839669 -45.791589 
L 76.889256 -46.388099 
L 78.938843 -47.025748 
L 80.98843 -47.704536 
L 83.038017 -48.424463 
L 85.087603 -49.185528 
L 87.13719 -49.987732 
L 89.186777 -50.831074 
L 91.236364 -51.715556 
L 93.28595 -52.641175 
L 95.335537 -53.607934 
L 97.385124 -54.615831 
L 99.434711 -55.664867 
L 101.484298 -56.755041 
L 103.533884 -57.886354 
L 105.583471 -59.058806 
L 107.633058 -60.272397 
L 109.682645 -61.527126 
L 111.732231 -62.822994 
L 113.781818 -64.16 
L 115.831405 -65.538145 
L 117.880992 -66.957429 
L 119.930579 -68.417851 
L 121.980165 -69.919412 
L 124.029752 -71.462112 
L 126.079339 -73.04595 
L 128.128926 -74.670927 
L 130.178512 -76.337043 
L 132.228099 -78.044298 
L 134.277686 -79.792691 
L 136.327273 -81.582222 
L 138.37686 -83.412893 
L 140.426446 -85.284702 
L 142.476033 -87.197649 
L 144.52562 -89.151736 
L 146.575207 -91.146961 
L 148.624793 -93.183324 
L 150.67438 -95.260826 
L 152.723967 -97.379467 
L 154.773554 -99.539247 
L 156.82314 -101.740165 
L 158.872727 -103.982222 
L 160.922314 -106.265418 
L 162.971901 -108.589752 
L 165.021488 -110.955225 
L 167.071074 -113.361837 
L 169.120661 -115.809587 
L 171.170248 -118.298476 
L 173.219835 -120.828503 
L 175.269421 -123.399669 
L 177.319008 -126.011974 
L 179.368595 -128.665418 
L 181.418182 -131.36 
L 183.467769 -134.095721 
L 185.517355 -136.87258 
L 187.566942 -139.690579 
L 189.616529 -142.549715 
L 191.666116 -145.449991 
L 193.715702 -148.391405 
L 195.765289 -151.373958 
L 197.814876 -154.397649 
L 199.864463 -157.462479 
L 201.91405 -160.568448 
L 203.963636 -163.715556 
L 206.013223 -166.903802 
L 208.06281 -170.133186 
L 210.112397 -173.40371 
L 212.161983 -176.715372 
L 214.21157 -180.068173 
L 216.261157 -183.462112 
L 218.310744 -186.89719 
L 220.360331 -190.373407 
L 222.409917 -193.890762 
L 224.459504 -197.449256 
L 226.509091 -201.048889 
L 228.558678 -204.68966 
L 230.608264 -208.37157 
L 232.657851 -212.094619 
L 234.707438 -215.858806 
L 236.757025 -219.664132 
L 238.806612 -223.510597 
L 240.856198 -227.3982 
L 242.905785 -231.326942 
L 244.955372 -235.296823 
L 247.004959 -239.307842 
L 249.054545 -243.36 
L 249.054545 -243.36 
L 249.054545 -243.36 
L 247.004959 -241.323636 
L 244.955372 -239.287273 
L 242.905785 -237.250909 
L 240.856198 -235.214545 
L 238.806612 -233.178182 
L 236.757025 -231.141818 
L 234.707438 -229.105455 
L 232.657851 -227.069091 
L 230.608264 -225.032727 
L 228.558678 -222.996364 
L 226.509091 -220.96 
L 224.459504 -218.923636 
L 222.409917 -216.887273 
L 220.360331 -214.850909 
L 218.310744 -212.814545 
L 216.261157 -210.778182 
L 214.21157 -208.741818 
L 212.161983 -206.705455 
L 210.112397 -204.669091 
L 208.06281 -202.632727 
L 206.013223 -200.596364 
L 203.963636 -198.56 
L 201.91405 -196.523636 
L 199.864463 -194.487273 
L 197.814876 -192.450909 
L 195.765289 -190.414545 
L 193.715702 -188.378182 
L 191.666116 -186.341818 
L 189.616529 -184.305455 
L 187.566942 -182.269091 
L 185.517355 -180.232727 
L 183.467769 -178.196364 
L 181.418182 -176.16 
L 179.368595 -174.123636 
L 177.319008 -172.087273 
L 175.269421 -170.050909 
L 173.219835 -168.014545 
L 171.170248 -165.978182 
L 169.120661 -163.941818 
L 167.071074 -161.905455 
L 165.021488 -159.869091 
L 162.971901 -157.832727 
L 160.922314 -155.796364 
L 158.872727 -153.76 
L 156.82314 -151.723636 
L 154.773554 -149.687273 
L 152.723967 -147.650909 
L 150.67438 -145.614545 
L 148.624793 -143.578182 
L 146.575207 -141.541818 
L 144.52562 -139.505455 
L 142.476033 -137.469091 
L 140.426446 -135.432727 
L 138.37686 -133.396364 
L 136.327273 -131.36 
L 134.277686 -129.323636 
L 132.228099 -127.287273 
L 130.178512 -125.250909 
L 128.128926 -123.214545 
L 126.079339 -121.178182 
L 124.029752 -119.141818 
L 121.980165 -117.105455 
L 119.930579 -115.069091 
L 117.880992 -113.032727 
L 115.831405 -110.996364 
L 113.781818 -108.96 
L 111.732231 -106.923636 
L 109.682645 -104.887273 
L 107.633058 -102.850909 
L 105.583471 -100.814545 
L 103.533884 -98.778182 
L 101.484298 -96.741818 
L 99.434711 -94.705455 
L 97.385124 -92.669091 
L 95.335537 -90.632727 
L 93.28595 -88.596364 
L 91.236364 -86.56 
L 89.186777 -84.523636 
L 87.13719 -82.487273 
L 85.087603 -80.450909 
L 83.038017 -78.414545 
L 80.98843 -76.378182 
L 78.938843 -74.341818 
L 76.889256 -72.305455 
L 74.839669 -70.269091 
L 72.790083 -68.232727 
L 70.740496 -66.196364 
L 68.690909 -64.16 
L 66.641322 -62.123636 
L 64.591736 -60.087273 
L 62.542149 -58.050909 
L 60.492562 -56.014545 
L 58.442975 -53.978182 
L 56.393388 -51.941818 
L 54.343802 -49.905455 
L 52.294215 -47.869091 
L 50.244628 -45.832727 
L 48.195041 -43.796364 
L 46.145455 -41.76 
z
" style="stroke: #03a0d5; stroke-opacity: 0.2; stroke-width: 2"/>
    </defs>
    <g clip-path="url(#p9a1ef2c70c)">
     <use xlink:href="#m674a63dec0" x="0" y="288" style="fill: #03a0d5; fill-opacity: 0.2; stroke: #03a0d5; stroke-opacity: 0.2; stroke-width: 2"/>
    </g>
   </g>
   <g id="matplotlib.axis_1">
    <g id="xtick_1">
     <g id="line2d_1">
      <defs>
       <path id="m8fe2786223" d="M 0 0 
L 0 3.5 
" style="stroke: #000000; stroke-width: 0.8"/>
      </defs>
      <g>
       <use xlink:href="#m8fe2786223" x="46.145455" y="256.32" style="stroke: #000000; stroke-width: 0.8"/>
      </g>
     </g>
     <g id="text_1">
      <!-- 0.0 -->
      <g transform="translate(38.193892 270.918437) scale(0.1 -0.1)">
       <defs>
        <path id="DejaVuSans-30" d="M 2034 4250 
Q 1547 4250 1301 3770 
Q 1056 3291 1056 2328 
Q 1056 1369 1301 889 
Q 1547 409 2034 409 
Q 2525 409 2770 889 
Q 3016 1369 3016 2328 
Q 3016 3291 2770 3770 
Q 2525 4250 2034 4250 
z
M 2034 4750 
Q 2819 4750 3233 4129 
Q 3647 3509 3647 2328 
Q 3647 1150 3233 529 
Q 2819 -91 2034 -91 
Q 1250 -91 836 529 
Q 422 1150 422 2328 
Q 422 3509 836 4129 
Q 1250 4750 2034 4750 
z
" transform="scale(0.015625)"/>
        <path id="DejaVuSans-2e" d="M 684 794 
L 1344 794 
L 1344 0 
L 684 0 
L 684 794 
z
" transform="scale(0.015625)"/>
       </defs>
       <use xlink:href="#DejaVuSans-30"/>
       <use xlink:href="#DejaVuSans-2e" transform="translate(63.623047 0)"/>
       <use xlink:href="#DejaVuSans-30" transform="translate(95.410156 0)"/>
      </g>
     </g>
    </g>
    <g id="xtick_2">
     <g id="line2d_2">
      <g>
       <use xlink:href="#m8fe2786223" x="86.727273" y="256.32" style="stroke: #000000; stroke-width: 0.8"/>
      </g>
     </g>
     <g id="text_2">
      <!-- 0.2 -->
      <g transform="translate(78.77571 270.918437) scale(0.1 -0.1)">
       <defs>
        <path id="DejaVuSans-32" d="M 1228 531 
L 3431 531 
L 3431 0 
L 469 0 
L 469 531 
Q 828 903 1448 1529 
Q 2069 2156 2228 2338 
Q 2531 2678 2651 2914 
Q 2772 3150 2772 3378 
Q 2772 3750 2511 3984 
Q 2250 4219 1831 4219 
Q 1534 4219 1204 4116 
Q 875 4013 500 3803 
L 500 4441 
Q 881 4594 1212 4672 
Q 1544 4750 1819 4750 
Q 2544 4750 2975 4387 
Q 3406 4025 3406 3419 
Q 3406 3131 3298 2873 
Q 3191 2616 2906 2266 
Q 2828 2175 2409 1742 
Q 1991 1309 1228 531 
z
" transform="scale(0.015625)"/>
       </defs>
       <use xlink:href="#DejaVuSans-30"/>
       <use xlink:href="#DejaVuSans-2e" transform="translate(63.623047 0)"/>
       <use xlink:href="#DejaVuSans-32" transform="translate(95.410156 0)"/>
      </g>
     </g>
    </g>
    <g id="xtick_3">
     <g id="line2d_3">
      <g>
       <use xlink:href="#m8fe2786223" x="127.309091" y="256.32" style="stroke: #000000; stroke-width: 0.8"/>
      </g>
     </g>
     <g id="text_3">
      <!-- 0.4 -->
      <g transform="translate(119.357528 270.918437) scale(0.1 -0.1)">
       <defs>
        <path id="DejaVuSans-34" d="M 2419 4116 
L 825 1625 
L 2419 1625 
L 2419 4116 
z
M 2253 4666 
L 3047 4666 
L 3047 1625 
L 3713 1625 
L 3713 1100 
L 3047 1100 
L 3047 0 
L 2419 0 
L 2419 1100 
L 313 1100 
L 313 1709 
L 2253 4666 
z
" transform="scale(0.015625)"/>
       </defs>
       <use xlink:href="#DejaVuSans-30"/>
       <use xlink:href="#DejaVuSans-2e" transform="translate(63.623047 0)"/>
       <use xlink:href="#DejaVuSans-34" transform="translate(95.410156 0)"/>
      </g>
     </g>
    </g>
    <g id="xtick_4">
     <g id="line2d_4">
      <g>
       <use xlink:href="#m8fe2786223" x="167.890909" y="256.32" style="stroke: #000000; stroke-width: 0.8"/>
      </g>
     </g>
     <g id="text_4">
      <!-- 0.6 -->
      <g transform="translate(159.939347 270.918437) scale(0.1 -0.1)">
       <defs>
        <path id="DejaVuSans-36" d="M 2113 2584 
Q 1688 2584 1439 2293 
Q 1191 2003 1191 1497 
Q 1191 994 1439 701 
Q 1688 409 2113 409 
Q 2538 409 2786 701 
Q 3034 994 3034 1497 
Q 3034 2003 2786 2293 
Q 2538 2584 2113 2584 
z
M 3366 4563 
L 3366 3988 
Q 3128 4100 2886 4159 
Q 2644 4219 2406 4219 
Q 1781 4219 1451 3797 
Q 1122 3375 1075 2522 
Q 1259 2794 1537 2939 
Q 1816 3084 2150 3084 
Q 2853 3084 3261 2657 
Q 3669 2231 3669 1497 
Q 3669 778 3244 343 
Q 2819 -91 2113 -91 
Q 1303 -91 875 529 
Q 447 1150 447 2328 
Q 447 3434 972 4092 
Q 1497 4750 2381 4750 
Q 2619 4750 2861 4703 
Q 3103 4656 3366 4563 
z
" transform="scale(0.015625)"/>
       </defs>
       <use xlink:href="#DejaVuSans-30"/>
       <use xlink:href="#DejaVuSans-2e" transform="translate(63.623047 0)"/>
       <use xlink:href="#DejaVuSans-36" transform="translate(95.410156 0)"/>
      </g>
     </g>
    </g>
    <g id="xtick_5">
     <g id="line2d_5">
      <g>
       <use xlink:href="#m8fe2786223" x="208.472727" y="256.32" style="stroke: #000000; stroke-width: 0.8"/>
      </g>
     </g>
     <g id="text_5">
      <!-- 0.8 -->
      <g transform="translate(200.521165 270.918437) scale(0.1 -0.1)">
       <defs>
        <path id="DejaVuSans-38" d="M 2034 2216 
Q 1584 2216 1326 1975 
Q 1069 1734 1069 1313 
Q 1069 891 1326 650 
Q 1584 409 2034 409 
Q 2484 409 2743 651 
Q 3003 894 3003 1313 
Q 3003 1734 2745 1975 
Q 2488 2216 2034 2216 
z
M 1403 2484 
Q 997 2584 770 2862 
Q 544 3141 544 3541 
Q 544 4100 942 4425 
Q 1341 4750 2034 4750 
Q 2731 4750 3128 4425 
Q 3525 4100 3525 3541 
Q 3525 3141 3298 2862 
Q 3072 2584 2669 2484 
Q 3125 2378 3379 2068 
Q 3634 1759 3634 1313 
Q 3634 634 3220 271 
Q 2806 -91 2034 -91 
Q 1263 -91 848 271 
Q 434 634 434 1313 
Q 434 1759 690 2068 
Q 947 2378 1403 2484 
z
M 1172 3481 
Q 1172 3119 1398 2916 
Q 1625 2713 2034 2713 
Q 2441 2713 2670 2916 
Q 2900 3119 2900 3481 
Q 2900 3844 2670 4047 
Q 2441 4250 2034 4250 
Q 1625 4250 1398 4047 
Q 1172 3844 1172 3481 
z
" transform="scale(0.015625)"/>
       </defs>
       <use xlink:href="#DejaVuSans-30"/>
       <use xlink:href="#DejaVuSans-2e" transform="translate(63.623047 0)"/>
       <use xlink:href="#DejaVuSans-38" transform="translate(95.410156 0)"/>
      </g>
     </g>
    </g>
    <g id="xtick_6">
     <g id="line2d_6">
      <g>
       <use xlink:href="#m8fe2786223" x="249.054545" y="256.32" style="stroke: #000000; stroke-width: 0.8"/>
      </g>
     </g>
     <g id="text_6">
      <!-- 1.0 -->
      <g transform="translate(241.102983 270.918437) scale(0.1 -0.1)">
       <defs>
        <path id="DejaVuSans-31" d="M 794 531 
L 1825 531 
L 1825 4091 
L 703 3866 
L 703 4441 
L 1819 4666 
L 2450 4666 
L 2450 531 
L 3481 531 
L 3481 0 
L 794 0 
L 794 531 
z
" transform="scale(0.015625)"/>
       </defs>
       <use xlink:href="#DejaVuSans-31"/>
       <use xlink:href="#DejaVuSans-2e" transform="translate(63.623047 0)"/>
       <use xlink:href="#DejaVuSans-30" transform="translate(95.410156 0)"/>
      </g>
     </g>
    </g>
    <g id="text_7">
     <!-- x -->
     <g transform="translate(144.640625 284.596563) scale(0.1 -0.1)">
      <defs>
       <path id="DejaVuSans-78" d="M 3513 3500 
L 2247 1797 
L 3578 0 
L 2900 0 
L 1881 1375 
L 863 0 
L 184 0 
L 1544 1831 
L 300 3500 
L 978 3500 
L 1906 2253 
L 2834 3500 
L 3513 3500 
z
" transform="scale(0.015625)"/>
      </defs>
      <use xlink:href="#DejaVuSans-78"/>
     </g>
    </g>
   </g>
   <g id="matplotlib.axis_2">
    <g id="ytick_1">
     <g id="line2d_7">
      <defs>
       <path id="m31bd098da8" d="M 0 0 
L -3.5 0 
" style="stroke: #000000; stroke-width: 0.8"/>
      </defs>
      <g>
       <use xlink:href="#m31bd098da8" x="36" y="246.24" style="stroke: #000000; stroke-width: 0.8"/>
      </g>
     </g>
     <g id="text_8">
      <!-- 0.0 -->
      <g transform="translate(13.096875 250.039219) scale(0.1 -0.1)">
       <use xlink:href="#DejaVuSans-30"/>
       <use xlink:href="#DejaVuSans-2e" transform="translate(63.623047 0)"/>
       <use xlink:href="#DejaVuSans-30" transform="translate(95.410156 0)"/>
      </g>
     </g>
    </g>
    <g id="ytick_2">
     <g id="line2d_8">
      <g>
       <use xlink:href="#m31bd098da8" x="36" y="205.92" style="stroke: #000000; stroke-width: 0.8"/>
      </g>
     </g>
     <g id="text_9">
      <!-- 0.2 -->
      <g transform="translate(13.096875 209.719219) scale(0.1 -0.1)">
       <use xlink:href="#DejaVuSans-30"/>
       <use xlink:href="#DejaVuSans-2e" transform="translate(63.623047 0)"/>
       <use xlink:href="#DejaVuSans-32" transform="translate(95.410156 0)"/>
      </g>
     </g>
    </g>
    <g id="ytick_3">
     <g id="line2d_9">
      <g>
       <use xlink:href="#m31bd098da8" x="36" y="165.6" style="stroke: #000000; stroke-width: 0.8"/>
      </g>
     </g>
     <g id="text_10">
      <!-- 0.4 -->
      <g transform="translate(13.096875 169.399219) scale(0.1 -0.1)">
       <use xlink:href="#DejaVuSans-30"/>
       <use xlink:href="#DejaVuSans-2e" transform="translate(63.623047 0)"/>
       <use xlink:href="#DejaVuSans-34" transform="translate(95.410156 0)"/>
      </g>
     </g>
    </g>
    <g id="ytick_4">
     <g id="line2d_10">
      <g>
       <use xlink:href="#m31bd098da8" x="36" y="125.28" style="stroke: #000000; stroke-width: 0.8"/>
      </g>
     </g>
     <g id="text_11">
      <!-- 0.6 -->
      <g transform="translate(13.096875 129.079219) scale(0.1 -0.1)">
       <use xlink:href="#DejaVuSans-30"/>
       <use xlink:href="#DejaVuSans-2e" transform="translate(63.623047 0)"/>
       <use xlink:href="#DejaVuSans-36" transform="translate(95.410156 0)"/>
      </g>
     </g>
    </g>
    <g id="ytick_5">
     <g id="line2d_11">
      <g>
       <use xlink:href="#m31bd098da8" x="36" y="84.96" style="stroke: #000000; stroke-width: 0.8"/>
      </g>
     </g>
     <g id="text_12">
      <!-- 0.8 -->
      <g transform="translate(13.096875 88.759219) scale(0.1 -0.1)">
       <use xlink:href="#DejaVuSans-30"/>
       <use xlink:href="#DejaVuSans-2e" transform="translate(63.623047 0)"/>
       <use xlink:href="#DejaVuSans-38" transform="translate(95.410156 0)"/>
      </g>
     </g>
    </g>
    <g id="ytick_6">
     <g id="line2d_12">
      <g>
       <use xlink:href="#m31bd098da8" x="36" y="44.64" style="stroke: #000000; stroke-width: 0.8"/>
      </g>
     </g>
     <g id="text_13">
      <!-- 1.0 -->
      <g transform="translate(13.096875 48.439219) scale(0.1 -0.1)">
       <use xlink:href="#DejaVuSans-31"/>
       <use xlink:href="#DejaVuSans-2e" transform="translate(63.623047 0)"/>
       <use xlink:href="#DejaVuSans-30" transform="translate(95.410156 0)"/>
      </g>
     </g>
    </g>
    <g id="text_14">
     <!-- y -->
     <g transform="translate(7.017187 148.399375) rotate(-90) scale(0.1 -0.1)">
      <defs>
       <path id="DejaVuSans-79" d="M 2059 -325 
Q 1816 -950 1584 -1140 
Q 1353 -1331 966 -1331 
L 506 -1331 
L 506 -850 
L 844 -850 
Q 1081 -850 1212 -737 
Q 1344 -625 1503 -206 
L 1606 56 
L 191 3500 
L 800 3500 
L 1894 763 
L 2988 3500 
L 3597 3500 
L 2059 -325 
z
" transform="scale(0.015625)"/>
      </defs>
      <use xlink:href="#DejaVuSans-79"/>
     </g>
    </g>
   </g>
   <g id="line2d_13">
    <path d="M 46.145455 246.24 
L 48.195041 244.203636 
L 50.244628 242.167273 
L 52.294215 240.130909 
L 54.343802 238.094545 
L 56.393388 236.058182 
L 58.442975 234.021818 
L 60.492562 231.985455 
L 62.542149 229.949091 
L 64.591736 227.912727 
L 66.641322 225.876364 
L 68.690909 223.84 
L 70.740496 221.803636 
L 72.790083 219.767273 
L 74.839669 217.730909 
L 76.889256 215.694545 
L 78.938843 213.658182 
L 80.98843 211.621818 
L 83.038017 209.585455 
L 85.087603 207.549091 
L 87.13719 205.512727 
L 89.186777 203.476364 
L 91.236364 201.44 
L 93.28595 199.403636 
L 95.335537 197.367273 
L 97.385124 195.330909 
L 99.434711 193.294545 
L 101.484298 191.258182 
L 103.533884 189.221818 
L 105.583471 187.185455 
L 107.633058 185.149091 
L 109.682645 183.112727 
L 111.732231 181.076364 
L 113.781818 179.04 
L 115.831405 177.003636 
L 117.880992 174.967273 
L 119.930579 172.930909 
L 121.980165 170.894545 
L 124.029752 168.858182 
L 126.079339 166.821818 
L 128.128926 164.785455 
L 130.178512 162.749091 
L 132.228099 160.712727 
L 134.277686 158.676364 
L 136.327273 156.64 
L 138.37686 154.603636 
L 140.426446 152.567273 
L 142.476033 150.530909 
L 144.52562 148.494545 
L 146.575207 146.458182 
L 148.624793 144.421818 
L 150.67438 142.385455 
L 152.723967 140.349091 
L 154.773554 138.312727 
L 156.82314 136.276364 
L 158.872727 134.24 
L 160.922314 132.203636 
L 162.971901 130.167273 
L 165.021488 128.130909 
L 167.071074 126.094545 
L 169.120661 124.058182 
L 171.170248 122.021818 
L 173.219835 119.985455 
L 175.269421 117.949091 
L 177.319008 115.912727 
L 179.368595 113.876364 
L 181.418182 111.84 
L 183.467769 109.803636 
L 185.517355 107.767273 
L 187.566942 105.730909 
L 189.616529 103.694545 
L 191.666116 101.658182 
L 193.715702 99.621818 
L 195.765289 97.585455 
L 197.814876 95.549091 
L 199.864463 93.512727 
L 201.91405 91.476364 
L 203.963636 89.44 
L 206.013223 87.403636 
L 208.06281 85.367273 
L 210.112397 83.330909 
L 212.161983 81.294545 
L 214.21157 79.258182 
L 216.261157 77.221818 
L 218.310744 75.185455 
L 220.360331 73.149091 
L 222.409917 71.112727 
L 224.459504 69.076364 
L 226.509091 67.04 
L 228.558678 65.003636 
L 230.608264 62.967273 
L 232.657851 60.930909 
L 234.707438 58.894545 
L 236.757025 56.858182 
L 238.806612 54.821818 
L 240.856198 52.785455 
L 242.905785 50.749091 
L 244.955372 48.712727 
L 247.004959 46.676364 
L 249.054545 44.64 
" clip-path="url(#p9a1ef2c70c)" style="fill: none; stroke: #03a0d5; stroke-width: 1.5; stroke-linecap: square"/>
   </g>
   <g id="line2d_14">
    <path d="M 46.145455 246.24 
L 48.195041 246.219431 
L 50.244628 246.157723 
L 52.294215 246.054876 
L 54.343802 245.910891 
L 56.393388 245.725767 
L 58.442975 245.499504 
L 60.492562 245.232103 
L 62.542149 244.923563 
L 64.591736 244.573884 
L 66.641322 244.183067 
L 68.690909 243.751111 
L 70.740496 243.278017 
L 72.790083 242.763783 
L 74.839669 242.208411 
L 76.889256 241.611901 
L 78.938843 240.974252 
L 80.98843 240.295464 
L 83.038017 239.575537 
L 85.087603 238.814472 
L 87.13719 238.012268 
L 89.186777 237.168926 
L 91.236364 236.284444 
L 93.28595 235.358825 
L 95.335537 234.392066 
L 97.385124 233.384169 
L 99.434711 232.335133 
L 101.484298 231.244959 
L 103.533884 230.113646 
L 105.583471 228.941194 
L 107.633058 227.727603 
L 109.682645 226.472874 
L 111.732231 225.177006 
L 113.781818 223.84 
L 115.831405 222.461855 
L 117.880992 221.042571 
L 119.930579 219.582149 
L 121.980165 218.080588 
L 124.029752 216.537888 
L 126.079339 214.95405 
L 128.128926 213.329073 
L 130.178512 211.662957 
L 132.228099 209.955702 
L 134.277686 208.207309 
L 136.327273 206.417778 
L 138.37686 204.587107 
L 140.426446 202.715298 
L 142.476033 200.802351 
L 144.52562 198.848264 
L 146.575207 196.853039 
L 148.624793 194.816676 
L 150.67438 192.739174 
L 152.723967 190.620533 
L 154.773554 188.460753 
L 156.82314 186.259835 
L 158.872727 184.017778 
L 160.922314 181.734582 
L 162.971901 179.410248 
L 165.021488 177.044775 
L 167.071074 174.638163 
L 169.120661 172.190413 
L 171.170248 169.701524 
L 173.219835 167.171497 
L 175.269421 164.600331 
L 177.319008 161.988026 
L 179.368595 159.334582 
L 181.418182 156.64 
L 183.467769 153.904279 
L 185.517355 151.12742 
L 187.566942 148.309421 
L 189.616529 145.450285 
L 191.666116 142.550009 
L 193.715702 139.608595 
L 195.765289 136.626042 
L 197.814876 133.602351 
L 199.864463 130.537521 
L 201.91405 127.431552 
L 203.963636 124.284444 
L 206.013223 121.096198 
L 208.06281 117.866814 
L 210.112397 114.59629 
L 212.161983 111.284628 
L 214.21157 107.931827 
L 216.261157 104.537888 
L 218.310744 101.10281 
L 220.360331 97.626593 
L 222.409917 94.109238 
L 224.459504 90.550744 
L 226.509091 86.951111 
L 228.558678 83.31034 
L 230.608264 79.62843 
L 232.657851 75.905381 
L 234.707438 72.141194 
L 236.757025 68.335868 
L 238.806612 64.489403 
L 240.856198 60.6018 
L 242.905785 56.673058 
L 244.955372 52.703177 
L 247.004959 48.692158 
L 249.054545 44.64 
" clip-path="url(#p9a1ef2c70c)" style="fill: none; stroke: #03a0d5; stroke-width: 1.5; stroke-linecap: square"/>
   </g>
   <g id="patch_3">
    <path d="M 36 256.32 
L 36 34.56 
" style="fill: none; stroke: #000000; stroke-width: 0.8; stroke-linejoin: miter; stroke-linecap: square"/>
   </g>
   <g id="patch_4">
    <path d="M 36 256.32 
L 259.2 256.32 
" style="fill: none; stroke: #000000; stroke-width: 0.8; stroke-linejoin: miter; stroke-linecap: square"/>
   </g>
  </g>
 </g>
 <defs>
  <clipPath id="p9a1ef2c70c">
   <rect x="36" y="34.56" width="223.2" height="221.76"/>
  </clipPath>
 </defs>
</svg>
